M48
;Layer_Color=9474304
;FILE_FORMAT=2:5
INCH,TZ
;TYPE=PLATED
T1F00S00C0.02000
T2F00S00C0.02756
T3F00S00C0.03000
T4F00S00C0.03100
T5F00S00C0.03200
T6F00S00C0.03937
T7F00S00C0.05000
T8F00S00C0.05906
T9F00S00C0.07087
T10F00S00C0.08268
;TYPE=NON_PLATED
T11F00S00C0.06299
T12F00S00C0.12598
%
T01
X393701Y122047
Y157480
X322835Y161417
Y122047
X283465
X275590Y145669
Y157480
Y169291
X240158Y122047
X216535Y82677
X188976Y153543
X137795Y157480
Y145669
Y169291
X98425Y161417
X51181Y153543
Y188976
Y118110
X90551Y86614
X102362Y212598
X118110Y236221
X165354Y267717
X185039Y283465
X208661Y303150
X287402Y330709
X362205Y291339
X366142Y240158
X393701
X456693Y224410
X452756Y271654
X421260Y326772
X444882Y381890
X322835Y405512
X307087Y370079
X303150Y440945
X271654
T02
X385827Y98425
Y106299
X404528Y188976
X414370
X362205Y106299
Y98425
X267717Y98425
Y106299
X244094
Y98425
X220472Y145669
Y153543
X271654Y192913
X279528
X141732Y192913
X133858
X129921Y118110
X122047
X102362Y114173
Y122047
X145669Y118110
X153543
X173228Y114173
X173228Y122047
X47244Y220472
X39370
X433071Y262795
Y272638
T03
X368032Y181968
X358032Y182047
X238976Y187795
X222835Y167323
X210630Y198031
X200787Y198425
Y256693
X122795Y208622
X210630Y256299
T04
X248031Y266535
X258032
X268032
X278031
X288032
X298031
X308032
X318032
X328031
X338032
X348031
X358032
X368032
X378031
X388032
X398031
X408032Y266535
X408032Y216535
X398031
T05
X244094Y145669
Y155669
Y165669
X260591Y162480
Y152480
Y142480
X290591
Y152480
Y162480
Y172480
X260591
X152795
Y162480
Y152480
Y142480
X122795
X122795Y152480
Y162480
X122795Y172480
X47244Y236968
X37244
Y266968
X47244
X57244
X76614
X86614
X96614
Y236968
X86614
X76614
X57244
X119921Y307835
X129921
X139921
X159291
X169291
X179291
Y337835
X169291
X159291
X139921
X129921
X119921
X248031Y216535
X258032
X268032
X278031
X288032
X298031
X308032
X318032
X328031
X338032
X348031
X358032
X368032
X378031
X388032
T06
X364173Y86614
X374016
X383858
X265748
X255906
X246063
X147638Y88583
X137795
X127953
Y98425
X137795
X147638
X165354Y137795
X177165
X188976
Y177795
X177165
X165354
X110236
X98425
X86614
Y137795
X98425
X110236
X39370Y284646
Y334646
X62992Y334646
X86614Y334646
X86614Y284646
X62992
X66299Y224409
X106299
X133858Y247402
X149606
Y287402
X133858
X149606Y357638
Y397638
X118425Y381890
X108425
X98425
X66929Y397638
Y357638
X181102Y381890
X191102
X201102
T07
X364173Y440945
X374016
X393701
X403543
X423228
X433071
X413386Y460630
X354331
X344488Y440945
X334646
T08
X433071Y216220
Y236221
X170866Y425197
X150866
X130866
X110866
X90866
X70866
X47244Y401890
Y381890
T09
X119095Y59055
X156496
T10
X391339Y59055
X356693
X273228
X238583
T11
X374016Y460630
X393701
X433071
X413386Y440945
X354331
X334646Y460630
T12
X39370Y39370
X472441
X256890Y307283
X491142
X491142Y399803
X472441Y433071
X256890Y399803
X19685Y452756
M30
