G04 Layer_Color=16711935*
%FSLAX25Y25*%
%MOIN*%
G70*
G01*
G75*
%ADD29C,0.01000*%
%ADD31C,0.00200*%
D29*
X566929Y232283D02*
X570866Y236221D01*
X562992Y236221D02*
X566929Y232283D01*
Y244094D01*
X547244Y226470D02*
Y220472D01*
X550243D01*
X551243Y221472D01*
Y225471D01*
X550243Y226470D01*
X547244D01*
X553242Y224471D02*
Y220472D01*
Y222472D01*
X554242Y223471D01*
X555241Y224471D01*
X556241D01*
X559240Y220472D02*
X561240D01*
X560240D01*
Y224471D01*
X559240D01*
X564239Y220472D02*
X566238D01*
X565238D01*
Y226470D01*
X564239D01*
X569237Y220472D02*
X571236D01*
X570237D01*
Y226470D01*
X569237D01*
X584232Y225471D02*
X583232Y226470D01*
X581233D01*
X580233Y225471D01*
Y221472D01*
X581233Y220472D01*
X583232D01*
X584232Y221472D01*
X586232Y224471D02*
Y221472D01*
X587231Y220472D01*
X590230D01*
Y224471D01*
X593229Y225471D02*
Y224471D01*
X592230D01*
X594229D01*
X593229D01*
Y221472D01*
X594229Y220472D01*
D31*
X531496Y255906D02*
G03*
X533465Y253937I1969J0D01*
G01*
Y257874D02*
G03*
X531496Y255906I-0J-1969D01*
G01*
X610236Y255906D02*
G03*
X608268Y257874I-1969J-0D01*
G01*
X608268Y253937D02*
G03*
X610236Y255906I0J1969D01*
G01*
X100394Y250000D02*
G03*
X102362Y251969I0J1969D01*
G01*
X102362Y251969D02*
G03*
X100394Y253937I-1969J-0D01*
G01*
X25591Y253937D02*
G03*
X23622Y251969I-0J-1969D01*
G01*
Y251969D02*
G03*
X25591Y250000I1969J0D01*
G01*
X110236Y326772D02*
G03*
X112205Y324803I1969J0D01*
G01*
Y328740D02*
G03*
X110236Y326772I-0J-1969D01*
G01*
X188976Y326772D02*
G03*
X187008Y328740I-1969J-0D01*
G01*
X187008Y324803D02*
G03*
X188976Y326772I0J1969D01*
G01*
X533465Y253937D02*
X608268D01*
X533465Y257874D02*
X608268D01*
X0Y0D02*
Y472441D01*
X511811D01*
Y0D02*
Y472441D01*
X0Y0D02*
X511811D01*
X25591Y253937D02*
X100394D01*
X25591Y250000D02*
X100394D01*
X112205Y324803D02*
X187008D01*
X112205Y328740D02*
X187008D01*
M02*
