G04 Layer_Color=16711935*
%FSLAX25Y25*%
%MOIN*%
G70*
G01*
G75*
%ADD13C,0.07874*%
%ADD14C,0.05906*%
%ADD15C,0.03937*%
G04:AMPARAMS|DCode=16|XSize=98.43mil|YSize=98.43mil|CornerRadius=24.61mil|HoleSize=0mil|Usage=FLASHONLY|Rotation=90.000|XOffset=0mil|YOffset=0mil|HoleType=Round|Shape=RoundedRectangle|*
%AMROUNDEDRECTD16*
21,1,0.09843,0.04921,0,0,90.0*
21,1,0.04921,0.09843,0,0,90.0*
1,1,0.04921,0.02461,0.02461*
1,1,0.04921,0.02461,-0.02461*
1,1,0.04921,-0.02461,-0.02461*
1,1,0.04921,-0.02461,0.02461*
%
%ADD16ROUNDEDRECTD16*%
%ADD17O,0.08000X0.11811*%
G04:AMPARAMS|DCode=18|XSize=118.11mil|YSize=118.11mil|CornerRadius=29.53mil|HoleSize=0mil|Usage=FLASHONLY|Rotation=180.000|XOffset=0mil|YOffset=0mil|HoleType=Round|Shape=RoundedRectangle|*
%AMROUNDEDRECTD18*
21,1,0.11811,0.05906,0,0,180.0*
21,1,0.05906,0.11811,0,0,180.0*
1,1,0.05906,-0.02953,0.02953*
1,1,0.05906,0.02953,0.02953*
1,1,0.05906,0.02953,-0.02953*
1,1,0.05906,-0.02953,-0.02953*
%
%ADD18ROUNDEDRECTD18*%
G04:AMPARAMS|DCode=19|XSize=59.06mil|YSize=59.06mil|CornerRadius=14.76mil|HoleSize=0mil|Usage=FLASHONLY|Rotation=180.000|XOffset=0mil|YOffset=0mil|HoleType=Round|Shape=RoundedRectangle|*
%AMROUNDEDRECTD19*
21,1,0.05906,0.02953,0,0,180.0*
21,1,0.02953,0.05906,0,0,180.0*
1,1,0.02953,-0.01476,0.01476*
1,1,0.02953,0.01476,0.01476*
1,1,0.02953,0.01476,-0.01476*
1,1,0.02953,-0.01476,-0.01476*
%
%ADD19ROUNDEDRECTD19*%
%ADD20O,0.08000X0.05000*%
%ADD21C,0.05000*%
%ADD22C,0.11811*%
%ADD23O,0.05000X0.08000*%
%ADD24O,0.05906X0.10000*%
%ADD25C,0.12598*%
%ADD26C,0.12598*%
D13*
X165354Y177795D02*
D03*
Y137795D02*
D03*
X177165D02*
D03*
Y177795D02*
D03*
X110236D02*
D03*
Y137795D02*
D03*
X188976Y177795D02*
D03*
Y137795D02*
D03*
X98425D02*
D03*
Y177795D02*
D03*
X86614Y137795D02*
D03*
Y177795D02*
D03*
X149606Y357638D02*
D03*
Y397638D02*
D03*
X149606Y247402D02*
D03*
Y287402D02*
D03*
X39370Y284646D02*
D03*
Y334646D02*
D03*
X62992Y334646D02*
D03*
Y284646D02*
D03*
X86614D02*
D03*
X86614Y334646D02*
D03*
X66299Y224409D02*
D03*
X106299D02*
D03*
X66929Y357638D02*
D03*
Y397638D02*
D03*
X133858Y247402D02*
D03*
Y287402D02*
D03*
D14*
X153543Y118110D02*
D03*
X145669D02*
D03*
X173228Y122047D02*
D03*
X173228Y114173D02*
D03*
X122047Y118110D02*
D03*
X129921D02*
D03*
X220472Y153543D02*
D03*
Y145669D02*
D03*
X102362Y122047D02*
D03*
Y114173D02*
D03*
X141732Y192913D02*
D03*
X133858D02*
D03*
X279528Y192913D02*
D03*
X271654D02*
D03*
X244094Y98425D02*
D03*
Y106299D02*
D03*
X267717Y98425D02*
D03*
Y106299D02*
D03*
X362205Y98425D02*
D03*
Y106299D02*
D03*
X385827Y98425D02*
D03*
Y106299D02*
D03*
X414370Y188976D02*
D03*
X404528D02*
D03*
X433071Y262795D02*
D03*
Y272638D02*
D03*
X47244Y220472D02*
D03*
X39370D02*
D03*
D15*
X393701Y460630D02*
D03*
X433071D02*
D03*
X413386Y440945D02*
D03*
X334646Y460630D02*
D03*
X374016D02*
D03*
X354331Y440945D02*
D03*
D16*
X413386Y460630D02*
D03*
X354331D02*
D03*
D17*
X423228Y440945D02*
D03*
X433071D02*
D03*
X403543D02*
D03*
X393701D02*
D03*
X364173D02*
D03*
X374016D02*
D03*
X344488D02*
D03*
X334646D02*
D03*
D18*
X119095Y59055D02*
D03*
X156496D02*
D03*
X273228D02*
D03*
X238583D02*
D03*
X391339D02*
D03*
X356693D02*
D03*
D19*
X137795Y88583D02*
D03*
X127953D02*
D03*
X147638D02*
D03*
Y98425D02*
D03*
X127953D02*
D03*
X137795D02*
D03*
X265748Y86614D02*
D03*
X255906D02*
D03*
X246063D02*
D03*
X383858D02*
D03*
X374016D02*
D03*
X364173D02*
D03*
D20*
X244094Y165669D02*
D03*
Y155669D02*
D03*
Y145669D02*
D03*
X152795Y162480D02*
D03*
Y172480D02*
D03*
Y142480D02*
D03*
Y152480D02*
D03*
X122795Y142480D02*
D03*
X122795Y152480D02*
D03*
Y162480D02*
D03*
X122795Y172480D02*
D03*
X290591Y162480D02*
D03*
Y172480D02*
D03*
Y142480D02*
D03*
Y152480D02*
D03*
X260591Y142480D02*
D03*
Y152480D02*
D03*
Y162480D02*
D03*
Y172480D02*
D03*
D21*
X388032Y266535D02*
D03*
X378031D02*
D03*
X348031D02*
D03*
X358032D02*
D03*
X308032D02*
D03*
X318032D02*
D03*
X298031D02*
D03*
X258032D02*
D03*
X248031D02*
D03*
X268032D02*
D03*
X288032D02*
D03*
X278031D02*
D03*
X338032D02*
D03*
X328031D02*
D03*
X368032D02*
D03*
X388032Y216535D02*
D03*
X378031D02*
D03*
X348031D02*
D03*
X358032D02*
D03*
X308032D02*
D03*
X318032D02*
D03*
X298031D02*
D03*
X258032D02*
D03*
X248031D02*
D03*
X268032D02*
D03*
X288032D02*
D03*
X278031D02*
D03*
X338032D02*
D03*
X328031D02*
D03*
X368032D02*
D03*
X408032Y266535D02*
D03*
X398031Y266535D02*
D03*
X408032Y216535D02*
D03*
X398031D02*
D03*
D22*
X70866Y425197D02*
D03*
X90866D02*
D03*
X110866D02*
D03*
X130866D02*
D03*
X150866D02*
D03*
X170866D02*
D03*
X47244Y381890D02*
D03*
Y401890D02*
D03*
X433071Y236221D02*
D03*
Y216220D02*
D03*
D23*
X169291Y337835D02*
D03*
X159291D02*
D03*
X179291D02*
D03*
Y307835D02*
D03*
X169291D02*
D03*
X159291D02*
D03*
X86614Y236968D02*
D03*
X96614D02*
D03*
X76614D02*
D03*
Y266968D02*
D03*
X86614D02*
D03*
X96614D02*
D03*
X47244Y236968D02*
D03*
X57244D02*
D03*
X37244D02*
D03*
Y266968D02*
D03*
X47244D02*
D03*
X57244D02*
D03*
X129921Y337835D02*
D03*
X119921D02*
D03*
X139921D02*
D03*
Y307835D02*
D03*
X129921D02*
D03*
X119921D02*
D03*
D24*
X201102Y381890D02*
D03*
X191102D02*
D03*
X181102D02*
D03*
X118425D02*
D03*
X108425D02*
D03*
X98425D02*
D03*
D25*
X491142Y307283D02*
D03*
X491142Y399803D02*
D03*
X256890Y399803D02*
D03*
Y307283D02*
D03*
D26*
X19685Y452756D02*
D03*
X39370Y39370D02*
D03*
X472441D02*
D03*
Y433071D02*
D03*
M02*
