G04 Layer_Physical_Order=2*
G04 Layer_Color=16711680*
%FSLAX25Y25*%
%MOIN*%
G70*
G01*
G75*
%ADD10C,0.03937*%
%ADD11C,0.11811*%
%ADD12C,0.05906*%
%ADD13C,0.07874*%
%ADD14C,0.05906*%
%ADD15C,0.03937*%
G04:AMPARAMS|DCode=16|XSize=98.43mil|YSize=98.43mil|CornerRadius=24.61mil|HoleSize=0mil|Usage=FLASHONLY|Rotation=90.000|XOffset=0mil|YOffset=0mil|HoleType=Round|Shape=RoundedRectangle|*
%AMROUNDEDRECTD16*
21,1,0.09843,0.04921,0,0,90.0*
21,1,0.04921,0.09843,0,0,90.0*
1,1,0.04921,0.02461,0.02461*
1,1,0.04921,0.02461,-0.02461*
1,1,0.04921,-0.02461,-0.02461*
1,1,0.04921,-0.02461,0.02461*
%
%ADD16ROUNDEDRECTD16*%
%ADD17O,0.08000X0.11811*%
G04:AMPARAMS|DCode=18|XSize=118.11mil|YSize=118.11mil|CornerRadius=29.53mil|HoleSize=0mil|Usage=FLASHONLY|Rotation=180.000|XOffset=0mil|YOffset=0mil|HoleType=Round|Shape=RoundedRectangle|*
%AMROUNDEDRECTD18*
21,1,0.11811,0.05906,0,0,180.0*
21,1,0.05906,0.11811,0,0,180.0*
1,1,0.05906,-0.02953,0.02953*
1,1,0.05906,0.02953,0.02953*
1,1,0.05906,0.02953,-0.02953*
1,1,0.05906,-0.02953,-0.02953*
%
%ADD18ROUNDEDRECTD18*%
G04:AMPARAMS|DCode=19|XSize=59.06mil|YSize=59.06mil|CornerRadius=14.76mil|HoleSize=0mil|Usage=FLASHONLY|Rotation=180.000|XOffset=0mil|YOffset=0mil|HoleType=Round|Shape=RoundedRectangle|*
%AMROUNDEDRECTD19*
21,1,0.05906,0.02953,0,0,180.0*
21,1,0.02953,0.05906,0,0,180.0*
1,1,0.02953,-0.01476,0.01476*
1,1,0.02953,0.01476,0.01476*
1,1,0.02953,0.01476,-0.01476*
1,1,0.02953,-0.01476,-0.01476*
%
%ADD19ROUNDEDRECTD19*%
%ADD20O,0.08000X0.05000*%
%ADD21C,0.05000*%
%ADD22C,0.11811*%
%ADD23O,0.05000X0.08000*%
%ADD24O,0.05906X0.10000*%
%ADD25C,0.12598*%
%ADD26C,0.12598*%
%ADD27C,0.06000*%
%ADD28C,0.03000*%
G36*
X509294Y2517D02*
X2517D01*
Y247244D01*
X111417Y247244D01*
X124016Y247244D01*
Y259842D01*
Y304543D01*
X124275Y305168D01*
X124428Y306335D01*
Y309335D01*
X124275Y310501D01*
X124016Y311126D01*
Y319291D01*
X240945D01*
Y360630D01*
Y396617D01*
X241445Y396676D01*
X241866Y394922D01*
X242815Y392632D01*
X244110Y390518D01*
X245720Y388633D01*
X247605Y387023D01*
X249718Y385728D01*
X252008Y384780D01*
X254418Y384201D01*
X256890Y384006D01*
X259361Y384201D01*
X261771Y384780D01*
X264061Y385728D01*
X266175Y387023D01*
X268060Y388633D01*
X269670Y390518D01*
X270965Y392632D01*
X271913Y394922D01*
X272492Y397332D01*
X272686Y399803D01*
X272492Y402274D01*
X271913Y404685D01*
X270965Y406975D01*
X269670Y409088D01*
X268060Y410973D01*
X266175Y412583D01*
X264061Y413878D01*
X261771Y414827D01*
X259361Y415405D01*
X256890Y415600D01*
X254418Y415405D01*
X252008Y414827D01*
X249718Y413878D01*
X247605Y412583D01*
X245720Y410973D01*
X244110Y409088D01*
X242815Y406975D01*
X241866Y404685D01*
X241445Y402930D01*
X240945Y402989D01*
Y469924D01*
X509294D01*
Y2517D01*
D02*
G37*
%LPC*%
G36*
X122795Y213633D02*
X121498Y213463D01*
X120290Y212962D01*
X119252Y212166D01*
X118455Y211128D01*
X117955Y209919D01*
X117784Y208622D01*
X117832Y208260D01*
Y175307D01*
X117392Y174734D01*
X116942Y173647D01*
X116788Y172480D01*
X116942Y171314D01*
X117392Y170227D01*
X118108Y169293D01*
X119042Y168577D01*
X120129Y168127D01*
X120427Y168087D01*
X120559Y167944D01*
X120339Y167444D01*
X118080D01*
X115200Y170324D01*
Y174554D01*
X115719Y175524D01*
X116056Y176638D01*
X116170Y177795D01*
X116056Y178953D01*
X115719Y180066D01*
X115170Y181092D01*
X114432Y181991D01*
X113533Y182729D01*
X112507Y183278D01*
X111394Y183615D01*
X110236Y183729D01*
X109079Y183615D01*
X107965Y183278D01*
X106939Y182729D01*
X106040Y181991D01*
X105302Y181092D01*
X104754Y180066D01*
X104592Y179533D01*
X104069D01*
X103908Y180066D01*
X103359Y181092D01*
X102621Y181991D01*
X101722Y182729D01*
X100696Y183278D01*
X99583Y183615D01*
X98425Y183729D01*
X97268Y183615D01*
X96154Y183278D01*
X95128Y182729D01*
X94229Y181991D01*
X93491Y181092D01*
X92943Y180066D01*
X92781Y179533D01*
X92258D01*
X92097Y180066D01*
X91548Y181092D01*
X90810Y181991D01*
X89911Y182729D01*
X88885Y183278D01*
X87772Y183615D01*
X86614Y183729D01*
X85457Y183615D01*
X84343Y183278D01*
X83317Y182729D01*
X82418Y181991D01*
X81680Y181092D01*
X81132Y180066D01*
X80794Y178953D01*
X80680Y177795D01*
X80794Y176638D01*
X81132Y175524D01*
X81680Y174498D01*
X82418Y173599D01*
X83317Y172861D01*
X84343Y172313D01*
X85457Y171975D01*
X86614Y171861D01*
X87772Y171975D01*
X88885Y172313D01*
X89911Y172861D01*
X90810Y173599D01*
X91548Y174498D01*
X92097Y175524D01*
X92258Y176058D01*
X92781D01*
X92943Y175524D01*
X93491Y174498D01*
X94229Y173599D01*
X95128Y172861D01*
X96154Y172313D01*
X97268Y171975D01*
X98425Y171861D01*
X99583Y171975D01*
X100696Y172313D01*
X101722Y172861D01*
X102621Y173599D01*
X103359Y174498D01*
X103908Y175524D01*
X104069Y176058D01*
X104592D01*
X104754Y175524D01*
X105272Y174554D01*
Y168268D01*
X105442Y166983D01*
X105938Y165786D01*
X106726Y164758D01*
X109004Y162480D01*
X94915Y148392D01*
X94126Y147364D01*
X93631Y146167D01*
X93462Y144882D01*
Y141036D01*
X92943Y140066D01*
X92781Y139532D01*
X92258D01*
X92097Y140066D01*
X91548Y141092D01*
X90810Y141991D01*
X89911Y142729D01*
X88885Y143278D01*
X87772Y143615D01*
X86614Y143729D01*
X85457Y143615D01*
X84343Y143278D01*
X83317Y142729D01*
X82418Y141991D01*
X81680Y141092D01*
X81132Y140066D01*
X80794Y138953D01*
X80680Y137795D01*
X80794Y136638D01*
X81132Y135524D01*
X81680Y134499D01*
X82418Y133599D01*
X83317Y132861D01*
X84343Y132313D01*
X85457Y131975D01*
X86614Y131861D01*
X87772Y131975D01*
X88885Y132313D01*
X89911Y132861D01*
X90810Y133599D01*
X91548Y134499D01*
X92097Y135524D01*
X92258Y136058D01*
X92781D01*
X92943Y135524D01*
X93491Y134499D01*
X94229Y133599D01*
X95128Y132861D01*
X96154Y132313D01*
X97268Y131975D01*
X98425Y131861D01*
X99583Y131975D01*
X100696Y132313D01*
X101722Y132861D01*
X102621Y133599D01*
X103359Y134499D01*
X103908Y135524D01*
X104069Y136058D01*
X104592D01*
X104754Y135524D01*
X105302Y134499D01*
X106040Y133599D01*
X106939Y132861D01*
X107965Y132313D01*
X109079Y131975D01*
X110236Y131861D01*
X111394Y131975D01*
X112507Y132313D01*
X113533Y132861D01*
X114432Y133599D01*
X115170Y134499D01*
X115719Y135524D01*
X116056Y136638D01*
X116170Y137795D01*
X116056Y138953D01*
X115719Y140066D01*
X115170Y141092D01*
X114432Y141991D01*
X113533Y142729D01*
X112507Y143278D01*
X111394Y143615D01*
X110236Y143729D01*
X109079Y143615D01*
X107965Y143278D01*
X106939Y142729D01*
X106040Y141991D01*
X105302Y141092D01*
X104754Y140066D01*
X104592Y139532D01*
X104069D01*
X103908Y140066D01*
X103389Y141036D01*
Y142826D01*
X118080Y157517D01*
X122795D01*
X124080Y157686D01*
X124997Y158066D01*
X125462Y158127D01*
X126549Y158577D01*
X127482Y159293D01*
X128199Y160227D01*
X128649Y161314D01*
X128802Y162480D01*
X128649Y163647D01*
X128199Y164734D01*
X127482Y165667D01*
X126549Y166384D01*
X125462Y166834D01*
X124997Y166895D01*
X124204Y167224D01*
X124203Y167225D01*
X124203Y167736D01*
X124204Y167737D01*
X124997Y168066D01*
X125462Y168127D01*
X126549Y168577D01*
X127482Y169293D01*
X128199Y170227D01*
X128649Y171314D01*
X128802Y172480D01*
X128649Y173647D01*
X128199Y174734D01*
X127759Y175307D01*
Y208260D01*
X127807Y208622D01*
X127636Y209919D01*
X127135Y211128D01*
X126339Y212166D01*
X125301Y212962D01*
X124092Y213463D01*
X122795Y213633D01*
D02*
G37*
G36*
X245595Y170176D02*
X242595D01*
X241428Y170023D01*
X240341Y169572D01*
X239407Y168856D01*
X238691Y167923D01*
X238241Y166836D01*
X238087Y165669D01*
X238241Y164503D01*
X238691Y163416D01*
X239407Y162482D01*
X240341Y161766D01*
X241428Y161316D01*
X242595Y161162D01*
X245595D01*
X246761Y161316D01*
X247848Y161766D01*
X248781Y162482D01*
X249498Y163416D01*
X249948Y164503D01*
X250101Y165669D01*
X249948Y166836D01*
X249498Y167923D01*
X248781Y168856D01*
X247848Y169572D01*
X246761Y170023D01*
X245595Y170176D01*
D02*
G37*
G36*
X279528Y197877D02*
X278243Y197708D01*
X277046Y197212D01*
X276018Y196423D01*
X275229Y195395D01*
X274733Y194198D01*
X274564Y192913D01*
X274733Y191629D01*
X275229Y190431D01*
X276018Y189403D01*
X277046Y188615D01*
X278243Y188119D01*
X279528Y187950D01*
X280812Y188119D01*
X282009Y188615D01*
X283037Y189403D01*
X283826Y190431D01*
X284322Y191629D01*
X284491Y192913D01*
X284322Y194198D01*
X283826Y195395D01*
X283037Y196423D01*
X282009Y197212D01*
X280812Y197708D01*
X279528Y197877D01*
D02*
G37*
G36*
X414370Y193940D02*
X413085Y193771D01*
X411888Y193275D01*
X410860Y192486D01*
X410071Y191458D01*
X409576Y190261D01*
X409406Y188976D01*
X409576Y187692D01*
X410071Y186495D01*
X410860Y185467D01*
X411888Y184678D01*
X413085Y184182D01*
X414370Y184013D01*
X415655Y184182D01*
X416852Y184678D01*
X417880Y185467D01*
X418669Y186495D01*
X419165Y187692D01*
X419334Y188976D01*
X419165Y190261D01*
X418669Y191458D01*
X417880Y192486D01*
X416852Y193275D01*
X415655Y193771D01*
X414370Y193940D01*
D02*
G37*
G36*
X292091Y176987D02*
X289090D01*
X287924Y176834D01*
X286837Y176383D01*
X285904Y175667D01*
X285187Y174734D01*
X284737Y173647D01*
X284583Y172480D01*
X284737Y171314D01*
X285187Y170227D01*
X285904Y169293D01*
X286837Y168577D01*
X287924Y168127D01*
X289090Y167973D01*
X292091D01*
X293257Y168127D01*
X294344Y168577D01*
X295278Y169293D01*
X295994Y170227D01*
X296444Y171314D01*
X296598Y172480D01*
X296444Y173647D01*
X295994Y174734D01*
X295278Y175667D01*
X294344Y176383D01*
X293257Y176834D01*
X292091Y176987D01*
D02*
G37*
G36*
X220472Y158507D02*
X219188Y158338D01*
X217991Y157842D01*
X216963Y157053D01*
X216174Y156025D01*
X215678Y154828D01*
X215509Y153543D01*
X215678Y152259D01*
X216174Y151061D01*
X216963Y150033D01*
X217991Y149245D01*
X219188Y148749D01*
X220472Y148580D01*
X221757Y148749D01*
X222954Y149245D01*
X223982Y150033D01*
X224771Y151061D01*
X225267Y152259D01*
X225436Y153543D01*
X225267Y154828D01*
X224771Y156025D01*
X223982Y157053D01*
X222954Y157842D01*
X221757Y158338D01*
X220472Y158507D01*
D02*
G37*
G36*
X292091Y156987D02*
X289090D01*
X287924Y156834D01*
X286837Y156384D01*
X285904Y155667D01*
X285187Y154734D01*
X284737Y153647D01*
X284583Y152480D01*
X284737Y151314D01*
X285187Y150227D01*
X285904Y149293D01*
X286837Y148577D01*
X287924Y148127D01*
X289090Y147973D01*
X292091D01*
X293257Y148127D01*
X294344Y148577D01*
X295278Y149293D01*
X295994Y150227D01*
X296444Y151314D01*
X296598Y152480D01*
X296444Y153647D01*
X295994Y154734D01*
X295278Y155667D01*
X294344Y156384D01*
X293257Y156834D01*
X292091Y156987D01*
D02*
G37*
G36*
X262090D02*
X259090D01*
X257924Y156834D01*
X256837Y156384D01*
X255904Y155667D01*
X255187Y154734D01*
X254737Y153647D01*
X254584Y152480D01*
X254737Y151314D01*
X255187Y150227D01*
X255904Y149293D01*
X256837Y148577D01*
X257924Y148127D01*
X259090Y147973D01*
X262090D01*
X263257Y148127D01*
X264344Y148577D01*
X265278Y149293D01*
X265994Y150227D01*
X266444Y151314D01*
X266598Y152480D01*
X266444Y153647D01*
X265994Y154734D01*
X265278Y155667D01*
X264344Y156384D01*
X263257Y156834D01*
X262090Y156987D01*
D02*
G37*
G36*
X292091Y166987D02*
X289090D01*
X287924Y166834D01*
X286837Y166384D01*
X285904Y165667D01*
X285187Y164734D01*
X284737Y163647D01*
X284583Y162480D01*
X284737Y161314D01*
X285187Y160227D01*
X285904Y159293D01*
X286837Y158577D01*
X287924Y158127D01*
X289090Y157973D01*
X292091D01*
X293257Y158127D01*
X294344Y158577D01*
X295278Y159293D01*
X295994Y160227D01*
X296444Y161314D01*
X296598Y162480D01*
X296444Y163647D01*
X295994Y164734D01*
X295278Y165667D01*
X294344Y166384D01*
X293257Y166834D01*
X292091Y166987D01*
D02*
G37*
G36*
X262090D02*
X259090D01*
X257924Y166834D01*
X256837Y166384D01*
X255904Y165667D01*
X255187Y164734D01*
X254737Y163647D01*
X254584Y162480D01*
X254737Y161314D01*
X255187Y160227D01*
X255904Y159293D01*
X256837Y158577D01*
X257924Y158127D01*
X259090Y157973D01*
X262090D01*
X263257Y158127D01*
X264344Y158577D01*
X265278Y159293D01*
X265994Y160227D01*
X266444Y161314D01*
X266598Y162480D01*
X266444Y163647D01*
X265994Y164734D01*
X265278Y165667D01*
X264344Y166384D01*
X263257Y166834D01*
X262090Y166987D01*
D02*
G37*
G36*
X245595Y160176D02*
X242595D01*
X241428Y160023D01*
X240341Y159573D01*
X239407Y158856D01*
X238691Y157923D01*
X238241Y156836D01*
X238087Y155669D01*
X238241Y154503D01*
X238691Y153416D01*
X239407Y152482D01*
X240341Y151766D01*
X241428Y151316D01*
X242595Y151162D01*
X245595D01*
X246761Y151316D01*
X247848Y151766D01*
X248781Y152482D01*
X249498Y153416D01*
X249948Y154503D01*
X250101Y155669D01*
X249948Y156836D01*
X249498Y157923D01*
X248781Y158856D01*
X247848Y159573D01*
X246761Y160023D01*
X245595Y160176D01*
D02*
G37*
G36*
X298031Y221042D02*
X296865Y220889D01*
X295778Y220439D01*
X294845Y219722D01*
X294128Y218789D01*
X293678Y217702D01*
X293524Y216535D01*
X293678Y215369D01*
X294128Y214282D01*
X294845Y213349D01*
X295778Y212632D01*
X296865Y212182D01*
X298031Y212028D01*
X299198Y212182D01*
X300285Y212632D01*
X301219Y213349D01*
X301935Y214282D01*
X302385Y215369D01*
X302539Y216535D01*
X302385Y217702D01*
X301935Y218789D01*
X301219Y219722D01*
X300285Y220439D01*
X299198Y220889D01*
X298031Y221042D01*
D02*
G37*
G36*
X288032D02*
X286865Y220889D01*
X285778Y220439D01*
X284844Y219722D01*
X284128Y218789D01*
X283678Y217702D01*
X283524Y216535D01*
X283678Y215369D01*
X284128Y214282D01*
X284844Y213349D01*
X285778Y212632D01*
X286865Y212182D01*
X288032Y212028D01*
X289198Y212182D01*
X290285Y212632D01*
X291218Y213349D01*
X291935Y214282D01*
X292385Y215369D01*
X292539Y216535D01*
X292385Y217702D01*
X291935Y218789D01*
X291218Y219722D01*
X290285Y220439D01*
X289198Y220889D01*
X288032Y221042D01*
D02*
G37*
G36*
X308032D02*
X306865Y220889D01*
X305778Y220439D01*
X304844Y219722D01*
X304128Y218789D01*
X303678Y217702D01*
X303524Y216535D01*
X303678Y215369D01*
X304128Y214282D01*
X304844Y213349D01*
X305778Y212632D01*
X306865Y212182D01*
X308032Y212028D01*
X309198Y212182D01*
X310285Y212632D01*
X311219Y213349D01*
X311935Y214282D01*
X312385Y215369D01*
X312539Y216535D01*
X312385Y217702D01*
X311935Y218789D01*
X311219Y219722D01*
X310285Y220439D01*
X309198Y220889D01*
X308032Y221042D01*
D02*
G37*
G36*
X328031D02*
X326865Y220889D01*
X325778Y220439D01*
X324845Y219722D01*
X324128Y218789D01*
X323678Y217702D01*
X323524Y216535D01*
X323678Y215369D01*
X324128Y214282D01*
X324845Y213349D01*
X325778Y212632D01*
X326865Y212182D01*
X328031Y212028D01*
X329198Y212182D01*
X330285Y212632D01*
X331219Y213349D01*
X331935Y214282D01*
X332385Y215369D01*
X332539Y216535D01*
X332385Y217702D01*
X331935Y218789D01*
X331219Y219722D01*
X330285Y220439D01*
X329198Y220889D01*
X328031Y221042D01*
D02*
G37*
G36*
X318032D02*
X316865Y220889D01*
X315778Y220439D01*
X314844Y219722D01*
X314128Y218789D01*
X313678Y217702D01*
X313524Y216535D01*
X313678Y215369D01*
X314128Y214282D01*
X314844Y213349D01*
X315778Y212632D01*
X316865Y212182D01*
X318032Y212028D01*
X319198Y212182D01*
X320285Y212632D01*
X321218Y213349D01*
X321935Y214282D01*
X322385Y215369D01*
X322538Y216535D01*
X322385Y217702D01*
X321935Y218789D01*
X321218Y219722D01*
X320285Y220439D01*
X319198Y220889D01*
X318032Y221042D01*
D02*
G37*
G36*
X278031D02*
X276865Y220889D01*
X275778Y220439D01*
X274845Y219722D01*
X274128Y218789D01*
X273678Y217702D01*
X273524Y216535D01*
X273678Y215369D01*
X274128Y214282D01*
X274845Y213349D01*
X275778Y212632D01*
X276865Y212182D01*
X278031Y212028D01*
X279198Y212182D01*
X280285Y212632D01*
X281219Y213349D01*
X281935Y214282D01*
X282385Y215369D01*
X282539Y216535D01*
X282385Y217702D01*
X281935Y218789D01*
X281219Y219722D01*
X280285Y220439D01*
X279198Y220889D01*
X278031Y221042D01*
D02*
G37*
G36*
X433071Y224133D02*
X431527Y223980D01*
X430043Y223530D01*
X428675Y222799D01*
X427476Y221815D01*
X426492Y220616D01*
X425761Y219248D01*
X425311Y217764D01*
X425159Y216220D01*
X425311Y214677D01*
X425761Y213193D01*
X426492Y211825D01*
X427476Y210626D01*
X428675Y209642D01*
X430043Y208911D01*
X431527Y208460D01*
X433071Y208308D01*
X434615Y208460D01*
X436099Y208911D01*
X437467Y209642D01*
X438666Y210626D01*
X439649Y211825D01*
X440381Y213193D01*
X440831Y214677D01*
X440983Y216220D01*
X440831Y217764D01*
X440381Y219248D01*
X439649Y220616D01*
X438666Y221815D01*
X437467Y222799D01*
X436099Y223530D01*
X434615Y223980D01*
X433071Y224133D01*
D02*
G37*
G36*
X200787Y261704D02*
X199490Y261533D01*
X198282Y261033D01*
X197244Y260237D01*
X196447Y259199D01*
X195947Y257990D01*
X195776Y256693D01*
X195824Y256331D01*
Y198787D01*
X195776Y198425D01*
X195947Y197128D01*
X196447Y195920D01*
X197244Y194882D01*
X198282Y194085D01*
X199490Y193585D01*
X200787Y193414D01*
X202084Y193585D01*
X203293Y194085D01*
X204331Y194882D01*
X205127Y195920D01*
X205357Y196473D01*
X205898D01*
X206290Y195526D01*
X207086Y194488D01*
X208124Y193692D01*
X209168Y193259D01*
X209069Y192759D01*
X149858D01*
X149316Y192984D01*
X148586Y193080D01*
X145242Y196423D01*
X144214Y197212D01*
X143017Y197708D01*
X141732Y197877D01*
X140448Y197708D01*
X139250Y197212D01*
X138222Y196423D01*
X137434Y195395D01*
X136938Y194198D01*
X136769Y192913D01*
X136938Y191629D01*
X137434Y190431D01*
X138222Y189403D01*
X143734Y183892D01*
X147831Y179794D01*
Y175307D01*
X147392Y174734D01*
X146942Y173647D01*
X146788Y172480D01*
X146942Y171314D01*
X147392Y170227D01*
X148108Y169293D01*
X149042Y168577D01*
X150129Y168127D01*
X150593Y168066D01*
X151387Y167737D01*
X151387Y167736D01*
Y167225D01*
X151387Y167224D01*
X150593Y166895D01*
X150129Y166834D01*
X149042Y166384D01*
X148108Y165667D01*
X147392Y164734D01*
X146942Y163647D01*
X146788Y162480D01*
X146942Y161314D01*
X147392Y160227D01*
X148108Y159293D01*
X149042Y158577D01*
X150129Y158127D01*
X150593Y158066D01*
X151511Y157686D01*
X152795Y157517D01*
X167598D01*
X168883Y157686D01*
X170080Y158182D01*
X171108Y158970D01*
X177165Y165027D01*
X178380Y163813D01*
X179408Y163024D01*
X180605Y162528D01*
X181890Y162359D01*
X222473D01*
X222835Y162311D01*
X224132Y162482D01*
X225340Y162983D01*
X226378Y163779D01*
X227175Y164817D01*
X227675Y166026D01*
X227846Y167323D01*
X227675Y168620D01*
X227175Y169828D01*
X226378Y170866D01*
X225340Y171663D01*
X225247Y171702D01*
X225346Y172202D01*
X253850D01*
X254737Y171314D01*
X254737Y171314D01*
X255187Y170227D01*
X255904Y169293D01*
X256837Y168577D01*
X257924Y168127D01*
X258389Y168066D01*
X259306Y167686D01*
X260591Y167517D01*
X261875Y167686D01*
X262792Y168066D01*
X263257Y168127D01*
X264344Y168577D01*
X265278Y169293D01*
X265994Y170227D01*
X266444Y171314D01*
X266598Y172480D01*
X266444Y173647D01*
X265994Y174734D01*
X265278Y175667D01*
X264344Y176383D01*
X263257Y176834D01*
X263257Y176834D01*
X259415Y180675D01*
X258387Y181464D01*
X257190Y181960D01*
X255906Y182129D01*
X193198D01*
X193030Y182332D01*
X193265Y182832D01*
X238614D01*
X238976Y182784D01*
X240273Y182955D01*
X241482Y183455D01*
X242520Y184252D01*
X243316Y185290D01*
X243817Y186498D01*
X243988Y187795D01*
X243817Y189092D01*
X243316Y190301D01*
X242520Y191339D01*
X241482Y192135D01*
X240273Y192636D01*
X238976Y192807D01*
X238614Y192759D01*
X212191D01*
X212091Y193259D01*
X213136Y193692D01*
X214174Y194488D01*
X214970Y195526D01*
X215471Y196734D01*
X215641Y198031D01*
X215594Y198393D01*
Y255937D01*
X215641Y256299D01*
X215471Y257596D01*
X214970Y258805D01*
X214174Y259843D01*
X213136Y260639D01*
X211927Y261140D01*
X210630Y261311D01*
X209333Y261140D01*
X208124Y260639D01*
X207086Y259843D01*
X206290Y258805D01*
X206061Y258252D01*
X205520D01*
X205127Y259199D01*
X204331Y260237D01*
X203293Y261033D01*
X202084Y261533D01*
X200787Y261704D01*
D02*
G37*
G36*
X248031Y221042D02*
X246865Y220889D01*
X245778Y220439D01*
X244845Y219722D01*
X244128Y218789D01*
X243678Y217702D01*
X243524Y216535D01*
X243678Y215369D01*
X244128Y214282D01*
X244845Y213349D01*
X245778Y212632D01*
X246865Y212182D01*
X248031Y212028D01*
X249198Y212182D01*
X250285Y212632D01*
X251219Y213349D01*
X251935Y214282D01*
X252385Y215369D01*
X252539Y216535D01*
X252385Y217702D01*
X251935Y218789D01*
X251219Y219722D01*
X250285Y220439D01*
X249198Y220889D01*
X248031Y221042D01*
D02*
G37*
G36*
X268032D02*
X266865Y220889D01*
X265778Y220439D01*
X264844Y219722D01*
X264128Y218789D01*
X263678Y217702D01*
X263524Y216535D01*
X263678Y215369D01*
X264128Y214282D01*
X264844Y213349D01*
X265778Y212632D01*
X266865Y212182D01*
X268032Y212028D01*
X269198Y212182D01*
X270285Y212632D01*
X271218Y213349D01*
X271935Y214282D01*
X272385Y215369D01*
X272539Y216535D01*
X272385Y217702D01*
X271935Y218789D01*
X271218Y219722D01*
X270285Y220439D01*
X269198Y220889D01*
X268032Y221042D01*
D02*
G37*
G36*
X258032D02*
X256865Y220889D01*
X255778Y220439D01*
X254844Y219722D01*
X254128Y218789D01*
X253678Y217702D01*
X253524Y216535D01*
X253678Y215369D01*
X254128Y214282D01*
X254844Y213349D01*
X255778Y212632D01*
X256865Y212182D01*
X258032Y212028D01*
X259198Y212182D01*
X260285Y212632D01*
X261219Y213349D01*
X261935Y214282D01*
X262385Y215369D01*
X262539Y216535D01*
X262385Y217702D01*
X261935Y218789D01*
X261219Y219722D01*
X260285Y220439D01*
X259198Y220889D01*
X258032Y221042D01*
D02*
G37*
G36*
X154295Y156987D02*
X151295D01*
X150129Y156834D01*
X149042Y156384D01*
X148108Y155667D01*
X147392Y154734D01*
X146942Y153647D01*
X146788Y152480D01*
X146942Y151314D01*
X147392Y150227D01*
X148108Y149293D01*
X149042Y148577D01*
X150129Y148127D01*
X151295Y147973D01*
X154295D01*
X155462Y148127D01*
X156549Y148577D01*
X157482Y149293D01*
X158198Y150227D01*
X158649Y151314D01*
X158802Y152480D01*
X158649Y153647D01*
X158198Y154734D01*
X157482Y155667D01*
X156549Y156384D01*
X155462Y156834D01*
X154295Y156987D01*
D02*
G37*
G36*
X394291Y66972D02*
X388386D01*
X387101Y66803D01*
X385904Y66307D01*
X384876Y65518D01*
X384087Y64490D01*
X383591Y63293D01*
X383422Y62008D01*
Y56102D01*
X383591Y54818D01*
X384087Y53620D01*
X384876Y52592D01*
X385904Y51804D01*
X387101Y51308D01*
X388386Y51139D01*
X394291D01*
X395576Y51308D01*
X396773Y51804D01*
X397801Y52592D01*
X398590Y53620D01*
X399086Y54818D01*
X399255Y56102D01*
Y62008D01*
X399086Y63293D01*
X398590Y64490D01*
X397801Y65518D01*
X396773Y66307D01*
X395576Y66803D01*
X394291Y66972D01*
D02*
G37*
G36*
X359646D02*
X353740D01*
X352455Y66803D01*
X351258Y66307D01*
X350230Y65518D01*
X349441Y64490D01*
X348946Y63293D01*
X348776Y62008D01*
Y56102D01*
X348946Y54818D01*
X349441Y53620D01*
X350230Y52592D01*
X351258Y51804D01*
X352455Y51308D01*
X353740Y51139D01*
X359646D01*
X360930Y51308D01*
X362127Y51804D01*
X363156Y52592D01*
X363944Y53620D01*
X364440Y54818D01*
X364609Y56102D01*
Y62008D01*
X364440Y63293D01*
X363944Y64490D01*
X363156Y65518D01*
X362127Y66307D01*
X360930Y66803D01*
X359646Y66972D01*
D02*
G37*
G36*
X257382Y91565D02*
X254429D01*
X253530Y91447D01*
X252692Y91100D01*
X251972Y90548D01*
X251420Y89828D01*
X251255Y89429D01*
X250714D01*
X250549Y89828D01*
X249996Y90548D01*
X249277Y91100D01*
X248439Y91447D01*
X247539Y91565D01*
X244587D01*
X243687Y91447D01*
X242849Y91100D01*
X242130Y90548D01*
X241578Y89828D01*
X241230Y88990D01*
X241112Y88090D01*
Y85138D01*
X241230Y84238D01*
X241578Y83400D01*
X242130Y82681D01*
X242849Y82129D01*
X243687Y81782D01*
X244587Y81663D01*
X247539D01*
X248439Y81782D01*
X249277Y82129D01*
X249996Y82681D01*
X250549Y83400D01*
X250714Y83799D01*
X251255D01*
X251420Y83400D01*
X251972Y82681D01*
X252692Y82129D01*
X253530Y81782D01*
X254429Y81663D01*
X257382D01*
X258281Y81782D01*
X259119Y82129D01*
X259839Y82681D01*
X260391Y83400D01*
X260738Y84238D01*
X260857Y85138D01*
Y88090D01*
X260738Y88990D01*
X260391Y89828D01*
X259839Y90548D01*
X259119Y91100D01*
X258281Y91447D01*
X257382Y91565D01*
D02*
G37*
G36*
X244094Y103389D02*
X242810Y103220D01*
X241613Y102724D01*
X240585Y101935D01*
X239796Y100907D01*
X239300Y99710D01*
X239131Y98425D01*
X239300Y97141D01*
X239796Y95943D01*
X240585Y94915D01*
X241613Y94126D01*
X242810Y93631D01*
X244094Y93462D01*
X245379Y93631D01*
X246576Y94126D01*
X247604Y94915D01*
X248393Y95943D01*
X248889Y97141D01*
X249058Y98425D01*
X248889Y99710D01*
X248393Y100907D01*
X247604Y101935D01*
X246576Y102724D01*
X245379Y103220D01*
X244094Y103389D01*
D02*
G37*
G36*
X375492Y91565D02*
X372539D01*
X371640Y91447D01*
X370802Y91100D01*
X370082Y90548D01*
X369530Y89828D01*
X369365Y89429D01*
X368824D01*
X368659Y89828D01*
X368107Y90548D01*
X367387Y91100D01*
X366549Y91447D01*
X365650Y91565D01*
X362697D01*
X361798Y91447D01*
X360960Y91100D01*
X360240Y90548D01*
X359688Y89828D01*
X359341Y88990D01*
X359222Y88090D01*
Y85138D01*
X359341Y84238D01*
X359688Y83400D01*
X360240Y82681D01*
X360960Y82129D01*
X361798Y81782D01*
X362697Y81663D01*
X365650D01*
X366549Y81782D01*
X367387Y82129D01*
X368107Y82681D01*
X368659Y83400D01*
X368824Y83799D01*
X369365D01*
X369530Y83400D01*
X370082Y82681D01*
X370802Y82129D01*
X371640Y81782D01*
X372539Y81663D01*
X375492D01*
X376391Y81782D01*
X377229Y82129D01*
X377949Y82681D01*
X378501Y83400D01*
X378848Y84238D01*
X378967Y85138D01*
Y88090D01*
X378848Y88990D01*
X378501Y89828D01*
X377949Y90548D01*
X377229Y91100D01*
X376391Y91447D01*
X375492Y91565D01*
D02*
G37*
G36*
X276181Y66972D02*
X270276D01*
X268991Y66803D01*
X267794Y66307D01*
X266766Y65518D01*
X265977Y64490D01*
X265481Y63293D01*
X265312Y62008D01*
Y56102D01*
X265481Y54818D01*
X265977Y53620D01*
X266766Y52592D01*
X267794Y51804D01*
X268991Y51308D01*
X270276Y51139D01*
X276181D01*
X277466Y51308D01*
X278663Y51804D01*
X279691Y52592D01*
X280480Y53620D01*
X280976Y54818D01*
X281145Y56102D01*
Y62008D01*
X280976Y63293D01*
X280480Y64490D01*
X279691Y65518D01*
X278663Y66307D01*
X277466Y66803D01*
X276181Y66972D01*
D02*
G37*
G36*
X472441Y55167D02*
X469970Y54972D01*
X467559Y54394D01*
X465269Y53445D01*
X463156Y52150D01*
X461271Y50540D01*
X459661Y48655D01*
X458366Y46542D01*
X457417Y44251D01*
X456839Y41841D01*
X456644Y39370D01*
X456839Y36899D01*
X457417Y34489D01*
X458366Y32199D01*
X459661Y30085D01*
X461271Y28200D01*
X463156Y26590D01*
X465269Y25295D01*
X467559Y24347D01*
X469970Y23768D01*
X472441Y23573D01*
X474912Y23768D01*
X477322Y24347D01*
X479612Y25295D01*
X481726Y26590D01*
X483611Y28200D01*
X485221Y30085D01*
X486516Y32199D01*
X487465Y34489D01*
X488043Y36899D01*
X488238Y39370D01*
X488043Y41841D01*
X487465Y44251D01*
X486516Y46542D01*
X485221Y48655D01*
X483611Y50540D01*
X481726Y52150D01*
X479612Y53445D01*
X477322Y54394D01*
X474912Y54972D01*
X472441Y55167D01*
D02*
G37*
G36*
X39370D02*
X36899Y54972D01*
X34489Y54394D01*
X32199Y53445D01*
X30085Y52150D01*
X28200Y50540D01*
X26590Y48655D01*
X25295Y46542D01*
X24347Y44251D01*
X23768Y41841D01*
X23573Y39370D01*
X23768Y36899D01*
X24347Y34489D01*
X25295Y32199D01*
X26590Y30085D01*
X28200Y28200D01*
X30085Y26590D01*
X32199Y25295D01*
X34489Y24347D01*
X36899Y23768D01*
X39370Y23573D01*
X41841Y23768D01*
X44251Y24347D01*
X46542Y25295D01*
X48655Y26590D01*
X50540Y28200D01*
X52150Y30085D01*
X53445Y32199D01*
X54394Y34489D01*
X54972Y36899D01*
X55167Y39370D01*
X54972Y41841D01*
X54394Y44251D01*
X53445Y46542D01*
X52150Y48655D01*
X50540Y50540D01*
X48655Y52150D01*
X46542Y53445D01*
X44251Y54394D01*
X41841Y54972D01*
X39370Y55167D01*
D02*
G37*
G36*
X122047Y66972D02*
X116142D01*
X114857Y66803D01*
X113660Y66307D01*
X112632Y65518D01*
X111843Y64490D01*
X111347Y63293D01*
X111178Y62008D01*
Y56102D01*
X111347Y54818D01*
X111843Y53620D01*
X112632Y52592D01*
X113660Y51804D01*
X114857Y51308D01*
X116142Y51139D01*
X122047D01*
X123332Y51308D01*
X124529Y51804D01*
X125557Y52592D01*
X126346Y53620D01*
X126842Y54818D01*
X127011Y56102D01*
Y62008D01*
X126842Y63293D01*
X126346Y64490D01*
X125557Y65518D01*
X124529Y66307D01*
X123332Y66803D01*
X122047Y66972D01*
D02*
G37*
G36*
X241535D02*
X235630D01*
X234345Y66803D01*
X233148Y66307D01*
X232120Y65518D01*
X231331Y64490D01*
X230835Y63293D01*
X230666Y62008D01*
Y56102D01*
X230835Y54818D01*
X231331Y53620D01*
X232120Y52592D01*
X233148Y51804D01*
X234345Y51308D01*
X235630Y51139D01*
X241535D01*
X242820Y51308D01*
X244017Y51804D01*
X245045Y52592D01*
X245834Y53620D01*
X246330Y54818D01*
X246499Y56102D01*
Y62008D01*
X246330Y63293D01*
X245834Y64490D01*
X245045Y65518D01*
X244017Y66307D01*
X242820Y66803D01*
X241535Y66972D01*
D02*
G37*
G36*
X159449D02*
X153543D01*
X152259Y66803D01*
X151061Y66307D01*
X150033Y65518D01*
X149245Y64490D01*
X148749Y63293D01*
X148580Y62008D01*
Y56102D01*
X148749Y54818D01*
X149245Y53620D01*
X150033Y52592D01*
X151061Y51804D01*
X152259Y51308D01*
X153543Y51139D01*
X159449D01*
X160733Y51308D01*
X161931Y51804D01*
X162959Y52592D01*
X163748Y53620D01*
X164243Y54818D01*
X164413Y56102D01*
Y62008D01*
X164243Y63293D01*
X163748Y64490D01*
X162959Y65518D01*
X161931Y66307D01*
X160733Y66803D01*
X159449Y66972D01*
D02*
G37*
G36*
X154295Y146987D02*
X151295D01*
X150129Y146834D01*
X149042Y146384D01*
X148108Y145667D01*
X147392Y144734D01*
X146942Y143647D01*
X146788Y142480D01*
X146942Y141314D01*
X147392Y140227D01*
X148108Y139293D01*
X149042Y138577D01*
X150129Y138127D01*
X151295Y137973D01*
X154295D01*
X155462Y138127D01*
X156549Y138577D01*
X157482Y139293D01*
X158198Y140227D01*
X158649Y141314D01*
X158802Y142480D01*
X158649Y143647D01*
X158198Y144734D01*
X157482Y145667D01*
X156549Y146384D01*
X155462Y146834D01*
X154295Y146987D01*
D02*
G37*
G36*
X122047Y123074D02*
X120763Y122905D01*
X119565Y122409D01*
X118537Y121620D01*
X117748Y120592D01*
X117253Y119395D01*
X117084Y118110D01*
X117253Y116825D01*
X117748Y115628D01*
X118537Y114600D01*
X119565Y113812D01*
X120763Y113316D01*
X122047Y113146D01*
X123332Y113316D01*
X124529Y113812D01*
X125557Y114600D01*
X126346Y115628D01*
X126842Y116825D01*
X127011Y118110D01*
X126842Y119395D01*
X126346Y120592D01*
X125557Y121620D01*
X124529Y122409D01*
X123332Y122905D01*
X122047Y123074D01*
D02*
G37*
G36*
X292091Y146987D02*
X289090D01*
X287924Y146834D01*
X286837Y146384D01*
X285904Y145667D01*
X285187Y144734D01*
X284737Y143647D01*
X284583Y142480D01*
X284737Y141314D01*
X285187Y140227D01*
X285904Y139293D01*
X286837Y138577D01*
X287924Y138127D01*
X289090Y137973D01*
X292091D01*
X293257Y138127D01*
X294344Y138577D01*
X295278Y139293D01*
X295994Y140227D01*
X296444Y141314D01*
X296598Y142480D01*
X296444Y143647D01*
X295994Y144734D01*
X295278Y145667D01*
X294344Y146384D01*
X293257Y146834D01*
X292091Y146987D01*
D02*
G37*
G36*
X124295Y156987D02*
X121295D01*
X120129Y156834D01*
X119042Y156384D01*
X118108Y155667D01*
X117392Y154734D01*
X116942Y153647D01*
X116788Y152480D01*
X116942Y151314D01*
X117392Y150227D01*
X118108Y149293D01*
X119042Y148577D01*
X120129Y148127D01*
X121295Y147973D01*
X124295D01*
X125462Y148127D01*
X126549Y148577D01*
X127482Y149293D01*
X128199Y150227D01*
X128649Y151314D01*
X128802Y152480D01*
X128649Y153647D01*
X128199Y154734D01*
X127482Y155667D01*
X126549Y156384D01*
X125462Y156834D01*
X124295Y156987D01*
D02*
G37*
G36*
X188976Y143729D02*
X187819Y143615D01*
X186706Y143278D01*
X185680Y142729D01*
X184780Y141991D01*
X184042Y141092D01*
X183494Y140066D01*
X183332Y139532D01*
X182810D01*
X182648Y140066D01*
X182099Y141092D01*
X181361Y141991D01*
X180462Y142729D01*
X179436Y143278D01*
X178323Y143615D01*
X177165Y143729D01*
X176008Y143615D01*
X174894Y143278D01*
X173869Y142729D01*
X172969Y141991D01*
X172231Y141092D01*
X171683Y140066D01*
X171521Y139532D01*
X170999D01*
X170837Y140066D01*
X170288Y141092D01*
X169550Y141991D01*
X168651Y142729D01*
X167625Y143278D01*
X166512Y143615D01*
X165354Y143729D01*
X164197Y143615D01*
X163084Y143278D01*
X162057Y142729D01*
X161158Y141991D01*
X160420Y141092D01*
X159872Y140066D01*
X159553Y139013D01*
X150033Y129494D01*
X149245Y128466D01*
X148749Y127269D01*
X148580Y125984D01*
Y118110D01*
X148749Y116825D01*
X149245Y115628D01*
X150033Y114600D01*
X151061Y113812D01*
X152259Y113316D01*
X153543Y113146D01*
X154828Y113316D01*
X156025Y113812D01*
X157053Y114600D01*
X157842Y115628D01*
X158338Y116825D01*
X158507Y118110D01*
Y123928D01*
X166572Y131993D01*
X167625Y132313D01*
X168651Y132861D01*
X169550Y133599D01*
X170288Y134499D01*
X170837Y135524D01*
X170999Y136058D01*
X171521D01*
X171683Y135524D01*
X172231Y134499D01*
X172969Y133599D01*
X173869Y132861D01*
X174894Y132313D01*
X176008Y131975D01*
X177165Y131861D01*
X178323Y131975D01*
X179436Y132313D01*
X180462Y132861D01*
X181361Y133599D01*
X182099Y134499D01*
X182648Y135524D01*
X182810Y136058D01*
X183332D01*
X183494Y135524D01*
X184042Y134499D01*
X184780Y133599D01*
X185680Y132861D01*
X186706Y132313D01*
X187819Y131975D01*
X188976Y131861D01*
X190134Y131975D01*
X191247Y132313D01*
X192273Y132861D01*
X193172Y133599D01*
X193910Y134499D01*
X194459Y135524D01*
X194796Y136638D01*
X194910Y137795D01*
X194796Y138953D01*
X194459Y140066D01*
X193910Y141092D01*
X193172Y141991D01*
X192273Y142729D01*
X191247Y143278D01*
X190134Y143615D01*
X188976Y143729D01*
D02*
G37*
G36*
X173228Y127011D02*
X171944Y126842D01*
X170747Y126346D01*
X169719Y125557D01*
X168930Y124529D01*
X168434Y123332D01*
X168265Y122047D01*
X168434Y120763D01*
X168930Y119565D01*
X169719Y118537D01*
X169949Y118360D01*
Y117860D01*
X169719Y117683D01*
X168930Y116655D01*
X168434Y115458D01*
X168265Y114173D01*
X168434Y112889D01*
X168930Y111691D01*
X169719Y110663D01*
X170747Y109874D01*
X171944Y109379D01*
X173228Y109210D01*
X174513Y109379D01*
X175710Y109874D01*
X176738Y110663D01*
X177527Y111691D01*
X178023Y112889D01*
X178192Y114173D01*
X178023Y115458D01*
X177527Y116655D01*
X176738Y117683D01*
X176507Y117860D01*
Y118360D01*
X176738Y118537D01*
X177527Y119565D01*
X178023Y120763D01*
X178192Y122047D01*
X178023Y123332D01*
X177527Y124529D01*
X176738Y125557D01*
X175710Y126346D01*
X174513Y126842D01*
X173228Y127011D01*
D02*
G37*
G36*
X362205Y103389D02*
X360920Y103220D01*
X359723Y102724D01*
X358695Y101935D01*
X357906Y100907D01*
X357410Y99710D01*
X357241Y98425D01*
X357410Y97141D01*
X357906Y95943D01*
X358695Y94915D01*
X359723Y94126D01*
X360920Y93631D01*
X362205Y93462D01*
X363489Y93631D01*
X364687Y94126D01*
X365715Y94915D01*
X366503Y95943D01*
X366999Y97141D01*
X367168Y98425D01*
X366999Y99710D01*
X366503Y100907D01*
X365715Y101935D01*
X364687Y102724D01*
X363489Y103220D01*
X362205Y103389D01*
D02*
G37*
G36*
X267717Y103389D02*
X266432Y103220D01*
X265235Y102724D01*
X264207Y101935D01*
X263418Y100907D01*
X262922Y99710D01*
X262753Y98425D01*
X262922Y97141D01*
X263418Y95943D01*
X264207Y94915D01*
X265235Y94126D01*
X266432Y93631D01*
X267717Y93462D01*
X269001Y93631D01*
X270198Y94126D01*
X271226Y94915D01*
X272015Y95943D01*
X272511Y97141D01*
X272680Y98425D01*
X272511Y99710D01*
X272015Y100907D01*
X271226Y101935D01*
X270198Y102724D01*
X269001Y103220D01*
X267717Y103389D01*
D02*
G37*
G36*
X385827Y103389D02*
X384542Y103220D01*
X383345Y102724D01*
X382317Y101935D01*
X381528Y100907D01*
X381032Y99710D01*
X380863Y98425D01*
X381032Y97141D01*
X381528Y95943D01*
X382317Y94915D01*
X383345Y94126D01*
X384542Y93631D01*
X385827Y93462D01*
X387111Y93631D01*
X388309Y94126D01*
X389337Y94915D01*
X390125Y95943D01*
X390621Y97141D01*
X390791Y98425D01*
X390621Y99710D01*
X390125Y100907D01*
X389337Y101935D01*
X388309Y102724D01*
X387111Y103220D01*
X385827Y103389D01*
D02*
G37*
G36*
X102362Y127011D02*
X101077Y126842D01*
X99880Y126346D01*
X98852Y125557D01*
X98063Y124529D01*
X97568Y123332D01*
X97399Y122047D01*
X97568Y120763D01*
X98063Y119565D01*
X98852Y118537D01*
X99083Y118360D01*
Y117860D01*
X98852Y117683D01*
X98063Y116655D01*
X97568Y115458D01*
X97399Y114173D01*
X97568Y112889D01*
X98063Y111691D01*
X98852Y110663D01*
X99880Y109874D01*
X101077Y109379D01*
X102362Y109210D01*
X103647Y109379D01*
X104844Y109874D01*
X105872Y110663D01*
X106661Y111691D01*
X107157Y112889D01*
X107326Y114173D01*
X107157Y115458D01*
X106661Y116655D01*
X105872Y117683D01*
X105641Y117860D01*
Y118360D01*
X105872Y118537D01*
X106661Y119565D01*
X107157Y120763D01*
X107326Y122047D01*
X107157Y123332D01*
X106661Y124529D01*
X105872Y125557D01*
X104844Y126346D01*
X103647Y126842D01*
X102362Y127011D01*
D02*
G37*
G36*
X139272Y103376D02*
X136319D01*
X135420Y103258D01*
X134582Y102911D01*
X133862Y102358D01*
X133310Y101639D01*
X133145Y101240D01*
X132603D01*
X132438Y101639D01*
X131886Y102358D01*
X131166Y102911D01*
X130328Y103258D01*
X129429Y103376D01*
X126476D01*
X125577Y103258D01*
X124739Y102911D01*
X124020Y102358D01*
X123467Y101639D01*
X123120Y100801D01*
X123002Y99902D01*
Y96949D01*
X123120Y96049D01*
X123467Y95211D01*
X124020Y94492D01*
X124739Y93940D01*
X125138Y93774D01*
Y93233D01*
X124739Y93068D01*
X124020Y92516D01*
X123467Y91796D01*
X123120Y90958D01*
X123002Y90059D01*
Y87106D01*
X123120Y86207D01*
X123467Y85369D01*
X124020Y84649D01*
X124739Y84097D01*
X125577Y83750D01*
X126476Y83632D01*
X129429D01*
X130328Y83750D01*
X131166Y84097D01*
X131886Y84649D01*
X132438Y85369D01*
X132603Y85768D01*
X133145D01*
X133310Y85369D01*
X133862Y84649D01*
X134582Y84097D01*
X135420Y83750D01*
X136319Y83632D01*
X139272D01*
X140171Y83750D01*
X141009Y84097D01*
X141729Y84649D01*
X142281Y85369D01*
X142628Y86207D01*
X142746Y87106D01*
Y90059D01*
X142628Y90958D01*
X142281Y91796D01*
X141729Y92516D01*
X141009Y93068D01*
X140610Y93233D01*
Y93774D01*
X141009Y93940D01*
X141729Y94492D01*
X142281Y95211D01*
X142628Y96049D01*
X142746Y96949D01*
Y99902D01*
X142628Y100801D01*
X142281Y101639D01*
X141729Y102358D01*
X141009Y102911D01*
X140171Y103258D01*
X139272Y103376D01*
D02*
G37*
G36*
X338032Y221042D02*
X336865Y220889D01*
X335778Y220439D01*
X334844Y219722D01*
X334128Y218789D01*
X333678Y217702D01*
X333524Y216535D01*
X333678Y215369D01*
X334128Y214282D01*
X334844Y213349D01*
X335778Y212632D01*
X336865Y212182D01*
X338032Y212028D01*
X339198Y212182D01*
X340285Y212632D01*
X341218Y213349D01*
X341935Y214282D01*
X342385Y215369D01*
X342539Y216535D01*
X342385Y217702D01*
X341935Y218789D01*
X341218Y219722D01*
X340285Y220439D01*
X339198Y220889D01*
X338032Y221042D01*
D02*
G37*
G36*
X378031Y271042D02*
X376865Y270889D01*
X375778Y270439D01*
X374845Y269722D01*
X374128Y268789D01*
X373678Y267702D01*
X373524Y266535D01*
X373678Y265369D01*
X374128Y264282D01*
X374845Y263349D01*
X375778Y262632D01*
X376865Y262182D01*
X378031Y262028D01*
X379198Y262182D01*
X380285Y262632D01*
X381219Y263349D01*
X381935Y264282D01*
X382385Y265369D01*
X382539Y266535D01*
X382385Y267702D01*
X381935Y268789D01*
X381219Y269722D01*
X380285Y270439D01*
X379198Y270889D01*
X378031Y271042D01*
D02*
G37*
G36*
X368032D02*
X366865Y270889D01*
X365778Y270439D01*
X364844Y269722D01*
X364128Y268789D01*
X363678Y267702D01*
X363524Y266535D01*
X363678Y265369D01*
X364128Y264282D01*
X364844Y263349D01*
X365778Y262632D01*
X366865Y262182D01*
X368032Y262028D01*
X369198Y262182D01*
X370285Y262632D01*
X371218Y263349D01*
X371935Y264282D01*
X372385Y265369D01*
X372538Y266535D01*
X372385Y267702D01*
X371935Y268789D01*
X371218Y269722D01*
X370285Y270439D01*
X369198Y270889D01*
X368032Y271042D01*
D02*
G37*
G36*
X388032D02*
X386865Y270889D01*
X385778Y270439D01*
X384844Y269722D01*
X384128Y268789D01*
X383678Y267702D01*
X383524Y266535D01*
X383678Y265369D01*
X384128Y264282D01*
X384844Y263349D01*
X385778Y262632D01*
X386865Y262182D01*
X388032Y262028D01*
X389198Y262182D01*
X390285Y262632D01*
X391218Y263349D01*
X391935Y264282D01*
X392385Y265369D01*
X392539Y266535D01*
X392385Y267702D01*
X391935Y268789D01*
X391218Y269722D01*
X390285Y270439D01*
X389198Y270889D01*
X388032Y271042D01*
D02*
G37*
G36*
X149606Y293336D02*
X148449Y293222D01*
X147335Y292884D01*
X146309Y292336D01*
X145410Y291598D01*
X144672Y290698D01*
X144124Y289672D01*
X143786Y288559D01*
X143672Y287402D01*
X143786Y286244D01*
X144124Y285131D01*
X144672Y284105D01*
X145410Y283206D01*
X146309Y282468D01*
X147335Y281919D01*
X148449Y281581D01*
X149606Y281468D01*
X150764Y281581D01*
X151877Y281919D01*
X152903Y282468D01*
X153802Y283206D01*
X154540Y284105D01*
X155089Y285131D01*
X155426Y286244D01*
X155540Y287402D01*
X155426Y288559D01*
X155089Y289672D01*
X154540Y290698D01*
X153802Y291598D01*
X152903Y292336D01*
X151877Y292884D01*
X150764Y293222D01*
X149606Y293336D01*
D02*
G37*
G36*
X133858D02*
X132701Y293222D01*
X131587Y292884D01*
X130561Y292336D01*
X129662Y291598D01*
X128924Y290698D01*
X128376Y289672D01*
X128038Y288559D01*
X127924Y287402D01*
X128038Y286244D01*
X128376Y285131D01*
X128924Y284105D01*
X129662Y283206D01*
X130561Y282468D01*
X131587Y281919D01*
X132701Y281581D01*
X133858Y281468D01*
X135016Y281581D01*
X136129Y281919D01*
X137155Y282468D01*
X138054Y283206D01*
X138792Y284105D01*
X139341Y285131D01*
X139678Y286244D01*
X139792Y287402D01*
X139678Y288559D01*
X139341Y289672D01*
X138792Y290698D01*
X138054Y291598D01*
X137155Y292336D01*
X136129Y292884D01*
X135016Y293222D01*
X133858Y293336D01*
D02*
G37*
G36*
X358032Y271042D02*
X356865Y270889D01*
X355778Y270439D01*
X354844Y269722D01*
X354128Y268789D01*
X353678Y267702D01*
X353524Y266535D01*
X353678Y265369D01*
X354128Y264282D01*
X354844Y263349D01*
X355778Y262632D01*
X356865Y262182D01*
X358032Y262028D01*
X359198Y262182D01*
X360285Y262632D01*
X361219Y263349D01*
X361935Y264282D01*
X362385Y265369D01*
X362539Y266535D01*
X362385Y267702D01*
X361935Y268789D01*
X361219Y269722D01*
X360285Y270439D01*
X359198Y270889D01*
X358032Y271042D01*
D02*
G37*
G36*
X318032D02*
X316865Y270889D01*
X315778Y270439D01*
X314844Y269722D01*
X314128Y268789D01*
X313678Y267702D01*
X313524Y266535D01*
X313678Y265369D01*
X314128Y264282D01*
X314844Y263349D01*
X315778Y262632D01*
X316865Y262182D01*
X318032Y262028D01*
X319198Y262182D01*
X320285Y262632D01*
X321218Y263349D01*
X321935Y264282D01*
X322385Y265369D01*
X322538Y266535D01*
X322385Y267702D01*
X321935Y268789D01*
X321218Y269722D01*
X320285Y270439D01*
X319198Y270889D01*
X318032Y271042D01*
D02*
G37*
G36*
X308032D02*
X306865Y270889D01*
X305778Y270439D01*
X304844Y269722D01*
X304128Y268789D01*
X303678Y267702D01*
X303524Y266535D01*
X303678Y265369D01*
X304128Y264282D01*
X304844Y263349D01*
X305778Y262632D01*
X306865Y262182D01*
X308032Y262028D01*
X309198Y262182D01*
X310285Y262632D01*
X311219Y263349D01*
X311935Y264282D01*
X312385Y265369D01*
X312539Y266535D01*
X312385Y267702D01*
X311935Y268789D01*
X311219Y269722D01*
X310285Y270439D01*
X309198Y270889D01*
X308032Y271042D01*
D02*
G37*
G36*
X328031D02*
X326865Y270889D01*
X325778Y270439D01*
X324845Y269722D01*
X324128Y268789D01*
X323678Y267702D01*
X323524Y266535D01*
X323678Y265369D01*
X324128Y264282D01*
X324845Y263349D01*
X325778Y262632D01*
X326865Y262182D01*
X328031Y262028D01*
X329198Y262182D01*
X330285Y262632D01*
X331219Y263349D01*
X331935Y264282D01*
X332385Y265369D01*
X332539Y266535D01*
X332385Y267702D01*
X331935Y268789D01*
X331219Y269722D01*
X330285Y270439D01*
X329198Y270889D01*
X328031Y271042D01*
D02*
G37*
G36*
X348031D02*
X346865Y270889D01*
X345778Y270439D01*
X344845Y269722D01*
X344128Y268789D01*
X343678Y267702D01*
X343524Y266535D01*
X343678Y265369D01*
X344128Y264282D01*
X344845Y263349D01*
X345778Y262632D01*
X346865Y262182D01*
X348031Y262028D01*
X349198Y262182D01*
X350285Y262632D01*
X351219Y263349D01*
X351935Y264282D01*
X352385Y265369D01*
X352539Y266535D01*
X352385Y267702D01*
X351935Y268789D01*
X351219Y269722D01*
X350285Y270439D01*
X349198Y270889D01*
X348031Y271042D01*
D02*
G37*
G36*
X338032D02*
X336865Y270889D01*
X335778Y270439D01*
X334844Y269722D01*
X334128Y268789D01*
X333678Y267702D01*
X333524Y266535D01*
X333678Y265369D01*
X334128Y264282D01*
X334844Y263349D01*
X335778Y262632D01*
X336865Y262182D01*
X338032Y262028D01*
X339198Y262182D01*
X340285Y262632D01*
X341218Y263349D01*
X341935Y264282D01*
X342385Y265369D01*
X342539Y266535D01*
X342385Y267702D01*
X341935Y268789D01*
X341218Y269722D01*
X340285Y270439D01*
X339198Y270889D01*
X338032Y271042D01*
D02*
G37*
G36*
X256890Y323080D02*
X254418Y322886D01*
X252008Y322307D01*
X249718Y321358D01*
X247605Y320063D01*
X245720Y318453D01*
X244110Y316568D01*
X242815Y314455D01*
X241866Y312165D01*
X241287Y309755D01*
X241093Y307283D01*
X241287Y304812D01*
X241866Y302402D01*
X242815Y300112D01*
X244110Y297998D01*
X245720Y296113D01*
X247605Y294504D01*
X249718Y293209D01*
X252008Y292260D01*
X254418Y291681D01*
X256890Y291487D01*
X259361Y291681D01*
X261771Y292260D01*
X264061Y293209D01*
X266175Y294504D01*
X268060Y296113D01*
X269670Y297998D01*
X270965Y300112D01*
X271913Y302402D01*
X272492Y304812D01*
X272686Y307283D01*
X272492Y309755D01*
X271913Y312165D01*
X270965Y314455D01*
X269670Y316568D01*
X268060Y318453D01*
X266175Y320063D01*
X264061Y321358D01*
X261771Y322307D01*
X259361Y322886D01*
X256890Y323080D01*
D02*
G37*
G36*
X334646Y465792D02*
X333310Y465616D01*
X332065Y465101D01*
X330995Y464280D01*
X330175Y463211D01*
X329659Y461966D01*
X329483Y460630D01*
X329659Y459294D01*
X330175Y458049D01*
X330995Y456980D01*
X332065Y456159D01*
X333310Y455644D01*
X334646Y455468D01*
X335982Y455644D01*
X337227Y456159D01*
X338296Y456980D01*
X339116Y458049D01*
X339632Y459294D01*
X339808Y460630D01*
X339632Y461966D01*
X339116Y463211D01*
X338296Y464280D01*
X337227Y465101D01*
X335982Y465616D01*
X334646Y465792D01*
D02*
G37*
G36*
X433071Y448848D02*
X431901Y448733D01*
X430776Y448391D01*
X429739Y447837D01*
X428830Y447091D01*
X428400Y446567D01*
X427900D01*
X427469Y447091D01*
X426560Y447837D01*
X425523Y448391D01*
X424398Y448733D01*
X423228Y448848D01*
X422058Y448733D01*
X420933Y448391D01*
X419896Y447837D01*
X418988Y447091D01*
X418242Y446182D01*
X417688Y445146D01*
X417551Y444695D01*
X417086Y444584D01*
X417005Y444619D01*
X415967Y445415D01*
X414722Y445931D01*
X413386Y446107D01*
X412050Y445931D01*
X410805Y445415D01*
X409766Y444619D01*
X409686Y444584D01*
X409221Y444695D01*
X409084Y445146D01*
X408530Y446182D01*
X407784Y447091D01*
X406875Y447837D01*
X405838Y448391D01*
X404713Y448733D01*
X403543Y448848D01*
X402373Y448733D01*
X401248Y448391D01*
X400211Y447837D01*
X399303Y447091D01*
X398872Y446567D01*
X398372D01*
X397942Y447091D01*
X397033Y447837D01*
X395996Y448391D01*
X394871Y448733D01*
X393701Y448848D01*
X392531Y448733D01*
X391406Y448391D01*
X390369Y447837D01*
X389460Y447091D01*
X388714Y446182D01*
X388160Y445146D01*
X387819Y444020D01*
X387703Y442850D01*
Y439039D01*
X387819Y437869D01*
X388160Y436744D01*
X388714Y435707D01*
X389302Y434991D01*
X389065Y434491D01*
X380796D01*
X379204Y436084D01*
X379557Y436744D01*
X379898Y437869D01*
X380013Y439039D01*
Y442850D01*
X379898Y444020D01*
X379557Y445146D01*
X379002Y446182D01*
X378257Y447091D01*
X377348Y447837D01*
X376311Y448391D01*
X375186Y448733D01*
X374016Y448848D01*
X372846Y448733D01*
X371721Y448391D01*
X370684Y447837D01*
X369775Y447091D01*
X369344Y446567D01*
X368845D01*
X368414Y447091D01*
X367505Y447837D01*
X366468Y448391D01*
X365343Y448733D01*
X364173Y448848D01*
X363003Y448733D01*
X361878Y448391D01*
X360841Y447837D01*
X359932Y447091D01*
X359187Y446182D01*
X358632Y445146D01*
X358496Y444695D01*
X358031Y444584D01*
X357950Y444619D01*
X356912Y445415D01*
X355667Y445931D01*
X354331Y446107D01*
X352995Y445931D01*
X351750Y445415D01*
X350711Y444619D01*
X350630Y444584D01*
X350166Y444695D01*
X350029Y445146D01*
X349475Y446182D01*
X348729Y447091D01*
X347820Y447837D01*
X346783Y448391D01*
X345658Y448733D01*
X344488Y448848D01*
X343318Y448733D01*
X342193Y448391D01*
X341156Y447837D01*
X340247Y447091D01*
X339817Y446567D01*
X339317D01*
X338886Y447091D01*
X337978Y447837D01*
X336941Y448391D01*
X335816Y448733D01*
X334646Y448848D01*
X333476Y448733D01*
X332351Y448391D01*
X331314Y447837D01*
X330405Y447091D01*
X329659Y446182D01*
X329105Y445146D01*
X328764Y444020D01*
X328648Y442850D01*
Y439039D01*
X328764Y437869D01*
X329105Y436744D01*
X329659Y435707D01*
X330405Y434799D01*
X331314Y434053D01*
X332351Y433498D01*
X333476Y433157D01*
X334646Y433042D01*
X335816Y433157D01*
X336941Y433498D01*
X337978Y434053D01*
X338886Y434799D01*
X339317Y435323D01*
X339817D01*
X340247Y434799D01*
X341156Y434053D01*
X342193Y433498D01*
X343318Y433157D01*
X344488Y433042D01*
X345658Y433157D01*
X346783Y433498D01*
X347820Y434053D01*
X348729Y434799D01*
X349475Y435707D01*
X350029Y436744D01*
X350166Y437195D01*
X350630Y437306D01*
X350711Y437271D01*
X351750Y436474D01*
X352995Y435958D01*
X354331Y435783D01*
X355667Y435958D01*
X356912Y436474D01*
X357950Y437271D01*
X358031Y437306D01*
X358496Y437195D01*
X358632Y436744D01*
X359187Y435707D01*
X359932Y434799D01*
X360841Y434053D01*
X361878Y433498D01*
X363003Y433157D01*
X364173Y433042D01*
X365343Y433157D01*
X366468Y433498D01*
X367505Y434053D01*
X368414Y434799D01*
X368581Y435002D01*
X369052Y434834D01*
Y434252D01*
X369221Y432967D01*
X369717Y431770D01*
X370506Y430742D01*
X375230Y426018D01*
X376258Y425229D01*
X377455Y424733D01*
X378740Y424564D01*
X428740D01*
X430025Y424733D01*
X431222Y425229D01*
X432250Y426018D01*
X436581Y430348D01*
X437370Y431376D01*
X437865Y432574D01*
X438035Y433858D01*
Y435679D01*
X438058Y435707D01*
X438612Y436744D01*
X438953Y437869D01*
X439068Y439039D01*
Y442850D01*
X438953Y444020D01*
X438612Y445146D01*
X438058Y446182D01*
X437312Y447091D01*
X436403Y447837D01*
X435366Y448391D01*
X434241Y448733D01*
X433071Y448848D01*
D02*
G37*
G36*
X374016Y465792D02*
X372680Y465616D01*
X371435Y465101D01*
X370366Y464280D01*
X369545Y463211D01*
X369029Y461966D01*
X368853Y460630D01*
X369029Y459294D01*
X369545Y458049D01*
X370366Y456980D01*
X371435Y456159D01*
X372680Y455644D01*
X374016Y455468D01*
X375352Y455644D01*
X376597Y456159D01*
X377666Y456980D01*
X378486Y458049D01*
X379002Y459294D01*
X379178Y460630D01*
X379002Y461966D01*
X378486Y463211D01*
X377666Y464280D01*
X376597Y465101D01*
X375352Y465616D01*
X374016Y465792D01*
D02*
G37*
G36*
X433071D02*
X431735Y465616D01*
X430490Y465101D01*
X429421Y464280D01*
X428600Y463211D01*
X428085Y461966D01*
X427909Y460630D01*
X428085Y459294D01*
X428600Y458049D01*
X429421Y456980D01*
X430490Y456159D01*
X431735Y455644D01*
X433071Y455468D01*
X434407Y455644D01*
X435652Y456159D01*
X436721Y456980D01*
X437541Y458049D01*
X438057Y459294D01*
X438233Y460630D01*
X438057Y461966D01*
X437541Y463211D01*
X436721Y464280D01*
X435652Y465101D01*
X434407Y465616D01*
X433071Y465792D01*
D02*
G37*
G36*
X393701D02*
X392365Y465616D01*
X391120Y465101D01*
X390051Y464280D01*
X389230Y463211D01*
X388714Y461966D01*
X388539Y460630D01*
X388714Y459294D01*
X389230Y458049D01*
X390051Y456980D01*
X391120Y456159D01*
X392365Y455644D01*
X393701Y455468D01*
X395037Y455644D01*
X396282Y456159D01*
X397351Y456980D01*
X398171Y458049D01*
X398687Y459294D01*
X398863Y460630D01*
X398687Y461966D01*
X398171Y463211D01*
X397351Y464280D01*
X396282Y465101D01*
X395037Y465616D01*
X393701Y465792D01*
D02*
G37*
G36*
X472441Y448868D02*
X469970Y448673D01*
X467559Y448094D01*
X465269Y447146D01*
X463156Y445851D01*
X461271Y444241D01*
X459661Y442356D01*
X458366Y440242D01*
X457417Y437952D01*
X456839Y435542D01*
X456644Y433071D01*
X456839Y430600D01*
X457417Y428189D01*
X458366Y425899D01*
X459661Y423786D01*
X461271Y421901D01*
X463156Y420291D01*
X465269Y418996D01*
X467559Y418047D01*
X469970Y417469D01*
X472441Y417274D01*
X474912Y417469D01*
X477322Y418047D01*
X479612Y418996D01*
X481726Y420291D01*
X483611Y421901D01*
X485221Y423786D01*
X486516Y425899D01*
X487465Y428189D01*
X488043Y430600D01*
X488238Y433071D01*
X488043Y435542D01*
X487465Y437952D01*
X486516Y440242D01*
X485221Y442356D01*
X483611Y444241D01*
X481726Y445851D01*
X479612Y447146D01*
X477322Y448094D01*
X474912Y448673D01*
X472441Y448868D01*
D02*
G37*
G36*
X139921Y313842D02*
X138755Y313688D01*
X137668Y313238D01*
X136734Y312522D01*
X136018Y311588D01*
X135568Y310501D01*
X135414Y309335D01*
Y306335D01*
X135568Y305168D01*
X136018Y304081D01*
X136734Y303148D01*
X137668Y302431D01*
X138755Y301981D01*
X139921Y301828D01*
X141088Y301981D01*
X142175Y302431D01*
X143108Y303148D01*
X143825Y304081D01*
X144275Y305168D01*
X144428Y306335D01*
Y309335D01*
X144275Y310501D01*
X143825Y311588D01*
X143108Y312522D01*
X142175Y313238D01*
X141088Y313688D01*
X139921Y313842D01*
D02*
G37*
G36*
X491142Y323080D02*
X488671Y322886D01*
X486260Y322307D01*
X483970Y321358D01*
X481857Y320063D01*
X479972Y318453D01*
X478362Y316568D01*
X477067Y314455D01*
X476118Y312165D01*
X475540Y309755D01*
X475345Y307283D01*
X475540Y304812D01*
X476118Y302402D01*
X477067Y300112D01*
X478362Y297998D01*
X479972Y296113D01*
X481857Y294504D01*
X483970Y293209D01*
X486260Y292260D01*
X488671Y291681D01*
X491142Y291487D01*
X493613Y291681D01*
X496023Y292260D01*
X498313Y293209D01*
X500427Y294504D01*
X502312Y296113D01*
X503922Y297998D01*
X505217Y300112D01*
X506165Y302402D01*
X506744Y304812D01*
X506939Y307283D01*
X506744Y309755D01*
X506165Y312165D01*
X505217Y314455D01*
X503922Y316568D01*
X502312Y318453D01*
X500427Y320063D01*
X498313Y321358D01*
X496023Y322307D01*
X493613Y322886D01*
X491142Y323080D01*
D02*
G37*
G36*
X159291Y313842D02*
X158125Y313688D01*
X157038Y313238D01*
X156104Y312522D01*
X155388Y311588D01*
X154938Y310501D01*
X154784Y309335D01*
Y306335D01*
X154938Y305168D01*
X155388Y304081D01*
X156104Y303148D01*
X157038Y302431D01*
X158125Y301981D01*
X159291Y301828D01*
X160458Y301981D01*
X161545Y302431D01*
X162478Y303148D01*
X163195Y304081D01*
X163645Y305168D01*
X163798Y306335D01*
Y309335D01*
X163645Y310501D01*
X163195Y311588D01*
X162478Y312522D01*
X161545Y313238D01*
X160458Y313688D01*
X159291Y313842D01*
D02*
G37*
G36*
X491142Y415600D02*
X488671Y415405D01*
X486260Y414827D01*
X483970Y413878D01*
X481857Y412583D01*
X479972Y410973D01*
X478362Y409088D01*
X477067Y406975D01*
X476118Y404685D01*
X475539Y402274D01*
X475345Y399803D01*
X475539Y397332D01*
X476118Y394922D01*
X477067Y392632D01*
X478362Y390518D01*
X479972Y388633D01*
X481857Y387023D01*
X483970Y385728D01*
X486260Y384780D01*
X488671Y384201D01*
X491142Y384006D01*
X493613Y384201D01*
X496023Y384780D01*
X498313Y385728D01*
X500427Y387023D01*
X502312Y388633D01*
X503922Y390518D01*
X505217Y392632D01*
X506165Y394922D01*
X506744Y397332D01*
X506939Y399803D01*
X506744Y402274D01*
X506165Y404685D01*
X505217Y406975D01*
X503922Y409088D01*
X502312Y410973D01*
X500427Y412583D01*
X498313Y413878D01*
X496023Y414827D01*
X493613Y415405D01*
X491142Y415600D01*
D02*
G37*
G36*
X179291Y313842D02*
X178125Y313688D01*
X177038Y313238D01*
X176104Y312522D01*
X175388Y311588D01*
X174938Y310501D01*
X174784Y309335D01*
Y306335D01*
X174938Y305168D01*
X175388Y304081D01*
X176104Y303148D01*
X177038Y302431D01*
X178125Y301981D01*
X179291Y301828D01*
X180458Y301981D01*
X181545Y302431D01*
X182478Y303148D01*
X183195Y304081D01*
X183645Y305168D01*
X183798Y306335D01*
Y309335D01*
X183645Y310501D01*
X183195Y311588D01*
X182478Y312522D01*
X181545Y313238D01*
X180458Y313688D01*
X179291Y313842D01*
D02*
G37*
G36*
X106299Y230344D02*
X105141Y230229D01*
X104028Y229892D01*
X103002Y229343D01*
X102103Y228606D01*
X101365Y227706D01*
X100817Y226680D01*
X100479Y225567D01*
X100365Y224409D01*
X100479Y223252D01*
X100817Y222139D01*
X101365Y221113D01*
X102103Y220213D01*
X103002Y219475D01*
X104028Y218927D01*
X105141Y218589D01*
X106299Y218475D01*
X107457Y218589D01*
X108570Y218927D01*
X109596Y219475D01*
X110495Y220213D01*
X111233Y221113D01*
X111782Y222139D01*
X112119Y223252D01*
X112233Y224409D01*
X112119Y225567D01*
X111782Y226680D01*
X111233Y227706D01*
X110495Y228606D01*
X109596Y229343D01*
X108570Y229892D01*
X107457Y230229D01*
X106299Y230344D01*
D02*
G37*
G36*
X66299D02*
X65141Y230229D01*
X64028Y229892D01*
X63002Y229343D01*
X62103Y228606D01*
X61365Y227706D01*
X60817Y226680D01*
X60479Y225567D01*
X60365Y224409D01*
X60479Y223252D01*
X60817Y222139D01*
X61365Y221113D01*
X62103Y220213D01*
X63002Y219475D01*
X64028Y218927D01*
X65141Y218589D01*
X66299Y218475D01*
X67457Y218589D01*
X68570Y218927D01*
X69596Y219475D01*
X70495Y220213D01*
X71233Y221113D01*
X71782Y222139D01*
X72119Y223252D01*
X72233Y224409D01*
X72119Y225567D01*
X71782Y226680D01*
X71233Y227706D01*
X70495Y228606D01*
X69596Y229343D01*
X68570Y229892D01*
X67457Y230229D01*
X66299Y230344D01*
D02*
G37*
G36*
X47244Y242976D02*
X46078Y242822D01*
X44991Y242372D01*
X44057Y241655D01*
X43341Y240722D01*
X42891Y239635D01*
X42737Y238469D01*
Y235469D01*
X42891Y234302D01*
X43341Y233215D01*
X44057Y232281D01*
X44991Y231565D01*
X46078Y231115D01*
X47244Y230961D01*
X48411Y231115D01*
X49498Y231565D01*
X50431Y232281D01*
X51147Y233215D01*
X51598Y234302D01*
X51751Y235469D01*
Y238469D01*
X51598Y239635D01*
X51147Y240722D01*
X50431Y241655D01*
X49498Y242372D01*
X48411Y242822D01*
X47244Y242976D01*
D02*
G37*
G36*
X86614D02*
X85448Y242822D01*
X84361Y242372D01*
X83427Y241655D01*
X82711Y240722D01*
X82261Y239635D01*
X82107Y238469D01*
Y235469D01*
X82261Y234302D01*
X82711Y233215D01*
X83427Y232281D01*
X84361Y231565D01*
X85448Y231115D01*
X86614Y230961D01*
X87781Y231115D01*
X88868Y231565D01*
X89801Y232281D01*
X90517Y233215D01*
X90968Y234302D01*
X91121Y235469D01*
Y238469D01*
X90968Y239635D01*
X90517Y240722D01*
X89801Y241655D01*
X88868Y242372D01*
X87781Y242822D01*
X86614Y242976D01*
D02*
G37*
G36*
X57244D02*
X56078Y242822D01*
X54991Y242372D01*
X54057Y241655D01*
X53341Y240722D01*
X52891Y239635D01*
X52737Y238469D01*
Y235469D01*
X52891Y234302D01*
X53341Y233215D01*
X54057Y232281D01*
X54991Y231565D01*
X56078Y231115D01*
X57244Y230961D01*
X58411Y231115D01*
X59498Y231565D01*
X60431Y232281D01*
X61147Y233215D01*
X61598Y234302D01*
X61751Y235469D01*
Y238469D01*
X61598Y239635D01*
X61147Y240722D01*
X60431Y241655D01*
X59498Y242372D01*
X58411Y242822D01*
X57244Y242976D01*
D02*
G37*
G36*
X368032Y221499D02*
X366747Y221330D01*
X365550Y220834D01*
X364522Y220045D01*
X363733Y219017D01*
X363288Y217944D01*
X363287Y217944D01*
X362776D01*
X362775Y217944D01*
X362330Y219017D01*
X361541Y220045D01*
X360513Y220834D01*
X359316Y221330D01*
X358032Y221499D01*
X356747Y221330D01*
X355550Y220834D01*
X354522Y220045D01*
X353733Y219017D01*
X353237Y217820D01*
X353068Y216535D01*
Y182409D01*
X353020Y182047D01*
X353191Y180750D01*
X353692Y179542D01*
X354488Y178504D01*
X355526Y177707D01*
X356734Y177207D01*
X358032Y177036D01*
X359329Y177207D01*
X360537Y177707D01*
X361575Y178504D01*
X362371Y179542D01*
X362745Y180442D01*
X363286D01*
X363691Y179463D01*
X364488Y178425D01*
X365526Y177629D01*
X366735Y177128D01*
X368032Y176957D01*
X369328Y177128D01*
X370537Y177629D01*
X371575Y178425D01*
X372372Y179463D01*
X372872Y180672D01*
X373043Y181968D01*
X372995Y182330D01*
Y216535D01*
X372826Y217820D01*
X372330Y219017D01*
X371541Y220045D01*
X370513Y220834D01*
X369316Y221330D01*
X368032Y221499D01*
D02*
G37*
G36*
X378031Y221042D02*
X376865Y220889D01*
X375778Y220439D01*
X374845Y219722D01*
X374128Y218789D01*
X373678Y217702D01*
X373524Y216535D01*
X373678Y215369D01*
X374128Y214282D01*
X374845Y213349D01*
X375778Y212632D01*
X376865Y212182D01*
X378031Y212028D01*
X379198Y212182D01*
X380285Y212632D01*
X381219Y213349D01*
X381935Y214282D01*
X382385Y215369D01*
X382539Y216535D01*
X382385Y217702D01*
X381935Y218789D01*
X381219Y219722D01*
X380285Y220439D01*
X379198Y220889D01*
X378031Y221042D01*
D02*
G37*
G36*
X348031D02*
X346865Y220889D01*
X345778Y220439D01*
X344845Y219722D01*
X344128Y218789D01*
X343678Y217702D01*
X343524Y216535D01*
X343678Y215369D01*
X344128Y214282D01*
X344845Y213349D01*
X345778Y212632D01*
X346865Y212182D01*
X348031Y212028D01*
X349198Y212182D01*
X350285Y212632D01*
X351219Y213349D01*
X351935Y214282D01*
X352385Y215369D01*
X352539Y216535D01*
X352385Y217702D01*
X351935Y218789D01*
X351219Y219722D01*
X350285Y220439D01*
X349198Y220889D01*
X348031Y221042D01*
D02*
G37*
G36*
X388032D02*
X386865Y220889D01*
X385778Y220439D01*
X384844Y219722D01*
X384128Y218789D01*
X383678Y217702D01*
X383524Y216535D01*
X383678Y215369D01*
X384128Y214282D01*
X384844Y213349D01*
X385778Y212632D01*
X386865Y212182D01*
X388032Y212028D01*
X389198Y212182D01*
X390285Y212632D01*
X391218Y213349D01*
X391935Y214282D01*
X392385Y215369D01*
X392539Y216535D01*
X392385Y217702D01*
X391935Y218789D01*
X391218Y219722D01*
X390285Y220439D01*
X389198Y220889D01*
X388032Y221042D01*
D02*
G37*
G36*
X47244Y225436D02*
X45959Y225267D01*
X44762Y224771D01*
X43734Y223982D01*
X42945Y222954D01*
X42450Y221757D01*
X42280Y220472D01*
X42450Y219188D01*
X42945Y217991D01*
X43734Y216963D01*
X44762Y216174D01*
X45959Y215678D01*
X47244Y215509D01*
X48529Y215678D01*
X49726Y216174D01*
X50754Y216963D01*
X51543Y217991D01*
X52039Y219188D01*
X52208Y220472D01*
X52039Y221757D01*
X51543Y222954D01*
X50754Y223982D01*
X49726Y224771D01*
X48529Y225267D01*
X47244Y225436D01*
D02*
G37*
G36*
X408032Y221042D02*
X406865Y220889D01*
X405778Y220439D01*
X404845Y219722D01*
X404128Y218789D01*
X403678Y217702D01*
X403524Y216535D01*
X403678Y215369D01*
X404128Y214282D01*
X404845Y213349D01*
X405778Y212632D01*
X406865Y212182D01*
X408032Y212028D01*
X409198Y212182D01*
X410285Y212632D01*
X411219Y213349D01*
X411935Y214282D01*
X412385Y215369D01*
X412539Y216535D01*
X412385Y217702D01*
X411935Y218789D01*
X411219Y219722D01*
X410285Y220439D01*
X409198Y220889D01*
X408032Y221042D01*
D02*
G37*
G36*
X96614Y242976D02*
X95448Y242822D01*
X94361Y242372D01*
X93427Y241655D01*
X92711Y240722D01*
X92261Y239635D01*
X92107Y238469D01*
Y235469D01*
X92261Y234302D01*
X92711Y233215D01*
X93427Y232281D01*
X94361Y231565D01*
X95448Y231115D01*
X96614Y230961D01*
X97781Y231115D01*
X98868Y231565D01*
X99801Y232281D01*
X100517Y233215D01*
X100968Y234302D01*
X101121Y235469D01*
Y238469D01*
X100968Y239635D01*
X100517Y240722D01*
X99801Y241655D01*
X98868Y242372D01*
X97781Y242822D01*
X96614Y242976D01*
D02*
G37*
G36*
X268032Y271042D02*
X266865Y270889D01*
X265778Y270439D01*
X264844Y269722D01*
X264128Y268789D01*
X263678Y267702D01*
X263524Y266535D01*
X263678Y265369D01*
X264128Y264282D01*
X264844Y263349D01*
X265778Y262632D01*
X266865Y262182D01*
X268032Y262028D01*
X269198Y262182D01*
X270285Y262632D01*
X271218Y263349D01*
X271935Y264282D01*
X272385Y265369D01*
X272539Y266535D01*
X272385Y267702D01*
X271935Y268789D01*
X271218Y269722D01*
X270285Y270439D01*
X269198Y270889D01*
X268032Y271042D01*
D02*
G37*
G36*
X258032D02*
X256865Y270889D01*
X255778Y270439D01*
X254844Y269722D01*
X254128Y268789D01*
X253678Y267702D01*
X253524Y266535D01*
X253678Y265369D01*
X254128Y264282D01*
X254844Y263349D01*
X255778Y262632D01*
X256865Y262182D01*
X258032Y262028D01*
X259198Y262182D01*
X260285Y262632D01*
X261219Y263349D01*
X261935Y264282D01*
X262385Y265369D01*
X262539Y266535D01*
X262385Y267702D01*
X261935Y268789D01*
X261219Y269722D01*
X260285Y270439D01*
X259198Y270889D01*
X258032Y271042D01*
D02*
G37*
G36*
X278031D02*
X276865Y270889D01*
X275778Y270439D01*
X274845Y269722D01*
X274128Y268789D01*
X273678Y267702D01*
X273524Y266535D01*
X273678Y265369D01*
X274128Y264282D01*
X274845Y263349D01*
X275778Y262632D01*
X276865Y262182D01*
X278031Y262028D01*
X279198Y262182D01*
X280285Y262632D01*
X281219Y263349D01*
X281935Y264282D01*
X282385Y265369D01*
X282539Y266535D01*
X282385Y267702D01*
X281935Y268789D01*
X281219Y269722D01*
X280285Y270439D01*
X279198Y270889D01*
X278031Y271042D01*
D02*
G37*
G36*
X298031D02*
X296865Y270889D01*
X295778Y270439D01*
X294845Y269722D01*
X294128Y268789D01*
X293678Y267702D01*
X293524Y266535D01*
X293678Y265369D01*
X294128Y264282D01*
X294845Y263349D01*
X295778Y262632D01*
X296865Y262182D01*
X298031Y262028D01*
X299198Y262182D01*
X300285Y262632D01*
X301219Y263349D01*
X301935Y264282D01*
X302385Y265369D01*
X302539Y266535D01*
X302385Y267702D01*
X301935Y268789D01*
X301219Y269722D01*
X300285Y270439D01*
X299198Y270889D01*
X298031Y271042D01*
D02*
G37*
G36*
X288032D02*
X286865Y270889D01*
X285778Y270439D01*
X284844Y269722D01*
X284128Y268789D01*
X283678Y267702D01*
X283524Y266535D01*
X283678Y265369D01*
X284128Y264282D01*
X284844Y263349D01*
X285778Y262632D01*
X286865Y262182D01*
X288032Y262028D01*
X289198Y262182D01*
X290285Y262632D01*
X291218Y263349D01*
X291935Y264282D01*
X292385Y265369D01*
X292539Y266535D01*
X292385Y267702D01*
X291935Y268789D01*
X291218Y269722D01*
X290285Y270439D01*
X289198Y270889D01*
X288032Y271042D01*
D02*
G37*
G36*
X248031D02*
X246865Y270889D01*
X245778Y270439D01*
X244845Y269722D01*
X244128Y268789D01*
X243678Y267702D01*
X243524Y266535D01*
X243678Y265369D01*
X244128Y264282D01*
X244845Y263349D01*
X245778Y262632D01*
X246865Y262182D01*
X248031Y262028D01*
X249198Y262182D01*
X250285Y262632D01*
X251219Y263349D01*
X251935Y264282D01*
X252385Y265369D01*
X252539Y266535D01*
X252385Y267702D01*
X251935Y268789D01*
X251219Y269722D01*
X250285Y270439D01*
X249198Y270889D01*
X248031Y271042D01*
D02*
G37*
G36*
X133858Y253336D02*
X132701Y253222D01*
X131587Y252884D01*
X130561Y252336D01*
X129662Y251598D01*
X128924Y250698D01*
X128376Y249672D01*
X128038Y248559D01*
X127924Y247402D01*
X128038Y246244D01*
X128376Y245131D01*
X128924Y244105D01*
X129662Y243205D01*
X130561Y242468D01*
X131587Y241919D01*
X132701Y241582D01*
X133858Y241467D01*
X135016Y241582D01*
X136129Y241919D01*
X137155Y242468D01*
X138054Y243205D01*
X138792Y244105D01*
X139341Y245131D01*
X139678Y246244D01*
X139792Y247402D01*
X139678Y248559D01*
X139341Y249672D01*
X138792Y250698D01*
X138054Y251598D01*
X137155Y252336D01*
X136129Y252884D01*
X135016Y253222D01*
X133858Y253336D01*
D02*
G37*
G36*
X149606D02*
X148449Y253222D01*
X147335Y252884D01*
X146309Y252336D01*
X145410Y251598D01*
X144672Y250698D01*
X144124Y249672D01*
X143786Y248559D01*
X143672Y247402D01*
X143786Y246244D01*
X144124Y245131D01*
X144672Y244105D01*
X145410Y243205D01*
X146309Y242468D01*
X147335Y241919D01*
X148449Y241582D01*
X149606Y241467D01*
X150764Y241582D01*
X151877Y241919D01*
X152903Y242468D01*
X153802Y243205D01*
X154540Y244105D01*
X155089Y245131D01*
X155426Y246244D01*
X155540Y247402D01*
X155426Y248559D01*
X155089Y249672D01*
X154540Y250698D01*
X153802Y251598D01*
X152903Y252336D01*
X151877Y252884D01*
X150764Y253222D01*
X149606Y253336D01*
D02*
G37*
G36*
X408032Y271042D02*
X406865Y270889D01*
X405778Y270439D01*
X404845Y269722D01*
X404128Y268789D01*
X403678Y267702D01*
X403524Y266535D01*
X403678Y265369D01*
X404128Y264282D01*
X404845Y263349D01*
X405778Y262632D01*
X406865Y262182D01*
X408032Y262028D01*
X409198Y262182D01*
X410285Y262632D01*
X411219Y263349D01*
X411935Y264282D01*
X412385Y265369D01*
X412539Y266535D01*
X412385Y267702D01*
X411935Y268789D01*
X411219Y269722D01*
X410285Y270439D01*
X409198Y270889D01*
X408032Y271042D01*
D02*
G37*
G36*
X433071Y267759D02*
X431786Y267590D01*
X430589Y267094D01*
X429561Y266305D01*
X428772Y265277D01*
X428276Y264080D01*
X428107Y262795D01*
X428276Y261511D01*
X428772Y260313D01*
X429561Y259285D01*
X430589Y258497D01*
X431786Y258001D01*
X433071Y257832D01*
X434356Y258001D01*
X435553Y258497D01*
X436581Y259285D01*
X437370Y260313D01*
X437865Y261511D01*
X438035Y262795D01*
X437865Y264080D01*
X437370Y265277D01*
X436581Y266305D01*
X435553Y267094D01*
X434356Y267590D01*
X433071Y267759D01*
D02*
G37*
%LPD*%
G36*
X161573Y182332D02*
X161158Y181991D01*
X160420Y181092D01*
X159872Y180066D01*
X159534Y178953D01*
X159420Y177795D01*
X159534Y176638D01*
X159872Y175524D01*
X160420Y174498D01*
X161158Y173599D01*
X162057Y172861D01*
X163084Y172313D01*
X164197Y171975D01*
X165354Y171861D01*
X166512Y171975D01*
X167625Y172313D01*
X168651Y172861D01*
X169550Y173599D01*
X170288Y174498D01*
X170837Y175524D01*
X170999Y176058D01*
X171521D01*
X171683Y175524D01*
X172202Y174554D01*
Y174103D01*
X165542Y167444D01*
X155251D01*
X155032Y167944D01*
X155163Y168087D01*
X155462Y168127D01*
X156549Y168577D01*
X157482Y169293D01*
X158198Y170227D01*
X158649Y171314D01*
X158802Y172480D01*
X158649Y173647D01*
X158198Y174734D01*
X157759Y175307D01*
Y181850D01*
X157679Y182456D01*
X158009Y182832D01*
X161394D01*
X161573Y182332D01*
D02*
G37*
D10*
X19685Y354331D02*
X47244Y381890D01*
X96614Y261968D02*
Y266968D01*
X19685Y267717D02*
Y354331D01*
X47244Y259842D02*
Y266968D01*
X19685Y267717D02*
X29489Y257913D01*
X45314D01*
X47244Y259842D01*
X49174Y257913D01*
X92558D01*
X96614Y261968D01*
D11*
X130866Y425197D02*
X150866D01*
X70866D02*
Y440945D01*
X78740Y448819D01*
X122047D01*
X130866Y440000D01*
Y425197D02*
Y440000D01*
X35433Y425197D02*
X70866D01*
X23622Y413386D02*
X35433Y425197D01*
X23622Y389764D02*
Y413386D01*
Y389764D02*
X31496Y381890D01*
X47244D01*
X98425Y397638D02*
X110866Y410079D01*
Y425197D01*
X170866Y384252D02*
Y425197D01*
D12*
Y384252D02*
X173228Y381890D01*
X181102Y381890D01*
X98425D02*
Y397638D01*
X152795Y172480D02*
Y181850D01*
X141732Y192913D02*
X147244Y187402D01*
X152795Y181850D01*
X255906Y177165D02*
X260591Y172480D01*
X98425Y137795D02*
Y144882D01*
X116024Y162480D02*
X122795D01*
X98425Y144882D02*
X116024Y162480D01*
X110236Y168268D02*
Y177795D01*
Y168268D02*
X116024Y162480D01*
X153543Y125984D02*
X165354Y137795D01*
X153543Y118110D02*
Y125984D01*
X374016Y434252D02*
Y440945D01*
X433071Y433858D02*
Y440945D01*
X374016Y434252D02*
X378740Y429528D01*
X428740D01*
X433071Y433858D01*
X358032Y182047D02*
Y216535D01*
X368032Y181968D02*
Y216535D01*
X122795Y172480D02*
Y208622D01*
X147244Y187402D02*
X148031Y188189D01*
X188976Y177795D02*
X189606Y177165D01*
X255906D01*
X148031Y188189D02*
X148425Y187795D01*
X238976D01*
X152795Y162480D02*
X167598D01*
X177165Y172047D01*
Y177795D01*
Y172047D02*
X181890Y167323D01*
X222835D01*
X210630Y198031D02*
Y256299D01*
X200787Y198425D02*
Y256693D01*
D13*
X165354Y177795D02*
D03*
Y137795D02*
D03*
X177165D02*
D03*
Y177795D02*
D03*
X110236D02*
D03*
Y137795D02*
D03*
X188976Y177795D02*
D03*
Y137795D02*
D03*
X98425D02*
D03*
Y177795D02*
D03*
X86614Y137795D02*
D03*
Y177795D02*
D03*
X149606Y357638D02*
D03*
Y397638D02*
D03*
X149606Y247402D02*
D03*
Y287402D02*
D03*
X39370Y284646D02*
D03*
Y334646D02*
D03*
X62992Y334646D02*
D03*
Y284646D02*
D03*
X86614D02*
D03*
X86614Y334646D02*
D03*
X66299Y224409D02*
D03*
X106299D02*
D03*
X66929Y357638D02*
D03*
Y397638D02*
D03*
X133858Y247402D02*
D03*
Y287402D02*
D03*
D14*
X153543Y118110D02*
D03*
X145669D02*
D03*
X173228Y122047D02*
D03*
X173228Y114173D02*
D03*
X122047Y118110D02*
D03*
X129921D02*
D03*
X220472Y153543D02*
D03*
Y145669D02*
D03*
X102362Y122047D02*
D03*
Y114173D02*
D03*
X141732Y192913D02*
D03*
X133858D02*
D03*
X279528Y192913D02*
D03*
X271654D02*
D03*
X244094Y98425D02*
D03*
Y106299D02*
D03*
X267717Y98425D02*
D03*
Y106299D02*
D03*
X362205Y98425D02*
D03*
Y106299D02*
D03*
X385827Y98425D02*
D03*
Y106299D02*
D03*
X414370Y188976D02*
D03*
X404528D02*
D03*
X433071Y262795D02*
D03*
Y272638D02*
D03*
X47244Y220472D02*
D03*
X39370D02*
D03*
D15*
X393701Y460630D02*
D03*
X433071D02*
D03*
X413386Y440945D02*
D03*
X334646Y460630D02*
D03*
X374016D02*
D03*
X354331Y440945D02*
D03*
D16*
X413386Y460630D02*
D03*
X354331D02*
D03*
D17*
X423228Y440945D02*
D03*
X433071D02*
D03*
X403543D02*
D03*
X393701D02*
D03*
X364173D02*
D03*
X374016D02*
D03*
X344488D02*
D03*
X334646D02*
D03*
D18*
X119095Y59055D02*
D03*
X156496D02*
D03*
X273228D02*
D03*
X238583D02*
D03*
X391339D02*
D03*
X356693D02*
D03*
D19*
X137795Y88583D02*
D03*
X127953D02*
D03*
X147638D02*
D03*
Y98425D02*
D03*
X127953D02*
D03*
X137795D02*
D03*
X265748Y86614D02*
D03*
X255906D02*
D03*
X246063D02*
D03*
X383858D02*
D03*
X374016D02*
D03*
X364173D02*
D03*
D20*
X244094Y165669D02*
D03*
Y155669D02*
D03*
Y145669D02*
D03*
X152795Y162480D02*
D03*
Y172480D02*
D03*
Y142480D02*
D03*
Y152480D02*
D03*
X122795Y142480D02*
D03*
X122795Y152480D02*
D03*
Y162480D02*
D03*
X122795Y172480D02*
D03*
X290591Y162480D02*
D03*
Y172480D02*
D03*
Y142480D02*
D03*
Y152480D02*
D03*
X260591Y142480D02*
D03*
Y152480D02*
D03*
Y162480D02*
D03*
Y172480D02*
D03*
D21*
X388032Y266535D02*
D03*
X378031D02*
D03*
X348031D02*
D03*
X358032D02*
D03*
X308032D02*
D03*
X318032D02*
D03*
X298031D02*
D03*
X258032D02*
D03*
X248031D02*
D03*
X268032D02*
D03*
X288032D02*
D03*
X278031D02*
D03*
X338032D02*
D03*
X328031D02*
D03*
X368032D02*
D03*
X388032Y216535D02*
D03*
X378031D02*
D03*
X348031D02*
D03*
X358032D02*
D03*
X308032D02*
D03*
X318032D02*
D03*
X298031D02*
D03*
X258032D02*
D03*
X248031D02*
D03*
X268032D02*
D03*
X288032D02*
D03*
X278031D02*
D03*
X338032D02*
D03*
X328031D02*
D03*
X368032D02*
D03*
X408032Y266535D02*
D03*
X398031Y266535D02*
D03*
X408032Y216535D02*
D03*
X398031D02*
D03*
D22*
X70866Y425197D02*
D03*
X90866D02*
D03*
X110866D02*
D03*
X130866D02*
D03*
X150866D02*
D03*
X170866D02*
D03*
X47244Y381890D02*
D03*
Y401890D02*
D03*
X433071Y236221D02*
D03*
Y216220D02*
D03*
D23*
X169291Y337835D02*
D03*
X159291D02*
D03*
X179291D02*
D03*
Y307835D02*
D03*
X169291D02*
D03*
X159291D02*
D03*
X86614Y236968D02*
D03*
X96614D02*
D03*
X76614D02*
D03*
Y266968D02*
D03*
X86614D02*
D03*
X96614D02*
D03*
X47244Y236968D02*
D03*
X57244D02*
D03*
X37244D02*
D03*
Y266968D02*
D03*
X47244D02*
D03*
X57244D02*
D03*
X129921Y337835D02*
D03*
X119921D02*
D03*
X139921D02*
D03*
Y307835D02*
D03*
X129921D02*
D03*
X119921D02*
D03*
D24*
X201102Y381890D02*
D03*
X191102D02*
D03*
X181102D02*
D03*
X118425D02*
D03*
X108425D02*
D03*
X98425D02*
D03*
D25*
X491142Y307283D02*
D03*
X491142Y399803D02*
D03*
X256890Y399803D02*
D03*
Y307283D02*
D03*
D26*
X19685Y452756D02*
D03*
X39370Y39370D02*
D03*
X472441D02*
D03*
Y433071D02*
D03*
D27*
X358032Y182047D02*
D03*
X368032Y181968D02*
D03*
X122795Y208622D02*
D03*
X238976Y187795D02*
D03*
X222835Y167323D02*
D03*
X200787Y198425D02*
D03*
X210630Y198031D02*
D03*
Y256299D02*
D03*
X200787Y256693D02*
D03*
D28*
X271654Y440945D02*
D03*
X303150D02*
D03*
X208661Y303150D02*
D03*
X185039Y283465D02*
D03*
X165354Y267717D02*
D03*
X444882Y381890D02*
D03*
X421260Y326772D02*
D03*
X362205Y291339D02*
D03*
X393701Y240158D02*
D03*
X366142D02*
D03*
X456693Y224410D02*
D03*
X452756Y271654D02*
D03*
X118110Y236221D02*
D03*
X51181Y188976D02*
D03*
Y153543D02*
D03*
Y118110D02*
D03*
X137795Y169291D02*
D03*
Y157480D02*
D03*
Y145669D02*
D03*
X275590Y169291D02*
D03*
Y157480D02*
D03*
Y145669D02*
D03*
X240158Y122047D02*
D03*
X322835Y161417D02*
D03*
Y122047D02*
D03*
X283465D02*
D03*
X393701Y157480D02*
D03*
Y122047D02*
D03*
X102362Y212598D02*
D03*
X90551Y86614D02*
D03*
X216535Y82677D02*
D03*
X188976Y153543D02*
D03*
X98425Y161417D02*
D03*
X287402Y330709D02*
D03*
X307087Y370079D02*
D03*
X322835Y405512D02*
D03*
M02*
