G04 Layer_Color=2752767*
%FSLAX25Y25*%
%MOIN*%
G70*
G01*
G75*
%ADD10C,0.00200*%
%ADD11C,0.01000*%
%ADD12C,0.00500*%
%ADD13C,0.00667*%
%ADD14C,0.00400*%
%ADD15C,0.01600*%
%ADD16C,0.00800*%
%ADD17C,0.00467*%
D10*
X531496Y255906D02*
G03*
X533465Y253937I1969J0D01*
G01*
Y257874D02*
G03*
X531496Y255906I-0J-1969D01*
G01*
X610236Y255906D02*
G03*
X608268Y257874I-1969J-0D01*
G01*
X608268Y253937D02*
G03*
X610236Y255906I0J1969D01*
G01*
X100394Y250000D02*
G03*
X102362Y251969I0J1969D01*
G01*
X102362Y251969D02*
G03*
X100394Y253937I-1969J-0D01*
G01*
X25591Y253937D02*
G03*
X23622Y251969I-0J-1969D01*
G01*
Y251969D02*
G03*
X25591Y250000I1969J0D01*
G01*
X110236Y326772D02*
G03*
X112205Y324803I1969J0D01*
G01*
Y328740D02*
G03*
X110236Y326772I-0J-1969D01*
G01*
X188976Y326772D02*
G03*
X187008Y328740I-1969J-0D01*
G01*
X187008Y324803D02*
G03*
X188976Y326772I0J1969D01*
G01*
X533465Y253937D02*
X608268D01*
X533465Y257874D02*
X608268D01*
X0Y0D02*
Y472441D01*
X511811D01*
Y0D02*
Y472441D01*
X0Y0D02*
X511811D01*
X25591Y253937D02*
X100394D01*
X25591Y250000D02*
X100394D01*
X112205Y324803D02*
X187008D01*
X112205Y328740D02*
X187008D01*
D11*
X566929Y232283D02*
X570866Y236221D01*
X562992Y236221D02*
X566929Y232283D01*
Y244094D01*
X547244Y226470D02*
Y220472D01*
X550243D01*
X551243Y221472D01*
Y225471D01*
X550243Y226470D01*
X547244D01*
X553242Y224471D02*
Y220472D01*
Y222472D01*
X554242Y223471D01*
X555241Y224471D01*
X556241D01*
X559240Y220472D02*
X561240D01*
X560240D01*
Y224471D01*
X559240D01*
X564239Y220472D02*
X566238D01*
X565238D01*
Y226470D01*
X564239D01*
X569237Y220472D02*
X571236D01*
X570237D01*
Y226470D01*
X569237D01*
X584232Y225471D02*
X583232Y226470D01*
X581233D01*
X580233Y225471D01*
Y221472D01*
X581233Y220472D01*
X583232D01*
X584232Y221472D01*
X586232Y224471D02*
Y221472D01*
X587231Y220472D01*
X590230D01*
Y224471D01*
X593229Y225471D02*
Y224471D01*
X592230D01*
X594229D01*
X593229D01*
Y221472D01*
X594229Y220472D01*
X585821Y152935D02*
X586820Y153935D01*
X588820D01*
X589819Y152935D01*
Y151936D01*
X588820Y150936D01*
X587820D01*
X588820D01*
X589819Y149936D01*
Y148937D01*
X588820Y147937D01*
X586820D01*
X585821Y148937D01*
X595817Y153935D02*
X593818Y152935D01*
X591819Y150936D01*
Y148937D01*
X592818Y147937D01*
X594818D01*
X595817Y148937D01*
Y149936D01*
X594818Y150936D01*
X591819D01*
X659401Y147937D02*
X655402D01*
X659401Y151936D01*
Y152935D01*
X658401Y153935D01*
X656402D01*
X655402Y152935D01*
X661400D02*
X662400Y153935D01*
X664399D01*
X665399Y152935D01*
Y148937D01*
X664399Y147937D01*
X662400D01*
X661400Y148937D01*
Y152935D01*
X667398Y147937D02*
Y151936D01*
X668398D01*
X669397Y150936D01*
Y147937D01*
Y150936D01*
X670397Y151936D01*
X671397Y150936D01*
Y147937D01*
X673396D02*
X675395D01*
X674396D01*
Y151936D01*
X673396D01*
X678395Y147937D02*
X680394D01*
X679394D01*
Y153935D01*
X678395D01*
X691390Y147937D02*
X689391Y149936D01*
Y151936D01*
X691390Y153935D01*
X694389Y152935D02*
X695389Y153935D01*
X697388D01*
X698388Y152935D01*
Y148937D01*
X697388Y147937D01*
X695389D01*
X694389Y148937D01*
Y152935D01*
X700387Y147937D02*
Y148937D01*
X701387D01*
Y147937D01*
X700387D01*
X709384Y153935D02*
X705386D01*
Y150936D01*
X707385Y151936D01*
X708385D01*
X709384Y150936D01*
Y148937D01*
X708385Y147937D01*
X706386D01*
X705386Y148937D01*
X711384Y152935D02*
X712384Y153935D01*
X714383D01*
X715383Y152935D01*
Y148937D01*
X714383Y147937D01*
X712384D01*
X711384Y148937D01*
Y152935D01*
X717382D02*
X718382Y153935D01*
X720381D01*
X721381Y152935D01*
Y151936D01*
X720381Y150936D01*
X721381Y149936D01*
Y148937D01*
X720381Y147937D01*
X718382D01*
X717382Y148937D01*
Y149936D01*
X718382Y150936D01*
X717382Y151936D01*
Y152935D01*
X718382Y150936D02*
X720381D01*
X723380Y147937D02*
Y151936D01*
X724380D01*
X725379Y150936D01*
Y147937D01*
Y150936D01*
X726379Y151936D01*
X727379Y150936D01*
Y147937D01*
X729378D02*
Y151936D01*
X730378D01*
X731377Y150936D01*
Y147937D01*
Y150936D01*
X732377Y151936D01*
X733377Y150936D01*
Y147937D01*
X735376D02*
X737375Y149936D01*
Y151936D01*
X735376Y153935D01*
X789762Y147937D02*
Y153935D01*
X792761D01*
X793761Y152935D01*
Y150936D01*
X792761Y149936D01*
X789762D01*
X795760Y153935D02*
X799759D01*
X797760D01*
Y147937D01*
X801758Y153935D02*
Y147937D01*
Y150936D01*
X805757D01*
Y153935D01*
Y147937D01*
X840150D02*
Y153935D01*
X843149D01*
X844149Y152935D01*
Y150936D01*
X843149Y149936D01*
X840150D01*
X842149D02*
X844149Y147937D01*
X847148D02*
X849147D01*
X850147Y148937D01*
Y150936D01*
X849147Y151936D01*
X847148D01*
X846148Y150936D01*
Y148937D01*
X847148Y147937D01*
X852146Y151936D02*
Y148937D01*
X853146Y147937D01*
X856145D01*
Y151936D01*
X858144Y147937D02*
Y151936D01*
X861143D01*
X862143Y150936D01*
Y147937D01*
X868141Y153935D02*
Y147937D01*
X865142D01*
X864142Y148937D01*
Y150936D01*
X865142Y151936D01*
X868141D01*
X589819Y135937D02*
X585821D01*
X589819Y139936D01*
Y140935D01*
X588820Y141935D01*
X586820D01*
X585821Y140935D01*
X591819D02*
X592818Y141935D01*
X594818D01*
X595817Y140935D01*
Y139936D01*
X594818Y138936D01*
X595817Y137936D01*
Y136937D01*
X594818Y135937D01*
X592818D01*
X591819Y136937D01*
Y137936D01*
X592818Y138936D01*
X591819Y139936D01*
Y140935D01*
X592818Y138936D02*
X594818D01*
X659401Y135937D02*
X655402D01*
X659401Y139936D01*
Y140935D01*
X658401Y141935D01*
X656402D01*
X655402Y140935D01*
X661400Y141935D02*
X665399D01*
Y140935D01*
X661400Y136937D01*
Y135937D01*
X667398D02*
Y136937D01*
X668398D01*
Y135937D01*
X667398D01*
X676395Y141935D02*
X672397D01*
Y138936D01*
X674396Y139936D01*
X675395D01*
X676395Y138936D01*
Y136937D01*
X675395Y135937D01*
X673396D01*
X672397Y136937D01*
X682393Y141935D02*
X678395D01*
Y138936D01*
X680394Y139936D01*
X681394D01*
X682393Y138936D01*
Y136937D01*
X681394Y135937D01*
X679394D01*
X678395Y136937D01*
X684393D02*
X685392Y135937D01*
X687392D01*
X688391Y136937D01*
Y140935D01*
X687392Y141935D01*
X685392D01*
X684393Y140935D01*
Y139936D01*
X685392Y138936D01*
X688391D01*
X690391Y135937D02*
Y139936D01*
X691390D01*
X692390Y138936D01*
Y135937D01*
Y138936D01*
X693390Y139936D01*
X694389Y138936D01*
Y135937D01*
X696389D02*
X698388D01*
X697388D01*
Y139936D01*
X696389D01*
X701387Y135937D02*
X703386D01*
X702387D01*
Y141935D01*
X701387D01*
X714383Y135937D02*
X712384Y137936D01*
Y139936D01*
X714383Y141935D01*
X717382Y140935D02*
X718382Y141935D01*
X720381D01*
X721381Y140935D01*
Y136937D01*
X720381Y135937D01*
X718382D01*
X717382Y136937D01*
Y140935D01*
X723380Y135937D02*
Y136937D01*
X724380D01*
Y135937D01*
X723380D01*
X728378Y141935D02*
X732377D01*
Y140935D01*
X728378Y136937D01*
Y135937D01*
X734376D02*
Y139936D01*
X735376D01*
X736376Y138936D01*
Y135937D01*
Y138936D01*
X737375Y139936D01*
X738375Y138936D01*
Y135937D01*
X740375D02*
Y139936D01*
X741374D01*
X742374Y138936D01*
Y135937D01*
Y138936D01*
X743373Y139936D01*
X744373Y138936D01*
Y135937D01*
X746373D02*
X748372Y137936D01*
Y139936D01*
X746373Y141935D01*
X789762Y135937D02*
Y141935D01*
X792761D01*
X793761Y140935D01*
Y138936D01*
X792761Y137936D01*
X789762D01*
X795760Y141935D02*
X799759D01*
X797760D01*
Y135937D01*
X801758Y141935D02*
Y135937D01*
Y138936D01*
X805757D01*
Y141935D01*
Y135937D01*
X840150D02*
Y141935D01*
X843149D01*
X844149Y140935D01*
Y138936D01*
X843149Y137936D01*
X840150D01*
X842149D02*
X844149Y135937D01*
X847148D02*
X849147D01*
X850147Y136937D01*
Y138936D01*
X849147Y139936D01*
X847148D01*
X846148Y138936D01*
Y136937D01*
X847148Y135937D01*
X852146Y139936D02*
Y136937D01*
X853146Y135937D01*
X856145D01*
Y139936D01*
X858144Y135937D02*
Y139936D01*
X861143D01*
X862143Y138936D01*
Y135937D01*
X868141Y141935D02*
Y135937D01*
X865142D01*
X864142Y136937D01*
Y138936D01*
X865142Y139936D01*
X868141D01*
X585821Y124937D02*
X586820Y123937D01*
X588820D01*
X589819Y124937D01*
Y128935D01*
X588820Y129935D01*
X586820D01*
X585821Y128935D01*
Y127936D01*
X586820Y126936D01*
X589819D01*
X655402Y128935D02*
X656402Y129935D01*
X658401D01*
X659401Y128935D01*
Y127936D01*
X658401Y126936D01*
X657401D01*
X658401D01*
X659401Y125936D01*
Y124937D01*
X658401Y123937D01*
X656402D01*
X655402Y124937D01*
X661400Y128935D02*
X662400Y129935D01*
X664399D01*
X665399Y128935D01*
Y124937D01*
X664399Y123937D01*
X662400D01*
X661400Y124937D01*
Y128935D01*
X667398Y123937D02*
Y127936D01*
X668398D01*
X669397Y126936D01*
Y123937D01*
Y126936D01*
X670397Y127936D01*
X671397Y126936D01*
Y123937D01*
X673396D02*
X675395D01*
X674396D01*
Y127936D01*
X673396D01*
X678395Y123937D02*
X680394D01*
X679394D01*
Y129935D01*
X678395D01*
X691390Y123937D02*
X689391Y125936D01*
Y127936D01*
X691390Y129935D01*
X694389Y128935D02*
X695389Y129935D01*
X697388D01*
X698388Y128935D01*
Y124937D01*
X697388Y123937D01*
X695389D01*
X694389Y124937D01*
Y128935D01*
X700387Y123937D02*
Y124937D01*
X701387D01*
Y123937D01*
X700387D01*
X705386Y129935D02*
X709384D01*
Y128935D01*
X705386Y124937D01*
Y123937D01*
X715383Y129935D02*
X713383Y128935D01*
X711384Y126936D01*
Y124937D01*
X712384Y123937D01*
X714383D01*
X715383Y124937D01*
Y125936D01*
X714383Y126936D01*
X711384D01*
X721381Y123937D02*
X717382D01*
X721381Y127936D01*
Y128935D01*
X720381Y129935D01*
X718382D01*
X717382Y128935D01*
X723380Y123937D02*
Y127936D01*
X724380D01*
X725379Y126936D01*
Y123937D01*
Y126936D01*
X726379Y127936D01*
X727379Y126936D01*
Y123937D01*
X729378D02*
Y127936D01*
X730378D01*
X731377Y126936D01*
Y123937D01*
Y126936D01*
X732377Y127936D01*
X733377Y126936D01*
Y123937D01*
X735376D02*
X737375Y125936D01*
Y127936D01*
X735376Y129935D01*
X789762Y123937D02*
Y129935D01*
X792761D01*
X793761Y128935D01*
Y126936D01*
X792761Y125936D01*
X789762D01*
X795760Y129935D02*
X799759D01*
X797760D01*
Y123937D01*
X801758Y129935D02*
Y123937D01*
Y126936D01*
X805757D01*
Y129935D01*
Y123937D01*
X840150D02*
Y129935D01*
X843149D01*
X844149Y128935D01*
Y126936D01*
X843149Y125936D01*
X840150D01*
X842149D02*
X844149Y123937D01*
X847148D02*
X849147D01*
X850147Y124937D01*
Y126936D01*
X849147Y127936D01*
X847148D01*
X846148Y126936D01*
Y124937D01*
X847148Y123937D01*
X852146Y127936D02*
Y124937D01*
X853146Y123937D01*
X856145D01*
Y127936D01*
X858144Y123937D02*
Y127936D01*
X861143D01*
X862143Y126936D01*
Y123937D01*
X868141Y129935D02*
Y123937D01*
X865142D01*
X864142Y124937D01*
Y126936D01*
X865142Y127936D01*
X868141D01*
X585821Y111937D02*
X587820D01*
X586820D01*
Y117935D01*
X585821Y116935D01*
X590819Y112937D02*
X591819Y111937D01*
X593818D01*
X594818Y112937D01*
Y116935D01*
X593818Y117935D01*
X591819D01*
X590819Y116935D01*
Y115936D01*
X591819Y114936D01*
X594818D01*
X655402Y116935D02*
X656402Y117935D01*
X658401D01*
X659401Y116935D01*
Y115936D01*
X658401Y114936D01*
X657401D01*
X658401D01*
X659401Y113936D01*
Y112937D01*
X658401Y111937D01*
X656402D01*
X655402Y112937D01*
X661400Y111937D02*
X663399D01*
X662400D01*
Y117935D01*
X661400Y116935D01*
X666398Y111937D02*
Y115936D01*
X667398D01*
X668398Y114936D01*
Y111937D01*
Y114936D01*
X669397Y115936D01*
X670397Y114936D01*
Y111937D01*
X672397D02*
X674396D01*
X673396D01*
Y115936D01*
X672397D01*
X677395Y111937D02*
X679394D01*
X678395D01*
Y117935D01*
X677395D01*
X690391Y111937D02*
X688391Y113936D01*
Y115936D01*
X690391Y117935D01*
X693390Y116935D02*
X694389Y117935D01*
X696389D01*
X697388Y116935D01*
Y112937D01*
X696389Y111937D01*
X694389D01*
X693390Y112937D01*
Y116935D01*
X699388Y111937D02*
Y112937D01*
X700387D01*
Y111937D01*
X699388D01*
X704386Y117935D02*
X708385D01*
Y116935D01*
X704386Y112937D01*
Y111937D01*
X710384Y116935D02*
X711384Y117935D01*
X713383D01*
X714383Y116935D01*
Y115936D01*
X713383Y114936D01*
X714383Y113936D01*
Y112937D01*
X713383Y111937D01*
X711384D01*
X710384Y112937D01*
Y113936D01*
X711384Y114936D01*
X710384Y115936D01*
Y116935D01*
X711384Y114936D02*
X713383D01*
X716382Y117935D02*
X720381D01*
Y116935D01*
X716382Y112937D01*
Y111937D01*
X725379D02*
Y117935D01*
X722380Y114936D01*
X726379D01*
X728378Y111937D02*
Y115936D01*
X729378D01*
X730378Y114936D01*
Y111937D01*
Y114936D01*
X731377Y115936D01*
X732377Y114936D01*
Y111937D01*
X734376D02*
Y115936D01*
X735376D01*
X736376Y114936D01*
Y111937D01*
Y114936D01*
X737375Y115936D01*
X738375Y114936D01*
Y111937D01*
X740375D02*
X742374Y113936D01*
Y115936D01*
X740375Y117935D01*
X789762Y111937D02*
Y117935D01*
X792761D01*
X793761Y116935D01*
Y114936D01*
X792761Y113936D01*
X789762D01*
X795760Y117935D02*
X799759D01*
X797760D01*
Y111937D01*
X801758Y117935D02*
Y111937D01*
Y114936D01*
X805757D01*
Y117935D01*
Y111937D01*
X840150D02*
Y117935D01*
X843149D01*
X844149Y116935D01*
Y114936D01*
X843149Y113936D01*
X840150D01*
X842149D02*
X844149Y111937D01*
X847148D02*
X849147D01*
X850147Y112937D01*
Y114936D01*
X849147Y115936D01*
X847148D01*
X846148Y114936D01*
Y112937D01*
X847148Y111937D01*
X852146Y115936D02*
Y112937D01*
X853146Y111937D01*
X856145D01*
Y115936D01*
X858144Y111937D02*
Y115936D01*
X861143D01*
X862143Y114936D01*
Y111937D01*
X868141Y117935D02*
Y111937D01*
X865142D01*
X864142Y112937D01*
Y114936D01*
X865142Y115936D01*
X868141D01*
X589819Y105935D02*
X585821D01*
Y102936D01*
X587820Y103936D01*
X588820D01*
X589819Y102936D01*
Y100937D01*
X588820Y99937D01*
X586820D01*
X585821Y100937D01*
X591819Y104935D02*
X592818Y105935D01*
X594818D01*
X595817Y104935D01*
Y103936D01*
X594818Y102936D01*
X595817Y101936D01*
Y100937D01*
X594818Y99937D01*
X592818D01*
X591819Y100937D01*
Y101936D01*
X592818Y102936D01*
X591819Y103936D01*
Y104935D01*
X592818Y102936D02*
X594818D01*
X655402Y104935D02*
X656402Y105935D01*
X658401D01*
X659401Y104935D01*
Y103936D01*
X658401Y102936D01*
X657401D01*
X658401D01*
X659401Y101936D01*
Y100937D01*
X658401Y99937D01*
X656402D01*
X655402Y100937D01*
X665399Y99937D02*
X661400D01*
X665399Y103936D01*
Y104935D01*
X664399Y105935D01*
X662400D01*
X661400Y104935D01*
X667398Y99937D02*
Y103936D01*
X668398D01*
X669397Y102936D01*
Y99937D01*
Y102936D01*
X670397Y103936D01*
X671397Y102936D01*
Y99937D01*
X673396D02*
X675395D01*
X674396D01*
Y103936D01*
X673396D01*
X678395Y99937D02*
X680394D01*
X679394D01*
Y105935D01*
X678395D01*
X691390Y99937D02*
X689391Y101936D01*
Y103936D01*
X691390Y105935D01*
X694389Y104935D02*
X695389Y105935D01*
X697388D01*
X698388Y104935D01*
Y100937D01*
X697388Y99937D01*
X695389D01*
X694389Y100937D01*
Y104935D01*
X700387Y99937D02*
Y100937D01*
X701387D01*
Y99937D01*
X700387D01*
X705386Y104935D02*
X706386Y105935D01*
X708385D01*
X709384Y104935D01*
Y103936D01*
X708385Y102936D01*
X709384Y101936D01*
Y100937D01*
X708385Y99937D01*
X706386D01*
X705386Y100937D01*
Y101936D01*
X706386Y102936D01*
X705386Y103936D01*
Y104935D01*
X706386Y102936D02*
X708385D01*
X711384Y99937D02*
X713383D01*
X712384D01*
Y105935D01*
X711384Y104935D01*
X720381Y99937D02*
X716382D01*
X720381Y103936D01*
Y104935D01*
X719381Y105935D01*
X717382D01*
X716382Y104935D01*
X722380D02*
X723380Y105935D01*
X725379D01*
X726379Y104935D01*
Y103936D01*
X725379Y102936D01*
X726379Y101936D01*
Y100937D01*
X725379Y99937D01*
X723380D01*
X722380Y100937D01*
Y101936D01*
X723380Y102936D01*
X722380Y103936D01*
Y104935D01*
X723380Y102936D02*
X725379D01*
X728378Y99937D02*
Y103936D01*
X729378D01*
X730378Y102936D01*
Y99937D01*
Y102936D01*
X731377Y103936D01*
X732377Y102936D01*
Y99937D01*
X734376D02*
Y103936D01*
X735376D01*
X736376Y102936D01*
Y99937D01*
Y102936D01*
X737375Y103936D01*
X738375Y102936D01*
Y99937D01*
X740375D02*
X742374Y101936D01*
Y103936D01*
X740375Y105935D01*
X789762Y99937D02*
Y105935D01*
X792761D01*
X793761Y104935D01*
Y102936D01*
X792761Y101936D01*
X789762D01*
X795760Y105935D02*
X799759D01*
X797760D01*
Y99937D01*
X801758Y105935D02*
Y99937D01*
Y102936D01*
X805757D01*
Y105935D01*
Y99937D01*
X840150D02*
Y105935D01*
X843149D01*
X844149Y104935D01*
Y102936D01*
X843149Y101936D01*
X840150D01*
X842149D02*
X844149Y99937D01*
X847148D02*
X849147D01*
X850147Y100937D01*
Y102936D01*
X849147Y103936D01*
X847148D01*
X846148Y102936D01*
Y100937D01*
X847148Y99937D01*
X852146Y103936D02*
Y100937D01*
X853146Y99937D01*
X856145D01*
Y103936D01*
X858144Y99937D02*
Y103936D01*
X861143D01*
X862143Y102936D01*
Y99937D01*
X868141Y105935D02*
Y99937D01*
X865142D01*
X864142Y100937D01*
Y102936D01*
X865142Y103936D01*
X868141D01*
X588820Y87937D02*
Y93935D01*
X585821Y90936D01*
X589819D01*
X595817Y93935D02*
X593818Y92935D01*
X591819Y90936D01*
Y88937D01*
X592818Y87937D01*
X594818D01*
X595817Y88937D01*
Y89936D01*
X594818Y90936D01*
X591819D01*
X655402Y92935D02*
X656402Y93935D01*
X658401D01*
X659401Y92935D01*
Y91936D01*
X658401Y90936D01*
X657401D01*
X658401D01*
X659401Y89936D01*
Y88937D01*
X658401Y87937D01*
X656402D01*
X655402Y88937D01*
X661400D02*
X662400Y87937D01*
X664399D01*
X665399Y88937D01*
Y92935D01*
X664399Y93935D01*
X662400D01*
X661400Y92935D01*
Y91936D01*
X662400Y90936D01*
X665399D01*
X667398Y87937D02*
Y88937D01*
X668398D01*
Y87937D01*
X667398D01*
X672397Y92935D02*
X673396Y93935D01*
X675395D01*
X676395Y92935D01*
Y91936D01*
X675395Y90936D01*
X674396D01*
X675395D01*
X676395Y89936D01*
Y88937D01*
X675395Y87937D01*
X673396D01*
X672397Y88937D01*
X678395Y93935D02*
X682393D01*
Y92935D01*
X678395Y88937D01*
Y87937D01*
X684393D02*
Y91936D01*
X685392D01*
X686392Y90936D01*
Y87937D01*
Y90936D01*
X687392Y91936D01*
X688391Y90936D01*
Y87937D01*
X690391D02*
X692390D01*
X691390D01*
Y91936D01*
X690391D01*
X695389Y87937D02*
X697388D01*
X696389D01*
Y93935D01*
X695389D01*
X708385Y87937D02*
X706386Y89936D01*
Y91936D01*
X708385Y93935D01*
X711384Y87937D02*
X713383D01*
X712384D01*
Y93935D01*
X711384Y92935D01*
X716382Y87937D02*
Y91936D01*
X717382D01*
X718382Y90936D01*
Y87937D01*
Y90936D01*
X719381Y91936D01*
X720381Y90936D01*
Y87937D01*
X722380D02*
Y91936D01*
X723380D01*
X724380Y90936D01*
Y87937D01*
Y90936D01*
X725379Y91936D01*
X726379Y90936D01*
Y87937D01*
X728378D02*
X730378Y89936D01*
Y91936D01*
X728378Y93935D01*
X789762Y87937D02*
Y93935D01*
X792761D01*
X793761Y92935D01*
Y90936D01*
X792761Y89936D01*
X789762D01*
X795760Y93935D02*
X799759D01*
X797760D01*
Y87937D01*
X801758Y93935D02*
Y87937D01*
Y90936D01*
X805757D01*
Y93935D01*
Y87937D01*
X840150D02*
Y93935D01*
X843149D01*
X844149Y92935D01*
Y90936D01*
X843149Y89936D01*
X840150D01*
X842149D02*
X844149Y87937D01*
X847148D02*
X849147D01*
X850147Y88937D01*
Y90936D01*
X849147Y91936D01*
X847148D01*
X846148Y90936D01*
Y88937D01*
X847148Y87937D01*
X852146Y91936D02*
Y88937D01*
X853146Y87937D01*
X856145D01*
Y91936D01*
X858144Y87937D02*
Y91936D01*
X861143D01*
X862143Y90936D01*
Y87937D01*
X868141Y93935D02*
Y87937D01*
X865142D01*
X864142Y88937D01*
Y90936D01*
X865142Y91936D01*
X868141D01*
X585821Y75937D02*
X587820D01*
X586820D01*
Y81935D01*
X585821Y80935D01*
X590819D02*
X591819Y81935D01*
X593818D01*
X594818Y80935D01*
Y76937D01*
X593818Y75937D01*
X591819D01*
X590819Y76937D01*
Y80935D01*
X659401Y81935D02*
X655402D01*
Y78936D01*
X657401Y79936D01*
X658401D01*
X659401Y78936D01*
Y76937D01*
X658401Y75937D01*
X656402D01*
X655402Y76937D01*
X661400Y80935D02*
X662400Y81935D01*
X664399D01*
X665399Y80935D01*
Y76937D01*
X664399Y75937D01*
X662400D01*
X661400Y76937D01*
Y80935D01*
X667398Y75937D02*
Y79936D01*
X668398D01*
X669397Y78936D01*
Y75937D01*
Y78936D01*
X670397Y79936D01*
X671397Y78936D01*
Y75937D01*
X673396D02*
X675395D01*
X674396D01*
Y79936D01*
X673396D01*
X678395Y75937D02*
X680394D01*
X679394D01*
Y81935D01*
X678395D01*
X691390Y75937D02*
X689391Y77936D01*
Y79936D01*
X691390Y81935D01*
X694389Y75937D02*
X696389D01*
X695389D01*
Y81935D01*
X694389Y80935D01*
X699388Y75937D02*
Y76937D01*
X700387D01*
Y75937D01*
X699388D01*
X708385D02*
X704386D01*
X708385Y79936D01*
Y80935D01*
X707385Y81935D01*
X705386D01*
X704386Y80935D01*
X710384Y81935D02*
X714383D01*
Y80935D01*
X710384Y76937D01*
Y75937D01*
X716382D02*
Y79936D01*
X717382D01*
X718382Y78936D01*
Y75937D01*
Y78936D01*
X719381Y79936D01*
X720381Y78936D01*
Y75937D01*
X722380D02*
Y79936D01*
X723380D01*
X724380Y78936D01*
Y75937D01*
Y78936D01*
X725379Y79936D01*
X726379Y78936D01*
Y75937D01*
X728378D02*
X730378Y77936D01*
Y79936D01*
X728378Y81935D01*
X789762Y75937D02*
Y81935D01*
X792761D01*
X793761Y80935D01*
Y78936D01*
X792761Y77936D01*
X789762D01*
X795760Y81935D02*
X799759D01*
X797760D01*
Y75937D01*
X801758Y81935D02*
Y75937D01*
Y78936D01*
X805757D01*
Y81935D01*
Y75937D01*
X840150D02*
Y81935D01*
X843149D01*
X844149Y80935D01*
Y78936D01*
X843149Y77936D01*
X840150D01*
X842149D02*
X844149Y75937D01*
X847148D02*
X849147D01*
X850147Y76937D01*
Y78936D01*
X849147Y79936D01*
X847148D01*
X846148Y78936D01*
Y76937D01*
X847148Y75937D01*
X852146Y79936D02*
Y76937D01*
X853146Y75937D01*
X856145D01*
Y79936D01*
X858144Y75937D02*
Y79936D01*
X861143D01*
X862143Y78936D01*
Y75937D01*
X868141Y81935D02*
Y75937D01*
X865142D01*
X864142Y76937D01*
Y78936D01*
X865142Y79936D01*
X868141D01*
X585821Y63937D02*
X587820D01*
X586820D01*
Y69935D01*
X585821Y68935D01*
X590819D02*
X591819Y69935D01*
X593818D01*
X594818Y68935D01*
Y64937D01*
X593818Y63937D01*
X591819D01*
X590819Y64937D01*
Y68935D01*
X659401Y69935D02*
X655402D01*
Y66936D01*
X657401Y67936D01*
X658401D01*
X659401Y66936D01*
Y64937D01*
X658401Y63937D01*
X656402D01*
X655402Y64937D01*
X661400D02*
X662400Y63937D01*
X664399D01*
X665399Y64937D01*
Y68935D01*
X664399Y69935D01*
X662400D01*
X661400Y68935D01*
Y67936D01*
X662400Y66936D01*
X665399D01*
X667398Y63937D02*
Y64937D01*
X668398D01*
Y63937D01*
X667398D01*
X672397Y68935D02*
X673396Y69935D01*
X675395D01*
X676395Y68935D01*
Y64937D01*
X675395Y63937D01*
X673396D01*
X672397Y64937D01*
Y68935D01*
X682393Y69935D02*
X678395D01*
Y66936D01*
X680394Y67936D01*
X681394D01*
X682393Y66936D01*
Y64937D01*
X681394Y63937D01*
X679394D01*
X678395Y64937D01*
X688391Y69935D02*
X684393D01*
Y66936D01*
X686392Y67936D01*
X687392D01*
X688391Y66936D01*
Y64937D01*
X687392Y63937D01*
X685392D01*
X684393Y64937D01*
X690391Y63937D02*
Y67936D01*
X691390D01*
X692390Y66936D01*
Y63937D01*
Y66936D01*
X693390Y67936D01*
X694389Y66936D01*
Y63937D01*
X696389D02*
X698388D01*
X697388D01*
Y67936D01*
X696389D01*
X701387Y63937D02*
X703386D01*
X702387D01*
Y69935D01*
X701387D01*
X714383Y63937D02*
X712384Y65936D01*
Y67936D01*
X714383Y69935D01*
X717382Y63937D02*
X719381D01*
X718382D01*
Y69935D01*
X717382Y68935D01*
X722380Y63937D02*
Y64937D01*
X723380D01*
Y63937D01*
X722380D01*
X731377Y69935D02*
X727379D01*
Y66936D01*
X729378Y67936D01*
X730378D01*
X731377Y66936D01*
Y64937D01*
X730378Y63937D01*
X728378D01*
X727379Y64937D01*
X733377Y63937D02*
Y67936D01*
X734376D01*
X735376Y66936D01*
Y63937D01*
Y66936D01*
X736376Y67936D01*
X737375Y66936D01*
Y63937D01*
X739375D02*
Y67936D01*
X740375D01*
X741374Y66936D01*
Y63937D01*
Y66936D01*
X742374Y67936D01*
X743373Y66936D01*
Y63937D01*
X745373D02*
X747372Y65936D01*
Y67936D01*
X745373Y69935D01*
X789762Y63937D02*
Y69935D01*
X792761D01*
X793761Y68935D01*
Y66936D01*
X792761Y65936D01*
X789762D01*
X795760Y69935D02*
X799759D01*
X797760D01*
Y63937D01*
X801758Y69935D02*
Y63937D01*
Y66936D01*
X805757D01*
Y69935D01*
Y63937D01*
X840150D02*
Y69935D01*
X843149D01*
X844149Y68935D01*
Y66936D01*
X843149Y65936D01*
X840150D01*
X842149D02*
X844149Y63937D01*
X847148D02*
X849147D01*
X850147Y64937D01*
Y66936D01*
X849147Y67936D01*
X847148D01*
X846148Y66936D01*
Y64937D01*
X847148Y63937D01*
X852146Y67936D02*
Y64937D01*
X853146Y63937D01*
X856145D01*
Y67936D01*
X858144Y63937D02*
Y67936D01*
X861143D01*
X862143Y66936D01*
Y63937D01*
X868141Y69935D02*
Y63937D01*
X865142D01*
X864142Y64937D01*
Y66936D01*
X865142Y67936D01*
X868141D01*
X589819Y57935D02*
X587820Y56935D01*
X585821Y54936D01*
Y52937D01*
X586820Y51937D01*
X588820D01*
X589819Y52937D01*
Y53936D01*
X588820Y54936D01*
X585821D01*
X659401Y57935D02*
X657401Y56935D01*
X655402Y54936D01*
Y52937D01*
X656402Y51937D01*
X658401D01*
X659401Y52937D01*
Y53936D01*
X658401Y54936D01*
X655402D01*
X665399Y51937D02*
X661400D01*
X665399Y55936D01*
Y56935D01*
X664399Y57935D01*
X662400D01*
X661400Y56935D01*
X667398Y51937D02*
Y52937D01*
X668398D01*
Y51937D01*
X667398D01*
X672397Y52937D02*
X673396Y51937D01*
X675395D01*
X676395Y52937D01*
Y56935D01*
X675395Y57935D01*
X673396D01*
X672397Y56935D01*
Y55936D01*
X673396Y54936D01*
X676395D01*
X678395Y52937D02*
X679394Y51937D01*
X681394D01*
X682393Y52937D01*
Y56935D01*
X681394Y57935D01*
X679394D01*
X678395Y56935D01*
Y55936D01*
X679394Y54936D01*
X682393D01*
X688391Y51937D02*
X684393D01*
X688391Y55936D01*
Y56935D01*
X687392Y57935D01*
X685392D01*
X684393Y56935D01*
X690391Y51937D02*
Y55936D01*
X691390D01*
X692390Y54936D01*
Y51937D01*
Y54936D01*
X693390Y55936D01*
X694389Y54936D01*
Y51937D01*
X696389D02*
X698388D01*
X697388D01*
Y55936D01*
X696389D01*
X701387Y51937D02*
X703386D01*
X702387D01*
Y57935D01*
X701387D01*
X714383Y51937D02*
X712384Y53936D01*
Y55936D01*
X714383Y57935D01*
X717382Y51937D02*
X719381D01*
X718382D01*
Y57935D01*
X717382Y56935D01*
X722380Y51937D02*
Y52937D01*
X723380D01*
Y51937D01*
X722380D01*
X731377Y57935D02*
X729378Y56935D01*
X727379Y54936D01*
Y52937D01*
X728378Y51937D01*
X730378D01*
X731377Y52937D01*
Y53936D01*
X730378Y54936D01*
X727379D01*
X733377Y51937D02*
Y55936D01*
X734376D01*
X735376Y54936D01*
Y51937D01*
Y54936D01*
X736376Y55936D01*
X737375Y54936D01*
Y51937D01*
X739375D02*
Y55936D01*
X740375D01*
X741374Y54936D01*
Y51937D01*
Y54936D01*
X742374Y55936D01*
X743373Y54936D01*
Y51937D01*
X745373D02*
X747372Y53936D01*
Y55936D01*
X745373Y57935D01*
X789762Y51937D02*
Y57935D01*
X793761Y51937D01*
Y57935D01*
X795760Y51937D02*
Y57935D01*
X798760D01*
X799759Y56935D01*
Y54936D01*
X798760Y53936D01*
X795760D01*
X801758Y57935D02*
X805757D01*
X803758D01*
Y51937D01*
X807757Y57935D02*
Y51937D01*
Y54936D01*
X811755D01*
Y57935D01*
Y51937D01*
X840150D02*
Y57935D01*
X843149D01*
X844149Y56935D01*
Y54936D01*
X843149Y53936D01*
X840150D01*
X842149D02*
X844149Y51937D01*
X847148D02*
X849147D01*
X850147Y52937D01*
Y54936D01*
X849147Y55936D01*
X847148D01*
X846148Y54936D01*
Y52937D01*
X847148Y51937D01*
X852146Y55936D02*
Y52937D01*
X853146Y51937D01*
X856145D01*
Y55936D01*
X858144Y51937D02*
Y55936D01*
X861143D01*
X862143Y54936D01*
Y51937D01*
X868141Y57935D02*
Y51937D01*
X865142D01*
X864142Y52937D01*
Y54936D01*
X865142Y55936D01*
X868141D01*
X589819Y39937D02*
X585821D01*
X589819Y43936D01*
Y44935D01*
X588820Y45935D01*
X586820D01*
X585821Y44935D01*
X655402Y45935D02*
X659401D01*
Y44935D01*
X655402Y40937D01*
Y39937D01*
X661400Y44935D02*
X662400Y45935D01*
X664399D01*
X665399Y44935D01*
Y40937D01*
X664399Y39937D01*
X662400D01*
X661400Y40937D01*
Y44935D01*
X667398Y39937D02*
Y40937D01*
X668398D01*
Y39937D01*
X667398D01*
X672397Y44935D02*
X673396Y45935D01*
X675395D01*
X676395Y44935D01*
Y43936D01*
X675395Y42936D01*
X676395Y41936D01*
Y40937D01*
X675395Y39937D01*
X673396D01*
X672397Y40937D01*
Y41936D01*
X673396Y42936D01*
X672397Y43936D01*
Y44935D01*
X673396Y42936D02*
X675395D01*
X682393Y45935D02*
X680394Y44935D01*
X678395Y42936D01*
Y40937D01*
X679394Y39937D01*
X681394D01*
X682393Y40937D01*
Y41936D01*
X681394Y42936D01*
X678395D01*
X688391Y45935D02*
X686392Y44935D01*
X684393Y42936D01*
Y40937D01*
X685392Y39937D01*
X687392D01*
X688391Y40937D01*
Y41936D01*
X687392Y42936D01*
X684393D01*
X690391Y39937D02*
Y43936D01*
X691390D01*
X692390Y42936D01*
Y39937D01*
Y42936D01*
X693390Y43936D01*
X694389Y42936D01*
Y39937D01*
X696389D02*
X698388D01*
X697388D01*
Y43936D01*
X696389D01*
X701387Y39937D02*
X703386D01*
X702387D01*
Y45935D01*
X701387D01*
X714383Y39937D02*
X712384Y41936D01*
Y43936D01*
X714383Y45935D01*
X717382Y39937D02*
X719381D01*
X718382D01*
Y45935D01*
X717382Y44935D01*
X722380Y39937D02*
Y40937D01*
X723380D01*
Y39937D01*
X722380D01*
X727379Y44935D02*
X728378Y45935D01*
X730378D01*
X731377Y44935D01*
Y43936D01*
X730378Y42936D01*
X731377Y41936D01*
Y40937D01*
X730378Y39937D01*
X728378D01*
X727379Y40937D01*
Y41936D01*
X728378Y42936D01*
X727379Y43936D01*
Y44935D01*
X728378Y42936D02*
X730378D01*
X733377Y39937D02*
Y43936D01*
X734376D01*
X735376Y42936D01*
Y39937D01*
Y42936D01*
X736376Y43936D01*
X737375Y42936D01*
Y39937D01*
X739375D02*
Y43936D01*
X740375D01*
X741374Y42936D01*
Y39937D01*
Y42936D01*
X742374Y43936D01*
X743373Y42936D01*
Y39937D01*
X745373D02*
X747372Y41936D01*
Y43936D01*
X745373Y45935D01*
X789762Y39937D02*
Y45935D01*
X792761D01*
X793761Y44935D01*
Y42936D01*
X792761Y41936D01*
X789762D01*
X795760Y45935D02*
X799759D01*
X797760D01*
Y39937D01*
X801758Y45935D02*
Y39937D01*
Y42936D01*
X805757D01*
Y45935D01*
Y39937D01*
X840150D02*
Y45935D01*
X843149D01*
X844149Y44935D01*
Y42936D01*
X843149Y41936D01*
X840150D01*
X842149D02*
X844149Y39937D01*
X847148D02*
X849147D01*
X850147Y40937D01*
Y42936D01*
X849147Y43936D01*
X847148D01*
X846148Y42936D01*
Y40937D01*
X847148Y39937D01*
X852146Y43936D02*
Y40937D01*
X853146Y39937D01*
X856145D01*
Y43936D01*
X858144Y39937D02*
Y43936D01*
X861143D01*
X862143Y42936D01*
Y39937D01*
X868141Y45935D02*
Y39937D01*
X865142D01*
X864142Y40937D01*
Y42936D01*
X865142Y43936D01*
X868141D01*
X588820Y27937D02*
Y33935D01*
X585821Y30936D01*
X589819D01*
X655402Y32935D02*
X656402Y33935D01*
X658401D01*
X659401Y32935D01*
Y31936D01*
X658401Y30936D01*
X659401Y29936D01*
Y28937D01*
X658401Y27937D01*
X656402D01*
X655402Y28937D01*
Y29936D01*
X656402Y30936D01*
X655402Y31936D01*
Y32935D01*
X656402Y30936D02*
X658401D01*
X665399Y27937D02*
X661400D01*
X665399Y31936D01*
Y32935D01*
X664399Y33935D01*
X662400D01*
X661400Y32935D01*
X667398Y27937D02*
Y28937D01*
X668398D01*
Y27937D01*
X667398D01*
X676395Y33935D02*
X674396Y32935D01*
X672397Y30936D01*
Y28937D01*
X673396Y27937D01*
X675395D01*
X676395Y28937D01*
Y29936D01*
X675395Y30936D01*
X672397D01*
X678395Y33935D02*
X682393D01*
Y32935D01*
X678395Y28937D01*
Y27937D01*
X684393Y33935D02*
X688391D01*
Y32935D01*
X684393Y28937D01*
Y27937D01*
X690391D02*
Y31936D01*
X691390D01*
X692390Y30936D01*
Y27937D01*
Y30936D01*
X693390Y31936D01*
X694389Y30936D01*
Y27937D01*
X696389D02*
X698388D01*
X697388D01*
Y31936D01*
X696389D01*
X701387Y27937D02*
X703386D01*
X702387D01*
Y33935D01*
X701387D01*
X714383Y27937D02*
X712384Y29936D01*
Y31936D01*
X714383Y33935D01*
X721381Y27937D02*
X717382D01*
X721381Y31936D01*
Y32935D01*
X720381Y33935D01*
X718382D01*
X717382Y32935D01*
X723380Y27937D02*
Y28937D01*
X724380D01*
Y27937D01*
X723380D01*
X728378D02*
X730378D01*
X729378D01*
Y33935D01*
X728378Y32935D01*
X733377Y27937D02*
Y31936D01*
X734376D01*
X735376Y30936D01*
Y27937D01*
Y30936D01*
X736376Y31936D01*
X737375Y30936D01*
Y27937D01*
X739375D02*
Y31936D01*
X740375D01*
X741374Y30936D01*
Y27937D01*
Y30936D01*
X742374Y31936D01*
X743373Y30936D01*
Y27937D01*
X745373D02*
X747372Y29936D01*
Y31936D01*
X745373Y33935D01*
X789762Y27937D02*
Y33935D01*
X792761D01*
X793761Y32935D01*
Y30936D01*
X792761Y29936D01*
X789762D01*
X795760Y33935D02*
X799759D01*
X797760D01*
Y27937D01*
X801758Y33935D02*
Y27937D01*
Y30936D01*
X805757D01*
Y33935D01*
Y27937D01*
X840150D02*
Y33935D01*
X843149D01*
X844149Y32935D01*
Y30936D01*
X843149Y29936D01*
X840150D01*
X842149D02*
X844149Y27937D01*
X847148D02*
X849147D01*
X850147Y28937D01*
Y30936D01*
X849147Y31936D01*
X847148D01*
X846148Y30936D01*
Y28937D01*
X847148Y27937D01*
X852146Y31936D02*
Y28937D01*
X853146Y27937D01*
X856145D01*
Y31936D01*
X858144Y27937D02*
Y31936D01*
X861143D01*
X862143Y30936D01*
Y27937D01*
X868141Y33935D02*
Y27937D01*
X865142D01*
X864142Y28937D01*
Y30936D01*
X865142Y31936D01*
X868141D01*
X585821Y20935D02*
X586820Y21935D01*
X588820D01*
X589819Y20935D01*
Y19936D01*
X588820Y18936D01*
X589819Y17936D01*
Y16937D01*
X588820Y15937D01*
X586820D01*
X585821Y16937D01*
Y17936D01*
X586820Y18936D01*
X585821Y19936D01*
Y20935D01*
X586820Y18936D02*
X588820D01*
X655402Y15937D02*
X657401D01*
X656402D01*
Y21935D01*
X655402Y20935D01*
X664399Y15937D02*
X660400D01*
X664399Y19936D01*
Y20935D01*
X663399Y21935D01*
X661400D01*
X660400Y20935D01*
X670397Y21935D02*
X666398D01*
Y18936D01*
X668398Y19936D01*
X669397D01*
X670397Y18936D01*
Y16937D01*
X669397Y15937D01*
X667398D01*
X666398Y16937D01*
X672397Y15937D02*
Y16937D01*
X673396D01*
Y15937D01*
X672397D01*
X677395Y16937D02*
X678395Y15937D01*
X680394D01*
X681394Y16937D01*
Y20935D01*
X680394Y21935D01*
X678395D01*
X677395Y20935D01*
Y19936D01*
X678395Y18936D01*
X681394D01*
X683393Y20935D02*
X684393Y21935D01*
X686392D01*
X687392Y20935D01*
Y19936D01*
X686392Y18936D01*
X687392Y17936D01*
Y16937D01*
X686392Y15937D01*
X684393D01*
X683393Y16937D01*
Y17936D01*
X684393Y18936D01*
X683393Y19936D01*
Y20935D01*
X684393Y18936D02*
X686392D01*
X692390Y15937D02*
Y21935D01*
X689391Y18936D01*
X693390D01*
X695389Y15937D02*
Y19936D01*
X696389D01*
X697388Y18936D01*
Y15937D01*
Y18936D01*
X698388Y19936D01*
X699388Y18936D01*
Y15937D01*
X701387D02*
X703386D01*
X702387D01*
Y19936D01*
X701387D01*
X706386Y15937D02*
X708385D01*
X707385D01*
Y21935D01*
X706386D01*
X719381Y15937D02*
X717382Y17936D01*
Y19936D01*
X719381Y21935D01*
X722380Y20935D02*
X723380Y21935D01*
X725379D01*
X726379Y20935D01*
Y19936D01*
X725379Y18936D01*
X724380D01*
X725379D01*
X726379Y17936D01*
Y16937D01*
X725379Y15937D01*
X723380D01*
X722380Y16937D01*
X728378Y15937D02*
Y16937D01*
X729378D01*
Y15937D01*
X728378D01*
X737375D02*
X733377D01*
X737375Y19936D01*
Y20935D01*
X736376Y21935D01*
X734376D01*
X733377Y20935D01*
X739375Y15937D02*
Y19936D01*
X740375D01*
X741374Y18936D01*
Y15937D01*
Y18936D01*
X742374Y19936D01*
X743373Y18936D01*
Y15937D01*
X745373D02*
Y19936D01*
X746373D01*
X747372Y18936D01*
Y15937D01*
Y18936D01*
X748372Y19936D01*
X749372Y18936D01*
Y15937D01*
X751371D02*
X753370Y17936D01*
Y19936D01*
X751371Y21935D01*
X789762Y15937D02*
Y21935D01*
X793761Y15937D01*
Y21935D01*
X795760Y15937D02*
Y21935D01*
X798760D01*
X799759Y20935D01*
Y18936D01*
X798760Y17936D01*
X795760D01*
X801758Y21935D02*
X805757D01*
X803758D01*
Y15937D01*
X807757Y21935D02*
Y15937D01*
Y18936D01*
X811755D01*
Y21935D01*
Y15937D01*
X840150D02*
Y21935D01*
X843149D01*
X844149Y20935D01*
Y18936D01*
X843149Y17936D01*
X840150D01*
X842149D02*
X844149Y15937D01*
X847148D02*
X849147D01*
X850147Y16937D01*
Y18936D01*
X849147Y19936D01*
X847148D01*
X846148Y18936D01*
Y16937D01*
X847148Y15937D01*
X852146Y19936D02*
Y16937D01*
X853146Y15937D01*
X856145D01*
Y19936D01*
X858144Y15937D02*
Y19936D01*
X861143D01*
X862143Y18936D01*
Y15937D01*
X868141Y21935D02*
Y15937D01*
X865142D01*
X864142Y16937D01*
Y18936D01*
X865142Y19936D01*
X868141D01*
X589819Y3937D02*
X585821D01*
X589819Y7936D01*
Y8935D01*
X588820Y9935D01*
X586820D01*
X585821Y8935D01*
X591819D02*
X592818Y9935D01*
X594818D01*
X595817Y8935D01*
Y7936D01*
X594818Y6936D01*
X593818D01*
X594818D01*
X595817Y5936D01*
Y4937D01*
X594818Y3937D01*
X592818D01*
X591819Y4937D01*
X601816Y9935D02*
X599816Y8935D01*
X597817Y6936D01*
Y4937D01*
X598816Y3937D01*
X600816D01*
X601816Y4937D01*
Y5936D01*
X600816Y6936D01*
X597817D01*
X612615Y9935D02*
X616614D01*
X614615D01*
Y3937D01*
X619613D02*
X621613D01*
X622612Y4937D01*
Y6936D01*
X621613Y7936D01*
X619613D01*
X618613Y6936D01*
Y4937D01*
X619613Y3937D01*
X625611Y8935D02*
Y7936D01*
X624612D01*
X626611D01*
X625611D01*
Y4937D01*
X626611Y3937D01*
X630610Y7936D02*
X632609D01*
X633609Y6936D01*
Y3937D01*
X630610D01*
X629610Y4937D01*
X630610Y5936D01*
X633609D01*
X635608Y3937D02*
X637607D01*
X636608D01*
Y9935D01*
X635608D01*
D12*
X163354Y175795D02*
Y179795D01*
X167354D01*
Y175795D01*
X163354D01*
Y135795D02*
Y139795D01*
X167354D01*
Y135795D01*
X163354D01*
X175165D02*
Y139795D01*
X179165D01*
Y135795D01*
X175165D01*
Y175795D02*
Y179795D01*
X179165D01*
Y175795D01*
X175165D01*
X393701Y458630D02*
X391701Y462630D01*
X395701D01*
X393701Y458630D01*
X413386D02*
X414386Y459630D01*
X415386D01*
X414386Y460630D01*
X415386Y461630D01*
X414386D01*
X413386Y462630D01*
X412386Y461630D01*
X411386D01*
X412386Y460630D01*
X411386Y459630D01*
X412386D01*
X413386Y458630D01*
X433071D02*
X431071Y462630D01*
X435071D01*
X433071Y458630D01*
X413386Y438945D02*
X411386Y442945D01*
X415386D01*
X413386Y438945D01*
X423228Y438945D02*
X424228Y439945D01*
X425228D01*
X424228Y440945D01*
X425228Y441945D01*
X424228D01*
X423228Y442945D01*
X422228Y441945D01*
X421228D01*
X422228Y440945D01*
X421228Y439945D01*
X422228D01*
X423228Y438945D01*
X433071D02*
X434071Y439945D01*
X435071D01*
X434071Y440945D01*
X435071Y441945D01*
X434071D01*
X433071Y442945D01*
X432071Y441945D01*
X431071D01*
X432071Y440945D01*
X431071Y439945D01*
X432071D01*
X433071Y438945D01*
X403543D02*
X404543Y439945D01*
X405543D01*
X404543Y440945D01*
X405543Y441945D01*
X404543D01*
X403543Y442945D01*
X402543Y441945D01*
X401543D01*
X402543Y440945D01*
X401543Y439945D01*
X402543D01*
X403543Y438945D01*
X393701D02*
X394701Y439945D01*
X395701D01*
X394701Y440945D01*
X395701Y441945D01*
X394701D01*
X393701Y442945D01*
X392701Y441945D01*
X391701D01*
X392701Y440945D01*
X391701Y439945D01*
X392701D01*
X393701Y438945D01*
X108236Y175795D02*
Y179795D01*
X112236D01*
Y175795D01*
X108236D01*
Y135795D02*
Y139795D01*
X112236D01*
Y135795D01*
X108236D01*
X186976Y175795D02*
Y179795D01*
X190976D01*
Y175795D01*
X186976D01*
Y135795D02*
Y139795D01*
X190976D01*
Y135795D01*
X186976D01*
X96425D02*
Y139795D01*
X100425D01*
Y135795D01*
X96425D01*
Y175795D02*
Y179795D01*
X100425D01*
Y175795D01*
X96425D01*
X84614Y135795D02*
Y139795D01*
X88614D01*
Y135795D01*
X84614D01*
Y175795D02*
Y179795D01*
X88614D01*
Y175795D01*
X84614D01*
X117095Y57055D02*
X118095Y59055D01*
X117095Y61055D01*
X119095Y60055D01*
X121095Y61055D01*
X120095Y59055D01*
X121095Y57055D01*
X119095Y58055D01*
X117095Y57055D01*
X154496D02*
X155496Y59055D01*
X154496Y61055D01*
X156496Y60055D01*
X158496Y61055D01*
X157496Y59055D01*
X158496Y57055D01*
X156496Y58055D01*
X154496Y57055D01*
X135795Y86583D02*
Y90583D01*
X139795D01*
Y86583D01*
X135795D01*
X125953D02*
Y90583D01*
X129953D01*
Y86583D01*
X125953D01*
X145638D02*
Y90583D01*
X149638D01*
Y86583D01*
X145638D01*
Y96425D02*
Y100425D01*
X149638D01*
Y96425D01*
X145638D01*
X125953D02*
Y100425D01*
X129953D01*
Y96425D01*
X125953D01*
X135795D02*
Y100425D01*
X139795D01*
Y96425D01*
X135795D01*
X243094Y164669D02*
Y163669D01*
X245094D01*
Y164669D01*
X246094D01*
Y166669D01*
X245094D01*
Y167669D01*
X243094D01*
Y166669D01*
X242094D01*
Y164669D01*
X243094D01*
Y154669D02*
Y153669D01*
X245094D01*
Y154669D01*
X246094D01*
Y156669D01*
X245094D01*
Y157669D01*
X243094D01*
Y156669D01*
X242094D01*
Y154669D01*
X243094D01*
Y144669D02*
Y143669D01*
X245094D01*
Y144669D01*
X246094D01*
Y146669D01*
X245094D01*
Y147669D01*
X243094D01*
Y146669D01*
X242094D01*
Y144669D01*
X243094D01*
X151795Y161480D02*
Y160480D01*
X153795D01*
Y161480D01*
X154795D01*
Y163480D01*
X153795D01*
Y164480D01*
X151795D01*
Y163480D01*
X150795D01*
Y161480D01*
X151795D01*
Y171480D02*
Y170480D01*
X153795D01*
Y171480D01*
X154795D01*
Y173480D01*
X153795D01*
Y174480D01*
X151795D01*
Y173480D01*
X150795D01*
Y171480D01*
X151795D01*
Y141480D02*
Y140480D01*
X153795D01*
Y141480D01*
X154795D01*
Y143480D01*
X153795D01*
Y144480D01*
X151795D01*
Y143480D01*
X150795D01*
Y141480D01*
X151795D01*
Y151480D02*
Y150480D01*
X153795D01*
Y151480D01*
X154795D01*
Y153480D01*
X153795D01*
Y154480D01*
X151795D01*
Y153480D01*
X150795D01*
Y151480D01*
X151795D01*
X121795Y141480D02*
Y140480D01*
X123795D01*
Y141480D01*
X124795D01*
Y143480D01*
X123795D01*
Y144480D01*
X121795D01*
Y143480D01*
X120795D01*
Y141480D01*
X121795D01*
X121795Y151480D02*
Y150480D01*
X123795D01*
Y151480D01*
X124795D01*
Y153480D01*
X123795D01*
Y154480D01*
X121795D01*
Y153480D01*
X120795D01*
Y151480D01*
X121795D01*
Y161480D02*
Y160480D01*
X123795D01*
Y161480D01*
X124795D01*
Y163480D01*
X123795D01*
Y164480D01*
X121795D01*
Y163480D01*
X120795D01*
Y161480D01*
X121795D01*
X121795Y171480D02*
Y170480D01*
X123795D01*
Y171480D01*
X124795D01*
Y173480D01*
X123795D01*
Y174480D01*
X121795D01*
Y173480D01*
X120795D01*
Y171480D01*
X121795D01*
X289591Y161480D02*
Y160480D01*
X291590D01*
Y161480D01*
X292590D01*
Y163480D01*
X291590D01*
Y164480D01*
X289591D01*
Y163480D01*
X288591D01*
Y161480D01*
X289591D01*
Y171480D02*
Y170480D01*
X291590D01*
Y171480D01*
X292590D01*
Y173480D01*
X291590D01*
Y174480D01*
X289591D01*
Y173480D01*
X288591D01*
Y171480D01*
X289591D01*
Y141480D02*
Y140480D01*
X291590D01*
Y141480D01*
X292590D01*
Y143480D01*
X291590D01*
Y144480D01*
X289591D01*
Y143480D01*
X288591D01*
Y141480D01*
X289591D01*
Y151480D02*
Y150480D01*
X291590D01*
Y151480D01*
X292590D01*
Y153480D01*
X291590D01*
Y154480D01*
X289591D01*
Y153480D01*
X288591D01*
Y151480D01*
X289591D01*
X259591Y141480D02*
Y140480D01*
X261591D01*
Y141480D01*
X262591D01*
Y143480D01*
X261591D01*
Y144480D01*
X259591D01*
Y143480D01*
X258591D01*
Y141480D01*
X259591D01*
Y151480D02*
Y150480D01*
X261591D01*
Y151480D01*
X262591D01*
Y153480D01*
X261591D01*
Y154480D01*
X259591D01*
Y153480D01*
X258591D01*
Y151480D01*
X259591D01*
Y161480D02*
Y160480D01*
X261591D01*
Y161480D01*
X262591D01*
Y163480D01*
X261591D01*
Y164480D01*
X259591D01*
Y163480D01*
X258591D01*
Y161480D01*
X259591D01*
Y171480D02*
Y170480D01*
X261591D01*
Y171480D01*
X262591D01*
Y173480D01*
X261591D01*
Y174480D01*
X259591D01*
Y173480D01*
X258591D01*
Y171480D01*
X259591D01*
X386032Y264535D02*
X387032D01*
X388032Y265535D01*
X389032Y264535D01*
X390032D01*
Y265535D01*
X389032Y266535D01*
X390032Y267535D01*
Y268535D01*
X389032D01*
X388032Y267535D01*
X387032Y268535D01*
X386032D01*
Y267535D01*
X387032Y266535D01*
X386032Y265535D01*
Y264535D01*
X376031D02*
X377031D01*
X378031Y265535D01*
X379031Y264535D01*
X380031D01*
Y265535D01*
X379031Y266535D01*
X380031Y267535D01*
Y268535D01*
X379031D01*
X378031Y267535D01*
X377031Y268535D01*
X376031D01*
Y267535D01*
X377031Y266535D01*
X376031Y265535D01*
Y264535D01*
X346031D02*
X347031D01*
X348031Y265535D01*
X349031Y264535D01*
X350031D01*
Y265535D01*
X349031Y266535D01*
X350031Y267535D01*
Y268535D01*
X349031D01*
X348031Y267535D01*
X347031Y268535D01*
X346031D01*
Y267535D01*
X347031Y266535D01*
X346031Y265535D01*
Y264535D01*
X356031D02*
X357031D01*
X358032Y265535D01*
X359032Y264535D01*
X360032D01*
Y265535D01*
X359032Y266535D01*
X360032Y267535D01*
Y268535D01*
X359032D01*
X358032Y267535D01*
X357031Y268535D01*
X356031D01*
Y267535D01*
X357031Y266535D01*
X356031Y265535D01*
Y264535D01*
X306031D02*
X307031D01*
X308032Y265535D01*
X309032Y264535D01*
X310032D01*
Y265535D01*
X309032Y266535D01*
X310032Y267535D01*
Y268535D01*
X309032D01*
X308032Y267535D01*
X307031Y268535D01*
X306031D01*
Y267535D01*
X307031Y266535D01*
X306031Y265535D01*
Y264535D01*
X316032D02*
X317032D01*
X318032Y265535D01*
X319032Y264535D01*
X320031D01*
Y265535D01*
X319032Y266535D01*
X320031Y267535D01*
Y268535D01*
X319032D01*
X318032Y267535D01*
X317032Y268535D01*
X316032D01*
Y267535D01*
X317032Y266535D01*
X316032Y265535D01*
Y264535D01*
X296031D02*
X297031D01*
X298031Y265535D01*
X299031Y264535D01*
X300031D01*
Y265535D01*
X299031Y266535D01*
X300031Y267535D01*
Y268535D01*
X299031D01*
X298031Y267535D01*
X297031Y268535D01*
X296031D01*
Y267535D01*
X297031Y266535D01*
X296031Y265535D01*
Y264535D01*
X256031D02*
X257031D01*
X258032Y265535D01*
X259032Y264535D01*
X260032D01*
Y265535D01*
X259032Y266535D01*
X260032Y267535D01*
Y268535D01*
X259032D01*
X258032Y267535D01*
X257031Y268535D01*
X256031D01*
Y267535D01*
X257031Y266535D01*
X256031Y265535D01*
Y264535D01*
X246031D02*
X247031D01*
X248031Y265535D01*
X249031Y264535D01*
X250031D01*
Y265535D01*
X249031Y266535D01*
X250031Y267535D01*
Y268535D01*
X249031D01*
X248031Y267535D01*
X247031Y268535D01*
X246031D01*
Y267535D01*
X247031Y266535D01*
X246031Y265535D01*
Y264535D01*
X266032D02*
X267032D01*
X268032Y265535D01*
X269032Y264535D01*
X270031D01*
Y265535D01*
X269032Y266535D01*
X270031Y267535D01*
Y268535D01*
X269032D01*
X268032Y267535D01*
X267032Y268535D01*
X266032D01*
Y267535D01*
X267032Y266535D01*
X266032Y265535D01*
Y264535D01*
X286032D02*
X287032D01*
X288032Y265535D01*
X289032Y264535D01*
X290032D01*
Y265535D01*
X289032Y266535D01*
X290032Y267535D01*
Y268535D01*
X289032D01*
X288032Y267535D01*
X287032Y268535D01*
X286032D01*
Y267535D01*
X287032Y266535D01*
X286032Y265535D01*
Y264535D01*
X276031D02*
X277031D01*
X278031Y265535D01*
X279031Y264535D01*
X280031D01*
Y265535D01*
X279031Y266535D01*
X280031Y267535D01*
Y268535D01*
X279031D01*
X278031Y267535D01*
X277031Y268535D01*
X276031D01*
Y267535D01*
X277031Y266535D01*
X276031Y265535D01*
Y264535D01*
X336032D02*
X337032D01*
X338032Y265535D01*
X339032Y264535D01*
X340032D01*
Y265535D01*
X339032Y266535D01*
X340032Y267535D01*
Y268535D01*
X339032D01*
X338032Y267535D01*
X337032Y268535D01*
X336032D01*
Y267535D01*
X337032Y266535D01*
X336032Y265535D01*
Y264535D01*
X326031D02*
X327031D01*
X328031Y265535D01*
X329031Y264535D01*
X330031D01*
Y265535D01*
X329031Y266535D01*
X330031Y267535D01*
Y268535D01*
X329031D01*
X328031Y267535D01*
X327031Y268535D01*
X326031D01*
Y267535D01*
X327031Y266535D01*
X326031Y265535D01*
Y264535D01*
X366032D02*
X367032D01*
X368032Y265535D01*
X369032Y264535D01*
X370031D01*
Y265535D01*
X369032Y266535D01*
X370031Y267535D01*
Y268535D01*
X369032D01*
X368032Y267535D01*
X367032Y268535D01*
X366032D01*
Y267535D01*
X367032Y266535D01*
X366032Y265535D01*
Y264535D01*
X387032Y215535D02*
Y214535D01*
X389032D01*
Y215535D01*
X390032D01*
Y217535D01*
X389032D01*
Y218535D01*
X387032D01*
Y217535D01*
X386032D01*
Y215535D01*
X387032D01*
X377031D02*
Y214535D01*
X379031D01*
Y215535D01*
X380031D01*
Y217535D01*
X379031D01*
Y218535D01*
X377031D01*
Y217535D01*
X376031D01*
Y215535D01*
X377031D01*
X347031D02*
Y214535D01*
X349031D01*
Y215535D01*
X350031D01*
Y217535D01*
X349031D01*
Y218535D01*
X347031D01*
Y217535D01*
X346031D01*
Y215535D01*
X347031D01*
X357031D02*
Y214535D01*
X359032D01*
Y215535D01*
X360032D01*
Y217535D01*
X359032D01*
Y218535D01*
X357031D01*
Y217535D01*
X356031D01*
Y215535D01*
X357031D01*
X307031D02*
Y214535D01*
X309032D01*
Y215535D01*
X310032D01*
Y217535D01*
X309032D01*
Y218535D01*
X307031D01*
Y217535D01*
X306031D01*
Y215535D01*
X307031D01*
X317032D02*
Y214535D01*
X319032D01*
Y215535D01*
X320031D01*
Y217535D01*
X319032D01*
Y218535D01*
X317032D01*
Y217535D01*
X316032D01*
Y215535D01*
X317032D01*
X297031D02*
Y214535D01*
X299031D01*
Y215535D01*
X300031D01*
Y217535D01*
X299031D01*
Y218535D01*
X297031D01*
Y217535D01*
X296031D01*
Y215535D01*
X297031D01*
X257031D02*
Y214535D01*
X259032D01*
Y215535D01*
X260032D01*
Y217535D01*
X259032D01*
Y218535D01*
X257031D01*
Y217535D01*
X256031D01*
Y215535D01*
X257031D01*
X247031D02*
Y214535D01*
X249031D01*
Y215535D01*
X250031D01*
Y217535D01*
X249031D01*
Y218535D01*
X247031D01*
Y217535D01*
X246031D01*
Y215535D01*
X247031D01*
X267032D02*
Y214535D01*
X269032D01*
Y215535D01*
X270031D01*
Y217535D01*
X269032D01*
Y218535D01*
X267032D01*
Y217535D01*
X266032D01*
Y215535D01*
X267032D01*
X287032D02*
Y214535D01*
X289032D01*
Y215535D01*
X290032D01*
Y217535D01*
X289032D01*
Y218535D01*
X287032D01*
Y217535D01*
X286032D01*
Y215535D01*
X287032D01*
X277031D02*
Y214535D01*
X279031D01*
Y215535D01*
X280031D01*
Y217535D01*
X279031D01*
Y218535D01*
X277031D01*
Y217535D01*
X276031D01*
Y215535D01*
X277031D01*
X337032D02*
Y214535D01*
X339032D01*
Y215535D01*
X340032D01*
Y217535D01*
X339032D01*
Y218535D01*
X337032D01*
Y217535D01*
X336032D01*
Y215535D01*
X337032D01*
X327031D02*
Y214535D01*
X329031D01*
Y215535D01*
X330031D01*
Y217535D01*
X329031D01*
Y218535D01*
X327031D01*
Y217535D01*
X326031D01*
Y215535D01*
X327031D01*
X367032D02*
Y214535D01*
X369032D01*
Y215535D01*
X370031D01*
Y217535D01*
X369032D01*
Y218535D01*
X367032D01*
Y217535D01*
X366032D01*
Y215535D01*
X367032D01*
X406032Y264535D02*
X407031D01*
X408032Y265535D01*
X409031Y264535D01*
X410032D01*
Y265535D01*
X409031Y266535D01*
X410032Y267535D01*
Y268535D01*
X409031D01*
X408032Y267535D01*
X407031Y268535D01*
X406032D01*
Y267535D01*
X407031Y266535D01*
X406032Y265535D01*
Y264535D01*
X396031Y264535D02*
X397031D01*
X398031Y265535D01*
X399031Y264535D01*
X400032D01*
Y265535D01*
X399031Y266535D01*
X400032Y267535D01*
Y268535D01*
X399031D01*
X398031Y267535D01*
X397031Y268535D01*
X396031D01*
Y267535D01*
X397031Y266535D01*
X396031Y265535D01*
Y264535D01*
X406032Y214535D02*
X407031D01*
X408032Y215535D01*
X409031Y214535D01*
X410032D01*
Y215535D01*
X409031Y216535D01*
X410032Y217535D01*
Y218535D01*
X409031D01*
X408032Y217535D01*
X407031Y218535D01*
X406032D01*
Y217535D01*
X407031Y216535D01*
X406032Y215535D01*
Y214535D01*
X396031D02*
X397031D01*
X398031Y215535D01*
X399031Y214535D01*
X400032D01*
Y215535D01*
X399031Y216535D01*
X400032Y217535D01*
Y218535D01*
X399031D01*
X398031Y217535D01*
X397031Y218535D01*
X396031D01*
Y217535D01*
X397031Y216535D01*
X396031Y215535D01*
Y214535D01*
X263748Y84614D02*
Y88614D01*
X267748D01*
Y84614D01*
X263748D01*
X253906D02*
Y88614D01*
X257906D01*
Y84614D01*
X253906D01*
X244063D02*
Y88614D01*
X248063D01*
Y84614D01*
X244063D01*
X271228Y59055D02*
X273228Y61055D01*
X275228Y59055D01*
X273228Y57055D01*
X271228Y59055D01*
X236583D02*
X238583Y61055D01*
X240583Y59055D01*
X238583Y57055D01*
X236583Y59055D01*
X381858Y84614D02*
Y88614D01*
X385858D01*
Y84614D01*
X381858D01*
X372016D02*
Y88614D01*
X376016D01*
Y84614D01*
X372016D01*
X362173D02*
Y88614D01*
X366173D01*
Y84614D01*
X362173D01*
X389339Y59055D02*
X391339Y61055D01*
X393339Y59055D01*
X391339Y57055D01*
X389339Y59055D01*
X354693D02*
X356693Y61055D01*
X358693Y59055D01*
X356693Y57055D01*
X354693Y59055D01*
X68866Y423197D02*
Y427197D01*
X72866D01*
Y423197D01*
X68866D01*
X69666Y423997D02*
Y426397D01*
X72066D01*
Y423997D01*
X69666D01*
X88866Y423197D02*
Y427197D01*
X92866D01*
Y423197D01*
X88866D01*
X89666Y423997D02*
Y426397D01*
X92066D01*
Y423997D01*
X89666D01*
X108866Y423197D02*
Y427197D01*
X112866D01*
Y423197D01*
X108866D01*
X109666Y423997D02*
Y426397D01*
X112066D01*
Y423997D01*
X109666D01*
X128866Y423197D02*
Y427197D01*
X132866D01*
Y423197D01*
X128866D01*
X129666Y423997D02*
Y426397D01*
X132066D01*
Y423997D01*
X129666D01*
X148866Y423197D02*
Y427197D01*
X152866D01*
Y423197D01*
X148866D01*
X149666Y423997D02*
Y426397D01*
X152066D01*
Y423997D01*
X149666D01*
X168866Y423197D02*
Y427197D01*
X172866D01*
Y423197D01*
X168866D01*
X169666Y423997D02*
Y426397D01*
X172066D01*
Y423997D01*
X169666D01*
X45244Y379890D02*
Y383890D01*
X49244D01*
Y379890D01*
X45244D01*
X46044Y380690D02*
Y383090D01*
X48444D01*
Y380690D01*
X46044D01*
X45244Y399890D02*
Y403890D01*
X49244D01*
Y399890D01*
X45244D01*
X46044Y400690D02*
Y403090D01*
X48444D01*
Y400690D01*
X46044D01*
X431071Y234221D02*
Y238221D01*
X435071D01*
Y234221D01*
X431071D01*
X431871Y235020D02*
Y237421D01*
X434271D01*
Y235020D01*
X431871D01*
X431071Y214220D02*
Y218220D01*
X435071D01*
Y214220D01*
X431071D01*
X431871Y215020D02*
Y217421D01*
X434271D01*
Y215020D01*
X431871D01*
X168291Y336835D02*
Y335835D01*
X170291D01*
Y336835D01*
X171291D01*
Y338835D01*
X170291D01*
Y339835D01*
X168291D01*
Y338835D01*
X167291D01*
Y336835D01*
X168291D01*
X158291D02*
Y335835D01*
X160291D01*
Y336835D01*
X161291D01*
Y338835D01*
X160291D01*
Y339835D01*
X158291D01*
Y338835D01*
X157291D01*
Y336835D01*
X158291D01*
X178291D02*
Y335835D01*
X180291D01*
Y336835D01*
X181291D01*
Y338835D01*
X180291D01*
Y339835D01*
X178291D01*
Y338835D01*
X177291D01*
Y336835D01*
X178291D01*
Y306835D02*
Y305835D01*
X180291D01*
Y306835D01*
X181291D01*
Y308835D01*
X180291D01*
Y309835D01*
X178291D01*
Y308835D01*
X177291D01*
Y306835D01*
X178291D01*
X168291D02*
Y305835D01*
X170291D01*
Y306835D01*
X171291D01*
Y308835D01*
X170291D01*
Y309835D01*
X168291D01*
Y308835D01*
X167291D01*
Y306835D01*
X168291D01*
X158291D02*
Y305835D01*
X160291D01*
Y306835D01*
X161291D01*
Y308835D01*
X160291D01*
Y309835D01*
X158291D01*
Y308835D01*
X157291D01*
Y306835D01*
X158291D01*
X199102Y379890D02*
Y383890D01*
X203102D01*
Y379890D01*
X199102D01*
X189102D02*
Y383890D01*
X193102D01*
Y379890D01*
X189102D01*
X179102D02*
Y383890D01*
X183102D01*
Y379890D01*
X179102D01*
X85614Y235968D02*
Y234968D01*
X87614D01*
Y235968D01*
X88614D01*
Y237968D01*
X87614D01*
Y238968D01*
X85614D01*
Y237968D01*
X84614D01*
Y235968D01*
X85614D01*
X95614D02*
Y234968D01*
X97614D01*
Y235968D01*
X98614D01*
Y237968D01*
X97614D01*
Y238968D01*
X95614D01*
Y237968D01*
X94614D01*
Y235968D01*
X95614D01*
X75614D02*
Y234968D01*
X77614D01*
Y235968D01*
X78614D01*
Y237968D01*
X77614D01*
Y238968D01*
X75614D01*
Y237968D01*
X74614D01*
Y235968D01*
X75614D01*
Y265968D02*
Y264968D01*
X77614D01*
Y265968D01*
X78614D01*
Y267969D01*
X77614D01*
Y268969D01*
X75614D01*
Y267969D01*
X74614D01*
Y265968D01*
X75614D01*
X85614D02*
Y264968D01*
X87614D01*
Y265968D01*
X88614D01*
Y267969D01*
X87614D01*
Y268969D01*
X85614D01*
Y267969D01*
X84614D01*
Y265968D01*
X85614D01*
X95614D02*
Y264968D01*
X97614D01*
Y265968D01*
X98614D01*
Y267969D01*
X97614D01*
Y268969D01*
X95614D01*
Y267969D01*
X94614D01*
Y265968D01*
X95614D01*
X147606Y355638D02*
Y359638D01*
X151606D01*
Y355638D01*
X147606D01*
Y395638D02*
Y399638D01*
X151606D01*
Y395638D01*
X147606D01*
X147606Y245402D02*
Y249402D01*
X151606D01*
Y245402D01*
X147606D01*
Y285402D02*
Y289402D01*
X151606D01*
Y285402D01*
X147606D01*
X46244Y235968D02*
Y234968D01*
X48244D01*
Y235968D01*
X49244D01*
Y237968D01*
X48244D01*
Y238968D01*
X46244D01*
Y237968D01*
X45244D01*
Y235968D01*
X46244D01*
X56244D02*
Y234968D01*
X58244D01*
Y235968D01*
X59244D01*
Y237968D01*
X58244D01*
Y238968D01*
X56244D01*
Y237968D01*
X55244D01*
Y235968D01*
X56244D01*
X36244D02*
Y234968D01*
X38244D01*
Y235968D01*
X39244D01*
Y237968D01*
X38244D01*
Y238968D01*
X36244D01*
Y237968D01*
X35244D01*
Y235968D01*
X36244D01*
Y265968D02*
Y264968D01*
X38244D01*
Y265968D01*
X39244D01*
Y267969D01*
X38244D01*
Y268969D01*
X36244D01*
Y267969D01*
X35244D01*
Y265968D01*
X36244D01*
X46244D02*
Y264968D01*
X48244D01*
Y265968D01*
X49244D01*
Y267969D01*
X48244D01*
Y268969D01*
X46244D01*
Y267969D01*
X45244D01*
Y265968D01*
X46244D01*
X56244D02*
Y264968D01*
X58244D01*
Y265968D01*
X59244D01*
Y267969D01*
X58244D01*
Y268969D01*
X56244D01*
Y267969D01*
X55244D01*
Y265968D01*
X56244D01*
X128921Y336835D02*
Y335835D01*
X130921D01*
Y336835D01*
X131921D01*
Y338835D01*
X130921D01*
Y339835D01*
X128921D01*
Y338835D01*
X127921D01*
Y336835D01*
X128921D01*
X118921D02*
Y335835D01*
X120921D01*
Y336835D01*
X121921D01*
Y338835D01*
X120921D01*
Y339835D01*
X118921D01*
Y338835D01*
X117921D01*
Y336835D01*
X118921D01*
X138921D02*
Y335835D01*
X140921D01*
Y336835D01*
X141921D01*
Y338835D01*
X140921D01*
Y339835D01*
X138921D01*
Y338835D01*
X137921D01*
Y336835D01*
X138921D01*
Y306835D02*
Y305835D01*
X140921D01*
Y306835D01*
X141921D01*
Y308835D01*
X140921D01*
Y309835D01*
X138921D01*
Y308835D01*
X137921D01*
Y306835D01*
X138921D01*
X128921D02*
Y305835D01*
X130921D01*
Y306835D01*
X131921D01*
Y308835D01*
X130921D01*
Y309835D01*
X128921D01*
Y308835D01*
X127921D01*
Y306835D01*
X128921D01*
X118921D02*
Y305835D01*
X120921D01*
Y306835D01*
X121921D01*
Y308835D01*
X120921D01*
Y309835D01*
X118921D01*
Y308835D01*
X117921D01*
Y306835D01*
X118921D01*
X37370Y282646D02*
Y286646D01*
X41370D01*
Y282646D01*
X37370D01*
Y332646D02*
Y336646D01*
X41370D01*
Y332646D01*
X37370D01*
X60992Y332646D02*
Y336646D01*
X64992D01*
Y332646D01*
X60992D01*
Y282646D02*
Y286646D01*
X64992D01*
Y282646D01*
X60992D01*
X84614D02*
Y286646D01*
X88614D01*
Y282646D01*
X84614D01*
X84614Y332646D02*
Y336646D01*
X88614D01*
Y332646D01*
X84614D01*
X64299Y222409D02*
Y226409D01*
X68299D01*
Y222409D01*
X64299D01*
X104299D02*
Y226409D01*
X108299D01*
Y222409D01*
X104299D01*
X116425Y379890D02*
Y383890D01*
X120425D01*
Y379890D01*
X116425D01*
X106425D02*
Y383890D01*
X110425D01*
Y379890D01*
X106425D01*
X96425D02*
Y383890D01*
X100425D01*
Y379890D01*
X96425D01*
X64929Y355638D02*
Y359638D01*
X68929D01*
Y355638D01*
X64929D01*
Y395638D02*
Y399638D01*
X68929D01*
Y395638D01*
X64929D01*
X131858Y245402D02*
Y249402D01*
X135858D01*
Y245402D01*
X131858D01*
Y285402D02*
Y289402D01*
X135858D01*
Y285402D01*
X131858D01*
X334646Y458630D02*
X332646Y462630D01*
X336646D01*
X334646Y458630D01*
X354331D02*
X355331Y459630D01*
X356331D01*
X355331Y460630D01*
X356331Y461630D01*
X355331D01*
X354331Y462630D01*
X353331Y461630D01*
X352331D01*
X353331Y460630D01*
X352331Y459630D01*
X353331D01*
X354331Y458630D01*
X374016D02*
X372016Y462630D01*
X376016D01*
X374016Y458630D01*
X354331Y438945D02*
X352331Y442945D01*
X356331D01*
X354331Y438945D01*
X364173Y438945D02*
X365173Y439945D01*
X366173D01*
X365173Y440945D01*
X366173Y441945D01*
X365173D01*
X364173Y442945D01*
X363173Y441945D01*
X362173D01*
X363173Y440945D01*
X362173Y439945D01*
X363173D01*
X364173Y438945D01*
X374016D02*
X375016Y439945D01*
X376016D01*
X375016Y440945D01*
X376016Y441945D01*
X375016D01*
X374016Y442945D01*
X373016Y441945D01*
X372016D01*
X373016Y440945D01*
X372016Y439945D01*
X373016D01*
X374016Y438945D01*
X344488D02*
X345488Y439945D01*
X346488D01*
X345488Y440945D01*
X346488Y441945D01*
X345488D01*
X344488Y442945D01*
X343488Y441945D01*
X342488D01*
X343488Y440945D01*
X342488Y439945D01*
X343488D01*
X344488Y438945D01*
X334646D02*
X335646Y439945D01*
X336646D01*
X335646Y440945D01*
X336646Y441945D01*
X335646D01*
X334646Y442945D01*
X333646Y441945D01*
X332646D01*
X333646Y440945D01*
X332646Y439945D01*
X333646D01*
X334646Y438945D01*
X358032Y180047D02*
X356031Y184047D01*
X360032D01*
X358032Y180047D01*
Y180847D02*
X356832Y183247D01*
X359231D01*
X358032Y180847D01*
X368032Y179969D02*
X366032Y183968D01*
X370031D01*
X368032Y179969D01*
Y180769D02*
X366831Y183168D01*
X369232D01*
X368032Y180769D01*
X122795Y206622D02*
X120795Y210622D01*
X124795D01*
X122795Y206622D01*
Y207422D02*
X121595Y209822D01*
X123995D01*
X122795Y207422D01*
X238976Y185795D02*
X236976Y189795D01*
X240976D01*
X238976Y185795D01*
Y186595D02*
X237776Y188995D01*
X240176D01*
X238976Y186595D01*
X222835Y165323D02*
X220835Y169323D01*
X224835D01*
X222835Y165323D01*
Y166123D02*
X221635Y168523D01*
X224035D01*
X222835Y166123D01*
X200787Y196425D02*
X198787Y200425D01*
X202787D01*
X200787Y196425D01*
Y197225D02*
X199587Y199625D01*
X201987D01*
X200787Y197225D01*
X210630Y196031D02*
X208630Y200031D01*
X212630D01*
X210630Y196031D01*
Y196832D02*
X209430Y199232D01*
X211830D01*
X210630Y196832D01*
Y254299D02*
X208630Y258299D01*
X212630D01*
X210630Y254299D01*
Y255099D02*
X209430Y257499D01*
X211830D01*
X210630Y255099D01*
X200787Y254693D02*
X198787Y258693D01*
X202787D01*
X200787Y254693D01*
Y255493D02*
X199587Y257893D01*
X201987D01*
X200787Y255493D01*
X271654Y438945D02*
X272654Y439945D01*
X273654D01*
X272654Y440945D01*
X273654Y441945D01*
X272654D01*
X271654Y442945D01*
X270654Y441945D01*
X269654D01*
X270654Y440945D01*
X269654Y439945D01*
X270654D01*
X271654Y438945D01*
Y439745D02*
X272253Y440345D01*
X272853D01*
X272253Y440945D01*
X272853Y441545D01*
X272253D01*
X271654Y442145D01*
X271054Y441545D01*
X270454D01*
X271054Y440945D01*
X270454Y440345D01*
X271054D01*
X271654Y439745D01*
X303150Y438945D02*
X304150Y439945D01*
X305150D01*
X304150Y440945D01*
X305150Y441945D01*
X304150D01*
X303150Y442945D01*
X302150Y441945D01*
X301150D01*
X302150Y440945D01*
X301150Y439945D01*
X302150D01*
X303150Y438945D01*
Y439745D02*
X303750Y440345D01*
X304350D01*
X303750Y440945D01*
X304350Y441545D01*
X303750D01*
X303150Y442145D01*
X302550Y441545D01*
X301950D01*
X302550Y440945D01*
X301950Y440345D01*
X302550D01*
X303150Y439745D01*
X208661Y301150D02*
X209661Y302150D01*
X210661D01*
X209661Y303150D01*
X210661Y304150D01*
X209661D01*
X208661Y305150D01*
X207661Y304150D01*
X206661D01*
X207661Y303150D01*
X206661Y302150D01*
X207661D01*
X208661Y301150D01*
Y301950D02*
X209261Y302550D01*
X209861D01*
X209261Y303150D01*
X209861Y303750D01*
X209261D01*
X208661Y304350D01*
X208061Y303750D01*
X207461D01*
X208061Y303150D01*
X207461Y302550D01*
X208061D01*
X208661Y301950D01*
X185039Y281465D02*
X186039Y282465D01*
X187039D01*
X186039Y283465D01*
X187039Y284465D01*
X186039D01*
X185039Y285465D01*
X184039Y284465D01*
X183039D01*
X184039Y283465D01*
X183039Y282465D01*
X184039D01*
X185039Y281465D01*
Y282265D02*
X185639Y282865D01*
X186239D01*
X185639Y283465D01*
X186239Y284065D01*
X185639D01*
X185039Y284665D01*
X184439Y284065D01*
X183839D01*
X184439Y283465D01*
X183839Y282865D01*
X184439D01*
X185039Y282265D01*
X165354Y265717D02*
X166354Y266717D01*
X167354D01*
X166354Y267717D01*
X167354Y268717D01*
X166354D01*
X165354Y269717D01*
X164354Y268717D01*
X163354D01*
X164354Y267717D01*
X163354Y266717D01*
X164354D01*
X165354Y265717D01*
Y266516D02*
X165954Y267116D01*
X166554D01*
X165954Y267717D01*
X166554Y268317D01*
X165954D01*
X165354Y268917D01*
X164754Y268317D01*
X164154D01*
X164754Y267717D01*
X164154Y267116D01*
X164754D01*
X165354Y266516D01*
X444882Y379890D02*
X445882Y380890D01*
X446882D01*
X445882Y381890D01*
X446882Y382890D01*
X445882D01*
X444882Y383890D01*
X443882Y382890D01*
X442882D01*
X443882Y381890D01*
X442882Y380890D01*
X443882D01*
X444882Y379890D01*
Y380690D02*
X445482Y381290D01*
X446082D01*
X445482Y381890D01*
X446082Y382490D01*
X445482D01*
X444882Y383090D01*
X444282Y382490D01*
X443682D01*
X444282Y381890D01*
X443682Y381290D01*
X444282D01*
X444882Y380690D01*
X421260Y324772D02*
X422260Y325772D01*
X423260D01*
X422260Y326772D01*
X423260Y327772D01*
X422260D01*
X421260Y328772D01*
X420260Y327772D01*
X419260D01*
X420260Y326772D01*
X419260Y325772D01*
X420260D01*
X421260Y324772D01*
Y325572D02*
X421860Y326172D01*
X422460D01*
X421860Y326772D01*
X422460Y327372D01*
X421860D01*
X421260Y327972D01*
X420660Y327372D01*
X420060D01*
X420660Y326772D01*
X420060Y326172D01*
X420660D01*
X421260Y325572D01*
X362205Y289339D02*
X363205Y290339D01*
X364205D01*
X363205Y291339D01*
X364205Y292339D01*
X363205D01*
X362205Y293339D01*
X361205Y292339D01*
X360205D01*
X361205Y291339D01*
X360205Y290339D01*
X361205D01*
X362205Y289339D01*
Y290139D02*
X362805Y290739D01*
X363405D01*
X362805Y291339D01*
X363405Y291939D01*
X362805D01*
X362205Y292539D01*
X361605Y291939D01*
X361005D01*
X361605Y291339D01*
X361005Y290739D01*
X361605D01*
X362205Y290139D01*
X393701Y238158D02*
X394701Y239158D01*
X395701D01*
X394701Y240158D01*
X395701Y241158D01*
X394701D01*
X393701Y242158D01*
X392701Y241158D01*
X391701D01*
X392701Y240158D01*
X391701Y239158D01*
X392701D01*
X393701Y238158D01*
Y238958D02*
X394301Y239558D01*
X394901D01*
X394301Y240158D01*
X394901Y240757D01*
X394301D01*
X393701Y241357D01*
X393101Y240757D01*
X392501D01*
X393101Y240158D01*
X392501Y239558D01*
X393101D01*
X393701Y238958D01*
X366142Y238158D02*
X367142Y239158D01*
X368142D01*
X367142Y240158D01*
X368142Y241158D01*
X367142D01*
X366142Y242158D01*
X365142Y241158D01*
X364142D01*
X365142Y240158D01*
X364142Y239158D01*
X365142D01*
X366142Y238158D01*
Y238958D02*
X366742Y239558D01*
X367342D01*
X366742Y240158D01*
X367342Y240757D01*
X366742D01*
X366142Y241357D01*
X365542Y240757D01*
X364942D01*
X365542Y240158D01*
X364942Y239558D01*
X365542D01*
X366142Y238958D01*
X456693Y222410D02*
X457693Y223410D01*
X458693D01*
X457693Y224410D01*
X458693Y225410D01*
X457693D01*
X456693Y226410D01*
X455693Y225410D01*
X454693D01*
X455693Y224410D01*
X454693Y223410D01*
X455693D01*
X456693Y222410D01*
Y223210D02*
X457293Y223810D01*
X457893D01*
X457293Y224410D01*
X457893Y225009D01*
X457293D01*
X456693Y225609D01*
X456093Y225009D01*
X455493D01*
X456093Y224410D01*
X455493Y223810D01*
X456093D01*
X456693Y223210D01*
X452756Y269654D02*
X453756Y270654D01*
X454756D01*
X453756Y271654D01*
X454756Y272654D01*
X453756D01*
X452756Y273654D01*
X451756Y272654D01*
X450756D01*
X451756Y271654D01*
X450756Y270654D01*
X451756D01*
X452756Y269654D01*
Y270454D02*
X453356Y271054D01*
X453956D01*
X453356Y271654D01*
X453956Y272253D01*
X453356D01*
X452756Y272853D01*
X452156Y272253D01*
X451556D01*
X452156Y271654D01*
X451556Y271054D01*
X452156D01*
X452756Y270454D01*
X118110Y234221D02*
X119110Y235221D01*
X120110D01*
X119110Y236221D01*
X120110Y237221D01*
X119110D01*
X118110Y238221D01*
X117110Y237221D01*
X116110D01*
X117110Y236221D01*
X116110Y235221D01*
X117110D01*
X118110Y234221D01*
Y235020D02*
X118710Y235620D01*
X119310D01*
X118710Y236221D01*
X119310Y236821D01*
X118710D01*
X118110Y237421D01*
X117510Y236821D01*
X116910D01*
X117510Y236221D01*
X116910Y235620D01*
X117510D01*
X118110Y235020D01*
X51181Y186976D02*
X52181Y187976D01*
X53181D01*
X52181Y188976D01*
X53181Y189976D01*
X52181D01*
X51181Y190976D01*
X50181Y189976D01*
X49181D01*
X50181Y188976D01*
X49181Y187976D01*
X50181D01*
X51181Y186976D01*
Y187776D02*
X51781Y188376D01*
X52381D01*
X51781Y188976D01*
X52381Y189576D01*
X51781D01*
X51181Y190176D01*
X50581Y189576D01*
X49981D01*
X50581Y188976D01*
X49981Y188376D01*
X50581D01*
X51181Y187776D01*
Y151543D02*
X52181Y152543D01*
X53181D01*
X52181Y153543D01*
X53181Y154543D01*
X52181D01*
X51181Y155543D01*
X50181Y154543D01*
X49181D01*
X50181Y153543D01*
X49181Y152543D01*
X50181D01*
X51181Y151543D01*
Y152343D02*
X51781Y152943D01*
X52381D01*
X51781Y153543D01*
X52381Y154143D01*
X51781D01*
X51181Y154743D01*
X50581Y154143D01*
X49981D01*
X50581Y153543D01*
X49981Y152943D01*
X50581D01*
X51181Y152343D01*
Y116110D02*
X52181Y117110D01*
X53181D01*
X52181Y118110D01*
X53181Y119110D01*
X52181D01*
X51181Y120110D01*
X50181Y119110D01*
X49181D01*
X50181Y118110D01*
X49181Y117110D01*
X50181D01*
X51181Y116110D01*
Y116910D02*
X51781Y117510D01*
X52381D01*
X51781Y118110D01*
X52381Y118710D01*
X51781D01*
X51181Y119310D01*
X50581Y118710D01*
X49981D01*
X50581Y118110D01*
X49981Y117510D01*
X50581D01*
X51181Y116910D01*
X137795Y167291D02*
X138795Y168291D01*
X139795D01*
X138795Y169291D01*
X139795Y170291D01*
X138795D01*
X137795Y171291D01*
X136795Y170291D01*
X135795D01*
X136795Y169291D01*
X135795Y168291D01*
X136795D01*
X137795Y167291D01*
Y168091D02*
X138395Y168691D01*
X138995D01*
X138395Y169291D01*
X138995Y169891D01*
X138395D01*
X137795Y170491D01*
X137195Y169891D01*
X136595D01*
X137195Y169291D01*
X136595Y168691D01*
X137195D01*
X137795Y168091D01*
Y155480D02*
X138795Y156480D01*
X139795D01*
X138795Y157480D01*
X139795Y158480D01*
X138795D01*
X137795Y159480D01*
X136795Y158480D01*
X135795D01*
X136795Y157480D01*
X135795Y156480D01*
X136795D01*
X137795Y155480D01*
Y156280D02*
X138395Y156880D01*
X138995D01*
X138395Y157480D01*
X138995Y158080D01*
X138395D01*
X137795Y158680D01*
X137195Y158080D01*
X136595D01*
X137195Y157480D01*
X136595Y156880D01*
X137195D01*
X137795Y156280D01*
Y143669D02*
X138795Y144669D01*
X139795D01*
X138795Y145669D01*
X139795Y146669D01*
X138795D01*
X137795Y147669D01*
X136795Y146669D01*
X135795D01*
X136795Y145669D01*
X135795Y144669D01*
X136795D01*
X137795Y143669D01*
Y144469D02*
X138395Y145069D01*
X138995D01*
X138395Y145669D01*
X138995Y146269D01*
X138395D01*
X137795Y146869D01*
X137195Y146269D01*
X136595D01*
X137195Y145669D01*
X136595Y145069D01*
X137195D01*
X137795Y144469D01*
X275590Y167291D02*
X276590Y168291D01*
X277590D01*
X276590Y169291D01*
X277590Y170291D01*
X276590D01*
X275590Y171291D01*
X274590Y170291D01*
X273590D01*
X274590Y169291D01*
X273590Y168291D01*
X274590D01*
X275590Y167291D01*
Y168091D02*
X276190Y168691D01*
X276790D01*
X276190Y169291D01*
X276790Y169891D01*
X276190D01*
X275590Y170491D01*
X274991Y169891D01*
X274391D01*
X274991Y169291D01*
X274391Y168691D01*
X274991D01*
X275590Y168091D01*
Y155480D02*
X276590Y156480D01*
X277590D01*
X276590Y157480D01*
X277590Y158480D01*
X276590D01*
X275590Y159480D01*
X274590Y158480D01*
X273590D01*
X274590Y157480D01*
X273590Y156480D01*
X274590D01*
X275590Y155480D01*
Y156280D02*
X276190Y156880D01*
X276790D01*
X276190Y157480D01*
X276790Y158080D01*
X276190D01*
X275590Y158680D01*
X274991Y158080D01*
X274391D01*
X274991Y157480D01*
X274391Y156880D01*
X274991D01*
X275590Y156280D01*
Y143669D02*
X276590Y144669D01*
X277590D01*
X276590Y145669D01*
X277590Y146669D01*
X276590D01*
X275590Y147669D01*
X274590Y146669D01*
X273590D01*
X274590Y145669D01*
X273590Y144669D01*
X274590D01*
X275590Y143669D01*
Y144469D02*
X276190Y145069D01*
X276790D01*
X276190Y145669D01*
X276790Y146269D01*
X276190D01*
X275590Y146869D01*
X274991Y146269D01*
X274391D01*
X274991Y145669D01*
X274391Y145069D01*
X274991D01*
X275590Y144469D01*
X240158Y120047D02*
X241158Y121047D01*
X242158D01*
X241158Y122047D01*
X242158Y123047D01*
X241158D01*
X240158Y124047D01*
X239158Y123047D01*
X238158D01*
X239158Y122047D01*
X238158Y121047D01*
X239158D01*
X240158Y120047D01*
Y120847D02*
X240757Y121447D01*
X241357D01*
X240757Y122047D01*
X241357Y122647D01*
X240757D01*
X240158Y123247D01*
X239558Y122647D01*
X238958D01*
X239558Y122047D01*
X238958Y121447D01*
X239558D01*
X240158Y120847D01*
X322835Y159417D02*
X323835Y160417D01*
X324835D01*
X323835Y161417D01*
X324835Y162417D01*
X323835D01*
X322835Y163417D01*
X321835Y162417D01*
X320835D01*
X321835Y161417D01*
X320835Y160417D01*
X321835D01*
X322835Y159417D01*
Y160217D02*
X323435Y160817D01*
X324035D01*
X323435Y161417D01*
X324035Y162017D01*
X323435D01*
X322835Y162617D01*
X322235Y162017D01*
X321635D01*
X322235Y161417D01*
X321635Y160817D01*
X322235D01*
X322835Y160217D01*
Y120047D02*
X323835Y121047D01*
X324835D01*
X323835Y122047D01*
X324835Y123047D01*
X323835D01*
X322835Y124047D01*
X321835Y123047D01*
X320835D01*
X321835Y122047D01*
X320835Y121047D01*
X321835D01*
X322835Y120047D01*
Y120847D02*
X323435Y121447D01*
X324035D01*
X323435Y122047D01*
X324035Y122647D01*
X323435D01*
X322835Y123247D01*
X322235Y122647D01*
X321635D01*
X322235Y122047D01*
X321635Y121447D01*
X322235D01*
X322835Y120847D01*
X283465Y120047D02*
X284465Y121047D01*
X285465D01*
X284465Y122047D01*
X285465Y123047D01*
X284465D01*
X283465Y124047D01*
X282465Y123047D01*
X281465D01*
X282465Y122047D01*
X281465Y121047D01*
X282465D01*
X283465Y120047D01*
Y120847D02*
X284065Y121447D01*
X284665D01*
X284065Y122047D01*
X284665Y122647D01*
X284065D01*
X283465Y123247D01*
X282865Y122647D01*
X282265D01*
X282865Y122047D01*
X282265Y121447D01*
X282865D01*
X283465Y120847D01*
X393701Y155480D02*
X394701Y156480D01*
X395701D01*
X394701Y157480D01*
X395701Y158480D01*
X394701D01*
X393701Y159480D01*
X392701Y158480D01*
X391701D01*
X392701Y157480D01*
X391701Y156480D01*
X392701D01*
X393701Y155480D01*
Y156280D02*
X394301Y156880D01*
X394901D01*
X394301Y157480D01*
X394901Y158080D01*
X394301D01*
X393701Y158680D01*
X393101Y158080D01*
X392501D01*
X393101Y157480D01*
X392501Y156880D01*
X393101D01*
X393701Y156280D01*
Y120047D02*
X394701Y121047D01*
X395701D01*
X394701Y122047D01*
X395701Y123047D01*
X394701D01*
X393701Y124047D01*
X392701Y123047D01*
X391701D01*
X392701Y122047D01*
X391701Y121047D01*
X392701D01*
X393701Y120047D01*
Y120847D02*
X394301Y121447D01*
X394901D01*
X394301Y122047D01*
X394901Y122647D01*
X394301D01*
X393701Y123247D01*
X393101Y122647D01*
X392501D01*
X393101Y122047D01*
X392501Y121447D01*
X393101D01*
X393701Y120847D01*
X102362Y210598D02*
X103362Y211598D01*
X104362D01*
X103362Y212598D01*
X104362Y213598D01*
X103362D01*
X102362Y214598D01*
X101362Y213598D01*
X100362D01*
X101362Y212598D01*
X100362Y211598D01*
X101362D01*
X102362Y210598D01*
Y211398D02*
X102962Y211998D01*
X103562D01*
X102962Y212598D01*
X103562Y213198D01*
X102962D01*
X102362Y213798D01*
X101762Y213198D01*
X101162D01*
X101762Y212598D01*
X101162Y211998D01*
X101762D01*
X102362Y211398D01*
X90551Y84614D02*
X91551Y85614D01*
X92551D01*
X91551Y86614D01*
X92551Y87614D01*
X91551D01*
X90551Y88614D01*
X89551Y87614D01*
X88551D01*
X89551Y86614D01*
X88551Y85614D01*
X89551D01*
X90551Y84614D01*
Y85414D02*
X91151Y86014D01*
X91751D01*
X91151Y86614D01*
X91751Y87214D01*
X91151D01*
X90551Y87814D01*
X89951Y87214D01*
X89351D01*
X89951Y86614D01*
X89351Y86014D01*
X89951D01*
X90551Y85414D01*
X216535Y80677D02*
X217535Y81677D01*
X218535D01*
X217535Y82677D01*
X218535Y83677D01*
X217535D01*
X216535Y84677D01*
X215535Y83677D01*
X214535D01*
X215535Y82677D01*
X214535Y81677D01*
X215535D01*
X216535Y80677D01*
Y81477D02*
X217135Y82077D01*
X217735D01*
X217135Y82677D01*
X217735Y83277D01*
X217135D01*
X216535Y83877D01*
X215935Y83277D01*
X215335D01*
X215935Y82677D01*
X215335Y82077D01*
X215935D01*
X216535Y81477D01*
X188976Y151543D02*
X189976Y152543D01*
X190976D01*
X189976Y153543D01*
X190976Y154543D01*
X189976D01*
X188976Y155543D01*
X187976Y154543D01*
X186976D01*
X187976Y153543D01*
X186976Y152543D01*
X187976D01*
X188976Y151543D01*
Y152343D02*
X189576Y152943D01*
X190176D01*
X189576Y153543D01*
X190176Y154143D01*
X189576D01*
X188976Y154743D01*
X188376Y154143D01*
X187776D01*
X188376Y153543D01*
X187776Y152943D01*
X188376D01*
X188976Y152343D01*
X98425Y159417D02*
X99425Y160417D01*
X100425D01*
X99425Y161417D01*
X100425Y162417D01*
X99425D01*
X98425Y163417D01*
X97425Y162417D01*
X96425D01*
X97425Y161417D01*
X96425Y160417D01*
X97425D01*
X98425Y159417D01*
Y160217D02*
X99025Y160817D01*
X99625D01*
X99025Y161417D01*
X99625Y162017D01*
X99025D01*
X98425Y162617D01*
X97825Y162017D01*
X97225D01*
X97825Y161417D01*
X97225Y160817D01*
X97825D01*
X98425Y160217D01*
X287402Y328709D02*
X288402Y329709D01*
X289402D01*
X288402Y330709D01*
X289402Y331709D01*
X288402D01*
X287402Y332709D01*
X286402Y331709D01*
X285402D01*
X286402Y330709D01*
X285402Y329709D01*
X286402D01*
X287402Y328709D01*
Y329509D02*
X288002Y330109D01*
X288602D01*
X288002Y330709D01*
X288602Y331309D01*
X288002D01*
X287402Y331909D01*
X286802Y331309D01*
X286202D01*
X286802Y330709D01*
X286202Y330109D01*
X286802D01*
X287402Y329509D01*
X307087Y368079D02*
X308087Y369079D01*
X309087D01*
X308087Y370079D01*
X309087Y371079D01*
X308087D01*
X307087Y372079D01*
X306087Y371079D01*
X305087D01*
X306087Y370079D01*
X305087Y369079D01*
X306087D01*
X307087Y368079D01*
Y368879D02*
X307687Y369479D01*
X308287D01*
X307687Y370079D01*
X308287Y370679D01*
X307687D01*
X307087Y371279D01*
X306487Y370679D01*
X305887D01*
X306487Y370079D01*
X305887Y369479D01*
X306487D01*
X307087Y368879D01*
X322835Y403512D02*
X323835Y404512D01*
X324835D01*
X323835Y405512D01*
X324835Y406512D01*
X323835D01*
X322835Y407512D01*
X321835Y406512D01*
X320835D01*
X321835Y405512D01*
X320835Y404512D01*
X321835D01*
X322835Y403512D01*
Y404312D02*
X323435Y404912D01*
X324035D01*
X323435Y405512D01*
X324035Y406112D01*
X323435D01*
X322835Y406712D01*
X322235Y406112D01*
X321635D01*
X322235Y405512D01*
X321635Y404912D01*
X322235D01*
X322835Y404312D01*
X537833Y148537D02*
X539033Y149737D01*
X540233D01*
X539033Y150937D01*
X540233Y152137D01*
X539033D01*
X537833Y153337D01*
X536633Y152137D01*
X535433D01*
X536633Y150937D01*
X535433Y149737D01*
X536633D01*
X537833Y148537D01*
Y149537D02*
X538533Y150237D01*
X539233D01*
X538533Y150937D01*
X539233Y151637D01*
X538533D01*
X537833Y152337D01*
X537133Y151637D01*
X536433D01*
X537133Y150937D01*
X536433Y150237D01*
X537133D01*
X537833Y149537D01*
Y124537D02*
X535433Y129337D01*
X540233D01*
X537833Y124537D01*
Y125537D02*
X536433Y128337D01*
X539233D01*
X537833Y125537D01*
X535433Y112537D02*
X536633D01*
X537833Y113737D01*
X539033Y112537D01*
X540233D01*
Y113737D01*
X539033Y114937D01*
X540233Y116137D01*
Y117337D01*
X539033D01*
X537833Y116137D01*
X536633Y117337D01*
X535433D01*
Y116137D01*
X536633Y114937D01*
X535433Y113737D01*
Y112537D01*
X536633Y101737D02*
Y100537D01*
X539033D01*
Y101737D01*
X540233D01*
Y104137D01*
X539033D01*
Y105337D01*
X536633D01*
Y104137D01*
X535433D01*
Y101737D01*
X536633D01*
X535433Y88537D02*
Y93337D01*
X540233D01*
Y88537D01*
X535433D01*
X537833Y76537D02*
X539033Y77737D01*
X540233D01*
X539033Y78937D01*
X540233Y80137D01*
X539033D01*
X537833Y81337D01*
X536633Y80137D01*
X535433D01*
X536633Y78937D01*
X535433Y77737D01*
X536633D01*
X537833Y76537D01*
X535433Y64537D02*
Y69337D01*
X540233D01*
Y64537D01*
X535433D01*
X536433Y65537D02*
Y68337D01*
X539233D01*
Y65537D01*
X536433D01*
X537833Y52537D02*
X535433Y57337D01*
X540233D01*
X537833Y52537D01*
X535433Y40537D02*
X536633Y42937D01*
X535433Y45337D01*
X537833Y44137D01*
X540233Y45337D01*
X539033Y42937D01*
X540233Y40537D01*
X537833Y41737D01*
X535433Y40537D01*
Y30937D02*
X537833Y33337D01*
X540233Y30937D01*
X537833Y28537D01*
X535433Y30937D01*
D13*
X155543Y118110D02*
G03*
X155543Y118110I-2000J0D01*
G01*
X147669D02*
G03*
X147669Y118110I-2000J0D01*
G01*
X175228Y122047D02*
G03*
X175228Y122047I-2000J0D01*
G01*
X175228Y114173D02*
G03*
X175228Y114173I-2000J0D01*
G01*
X124047Y118110D02*
G03*
X124047Y118110I-2000J0D01*
G01*
X131921D02*
G03*
X131921Y118110I-2000J0D01*
G01*
X222472Y153543D02*
G03*
X222472Y153543I-2000J0D01*
G01*
Y145669D02*
G03*
X222472Y145669I-2000J0D01*
G01*
X104362Y122047D02*
G03*
X104362Y122047I-2000J0D01*
G01*
Y114173D02*
G03*
X104362Y114173I-2000J0D01*
G01*
X143732Y192913D02*
G03*
X143732Y192913I-2000J0D01*
G01*
X135858D02*
G03*
X135858Y192913I-2000J0D01*
G01*
X281528Y192913D02*
G03*
X281528Y192913I-2000J0D01*
G01*
X273654D02*
G03*
X273654Y192913I-2000J0D01*
G01*
X246094Y98425D02*
G03*
X246094Y98425I-2000J0D01*
G01*
Y106299D02*
G03*
X246094Y106299I-2000J0D01*
G01*
X269717Y98425D02*
G03*
X269717Y98425I-2000J0D01*
G01*
Y106299D02*
G03*
X269717Y106299I-2000J0D01*
G01*
X364205Y98425D02*
G03*
X364205Y98425I-2000J0D01*
G01*
Y106299D02*
G03*
X364205Y106299I-2000J0D01*
G01*
X387827Y98425D02*
G03*
X387827Y98425I-2000J0D01*
G01*
Y106299D02*
G03*
X387827Y106299I-2000J0D01*
G01*
X416370Y188976D02*
G03*
X416370Y188976I-2000J0D01*
G01*
X406528D02*
G03*
X406528Y188976I-2000J0D01*
G01*
X435071Y262795D02*
G03*
X435071Y262795I-2000J0D01*
G01*
Y272638D02*
G03*
X435071Y272638I-2000J0D01*
G01*
X49244Y220472D02*
G03*
X49244Y220472I-2000J0D01*
G01*
X41370D02*
G03*
X41370Y220472I-2000J0D01*
G01*
X493142Y307283D02*
G03*
X493142Y307283I-2000J0D01*
G01*
X493142Y399803D02*
G03*
X493142Y399803I-2000J0D01*
G01*
X258890Y399803D02*
G03*
X258890Y399803I-2000J0D01*
G01*
Y307283D02*
G03*
X258890Y307283I-2000J0D01*
G01*
X21685Y452756D02*
G03*
X21685Y452756I-2000J0D01*
G01*
X41370Y39370D02*
G03*
X41370Y39370I-2000J0D01*
G01*
X474441D02*
G03*
X474441Y39370I-2000J0D01*
G01*
Y433071D02*
G03*
X474441Y433071I-2000J0D01*
G01*
D14*
X492342Y307283D02*
G03*
X492342Y307283I-1200J0D01*
G01*
X492342Y399803D02*
G03*
X492342Y399803I-1200J0D01*
G01*
X258090Y399803D02*
G03*
X258090Y399803I-1200J0D01*
G01*
Y307283D02*
G03*
X258090Y307283I-1200J0D01*
G01*
X20885Y452756D02*
G03*
X20885Y452756I-1200J0D01*
G01*
X40570Y39370D02*
G03*
X40570Y39370I-1200J0D01*
G01*
X473641D02*
G03*
X473641Y39370I-1200J0D01*
G01*
Y433071D02*
G03*
X473641Y433071I-1200J0D01*
G01*
D15*
X540232Y168335D02*
X539032Y169535D01*
X536633D01*
X535433Y168335D01*
Y167136D01*
X536633Y165936D01*
X539032D01*
X540232Y164736D01*
Y163537D01*
X539032Y162337D01*
X536633D01*
X535433Y163537D01*
X542631Y167136D02*
Y163537D01*
X543830Y162337D01*
X547429D01*
Y161137D01*
X546230Y159938D01*
X545030D01*
X547429Y162337D02*
Y167136D01*
X549828Y162337D02*
Y167136D01*
X551028D01*
X552228Y165936D01*
Y162337D01*
Y165936D01*
X553427Y167136D01*
X554627Y165936D01*
Y162337D01*
X557026Y169535D02*
Y162337D01*
X560625D01*
X561825Y163537D01*
Y164736D01*
Y165936D01*
X560625Y167136D01*
X557026D01*
X565423Y162337D02*
X567823D01*
X569022Y163537D01*
Y165936D01*
X567823Y167136D01*
X565423D01*
X564224Y165936D01*
Y163537D01*
X565423Y162337D01*
X571421D02*
X573821D01*
X572621D01*
Y169535D01*
X571421D01*
X585821D02*
Y162337D01*
Y165936D01*
X590619D01*
Y169535D01*
Y162337D01*
X593018D02*
X595417D01*
X594218D01*
Y167136D01*
X593018D01*
X600216Y168335D02*
Y167136D01*
X599016D01*
X601416D01*
X600216D01*
Y163537D01*
X601416Y162337D01*
X617010Y168335D02*
X615811Y169535D01*
X613412D01*
X612212Y168335D01*
Y163537D01*
X613412Y162337D01*
X615811D01*
X617010Y163537D01*
X620609Y162337D02*
X623009D01*
X624208Y163537D01*
Y165936D01*
X623009Y167136D01*
X620609D01*
X619410Y165936D01*
Y163537D01*
X620609Y162337D01*
X626607Y167136D02*
Y163537D01*
X627807Y162337D01*
X631406D01*
Y167136D01*
X633805Y162337D02*
Y167136D01*
X637404D01*
X638604Y165936D01*
Y162337D01*
X642202Y168335D02*
Y167136D01*
X641003D01*
X643402D01*
X642202D01*
Y163537D01*
X643402Y162337D01*
X660201Y169535D02*
X655402D01*
Y165936D01*
X657801D01*
X655402D01*
Y162337D01*
X662600D02*
X664999D01*
X663799D01*
Y167136D01*
X662600D01*
X668598Y162337D02*
Y167136D01*
X672197D01*
X673396Y165936D01*
Y162337D01*
X675795D02*
X678195D01*
X676995D01*
Y167136D01*
X675795D01*
X681793Y162337D02*
X685392D01*
X686592Y163537D01*
X685392Y164736D01*
X682993D01*
X681793Y165936D01*
X682993Y167136D01*
X686592D01*
X688991Y169535D02*
Y162337D01*
Y165936D01*
X690191Y167136D01*
X692590D01*
X693790Y165936D01*
Y162337D01*
X699788D02*
X697388D01*
X696189Y163537D01*
Y165936D01*
X697388Y167136D01*
X699788D01*
X700987Y165936D01*
Y164736D01*
X696189D01*
X708185Y169535D02*
Y162337D01*
X704586D01*
X703386Y163537D01*
Y165936D01*
X704586Y167136D01*
X708185D01*
X717782Y169535D02*
Y162337D01*
Y165936D01*
X722580D01*
Y169535D01*
Y162337D01*
X726179D02*
X728578D01*
X729778Y163537D01*
Y165936D01*
X728578Y167136D01*
X726179D01*
X724979Y165936D01*
Y163537D01*
X726179Y162337D01*
X732177D02*
X734576D01*
X733377D01*
Y169535D01*
X732177D01*
X741774Y162337D02*
X739375D01*
X738175Y163537D01*
Y165936D01*
X739375Y167136D01*
X741774D01*
X742974Y165936D01*
Y164736D01*
X738175D01*
X757369Y168335D02*
X756169Y169535D01*
X753770D01*
X752571Y168335D01*
Y167136D01*
X753770Y165936D01*
X756169D01*
X757369Y164736D01*
Y163537D01*
X756169Y162337D01*
X753770D01*
X752571Y163537D01*
X759768Y162337D02*
X762167D01*
X760968D01*
Y167136D01*
X759768D01*
X765766D02*
X770565D01*
X765766Y162337D01*
X770565D01*
X776563D02*
X774164D01*
X772964Y163537D01*
Y165936D01*
X774164Y167136D01*
X776563D01*
X777762Y165936D01*
Y164736D01*
X772964D01*
X789762Y162337D02*
Y169535D01*
X793361D01*
X794561Y168335D01*
Y165936D01*
X793361Y164736D01*
X789762D01*
X796960Y162337D02*
X799359D01*
X798160D01*
Y169535D01*
X796960D01*
X804158Y167136D02*
X806557D01*
X807757Y165936D01*
Y162337D01*
X804158D01*
X802958Y163537D01*
X804158Y164736D01*
X807757D01*
X811355Y168335D02*
Y167136D01*
X810156D01*
X812555D01*
X811355D01*
Y163537D01*
X812555Y162337D01*
X819753D02*
X817354D01*
X816154Y163537D01*
Y165936D01*
X817354Y167136D01*
X819753D01*
X820952Y165936D01*
Y164736D01*
X816154D01*
X828150Y169535D02*
Y162337D01*
X824551D01*
X823351Y163537D01*
Y165936D01*
X824551Y167136D01*
X828150D01*
X840150Y169535D02*
Y162337D01*
Y165936D01*
X844948D01*
Y169535D01*
Y162337D01*
X848547D02*
X850947D01*
X852146Y163537D01*
Y165936D01*
X850947Y167136D01*
X848547D01*
X847348Y165936D01*
Y163537D01*
X848547Y162337D01*
X854545D02*
X856944D01*
X855745D01*
Y169535D01*
X854545D01*
X864142Y162337D02*
X861743D01*
X860543Y163537D01*
Y165936D01*
X861743Y167136D01*
X864142D01*
X865342Y165936D01*
Y164736D01*
X860543D01*
X874939Y169535D02*
X879737D01*
X877338D01*
Y162337D01*
X882136Y167136D02*
Y163537D01*
X883336Y162337D01*
X886935D01*
Y161137D01*
X885735Y159938D01*
X884536D01*
X886935Y162337D02*
Y167136D01*
X889334Y159938D02*
Y167136D01*
X892933D01*
X894133Y165936D01*
Y163537D01*
X892933Y162337D01*
X889334D01*
X900131D02*
X897731D01*
X896532Y163537D01*
Y165936D01*
X897731Y167136D01*
X900131D01*
X901330Y165936D01*
Y164736D01*
X896532D01*
X526633Y173137D02*
X913330D01*
X526633Y156937D02*
X913330D01*
X526633Y173137D02*
Y937D01*
X913330Y173137D02*
Y937D01*
X581421Y173137D02*
Y937D01*
X651002Y173137D02*
Y937D01*
X785362Y173137D02*
Y937D01*
X835750Y173137D02*
Y937D01*
X526633Y12937D02*
X913330D01*
X526633Y937D02*
X913330D01*
D16*
X540233Y138937D02*
G03*
X540233Y138937I-2400J0D01*
G01*
Y18937D02*
G03*
X540233Y18937I-2400J0D01*
G01*
D17*
X539233D02*
G03*
X539233Y18937I-1400J0D01*
G01*
M02*
